<svg width="70" height="76" viewBox="0 0 70 76" fill="none" xmlns="http://www.w3.org/2000/svg">
<path d="M37.6759 10.221C37.6895 7.92709 36.8425 5.71142 35.3022 4.01151C33.7618 2.31161 31.6401 1.25103 29.3559 1.03919C27.0717 0.82735 24.7911 1.47965 22.9645 2.86729C21.1378 4.25493 19.8977 6.27705 19.4893 8.53437C18.2805 8.76082 17.1298 9.22816 16.1054 9.90857C15.0811 10.589 14.2041 11.4685 13.5267 12.4949C12.8493 13.5212 12.3854 14.6734 12.1625 15.8827C11.9396 17.0921 11.9623 18.334 12.2293 19.5344C10.5743 19.8282 9.03207 20.5713 7.77104 21.6825C6.51002 22.7938 5.5788 24.2303 5.07918 25.8351C4.57957 27.4399 4.53081 29.1512 4.93823 30.7819C5.34564 32.4125 6.19355 33.8998 7.38925 35.081C5.3782 36.0095 3.6943 37.5234 2.55792 39.4247C1.42155 41.3261 0.885653 43.5262 1.02037 45.7371C1.15508 47.948 1.95414 50.0668 3.31295 51.816C4.67176 53.5653 6.52702 54.8636 8.63592 55.541C8.23326 57.0622 8.22895 58.6613 8.6234 60.1846C9.01785 61.7079 9.79777 63.104 10.8881 64.2385C11.9784 65.373 13.3424 66.2078 14.8488 66.6624C16.3553 67.1171 17.9533 67.1763 19.4893 66.8344C19.8699 68.9312 20.9692 70.83 22.5983 72.204C24.2273 73.5781 26.2842 74.3416 28.4152 74.3633C30.5462 74.385 32.6182 73.6636 34.2749 72.3229C35.9315 70.9823 37.0693 69.1064 37.4926 67.0177L37.6759 67.0544V10.221Z" stroke="#E8ECF0" stroke-width="2" stroke-linecap="round" stroke-linejoin="round"/>
<path d="M52.3418 23.0545V12.0545C52.3418 8.02119 55.6418 4.72119 59.6751 4.72119" stroke="#E8ECF0" stroke-width="2" stroke-linecap="round" stroke-linejoin="round"/>
<path d="M37.6758 41.3877H52.3424" stroke="#E8ECF0" stroke-width="2" stroke-linecap="round" stroke-linejoin="round"/>
<path d="M37.6758 59.7212H59.6758C61.6207 59.7212 63.486 60.4938 64.8612 61.8691C66.2365 63.2443 67.0091 65.1096 67.0091 67.0545V70.7212" stroke="#E8ECF0" stroke-width="2" stroke-linecap="round" stroke-linejoin="round"/>
<path d="M37.6758 23.0547H67.0091" stroke="#E8ECF0" stroke-width="2" stroke-linecap="round" stroke-linejoin="round"/>
<path d="M68.8424 23.0545C68.8424 23.5408 68.6493 24.0071 68.3055 24.3509C67.9617 24.6947 67.4953 24.8879 67.0091 24.8879C66.5229 24.8879 66.0566 24.6947 65.7128 24.3509C65.3689 24.0071 65.1758 23.5408 65.1758 23.0545C65.1758 22.5683 65.3689 22.102 65.7128 21.7582C66.0566 21.4143 66.5229 21.2212 67.0091 21.2212C67.4953 21.2212 67.9617 21.4143 68.3055 21.7582C68.6493 22.102 68.8424 22.5683 68.8424 23.0545Z" stroke="#E8ECF0" stroke-width="2" stroke-linecap="round" stroke-linejoin="round"/>
<path d="M54.1764 41.388C54.1764 41.8743 53.9833 42.3406 53.6395 42.6844C53.2956 43.0282 52.8293 43.2214 52.3431 43.2214C51.8569 43.2214 51.3906 43.0282 51.0467 42.6844C50.7029 42.3406 50.5098 41.8743 50.5098 41.388C50.5098 40.9018 50.7029 40.4355 51.0467 40.0917C51.3906 39.7478 51.8569 39.5547 52.3431 39.5547C52.8293 39.5547 53.2956 39.7478 53.6395 40.0917C53.9833 40.4355 54.1764 40.9018 54.1764 41.388Z" stroke="#E8ECF0" stroke-width="2" stroke-linecap="round" stroke-linejoin="round"/>
<path d="M68.8424 70.721C68.8424 71.2073 68.6493 71.6736 68.3055 72.0174C67.9617 72.3612 67.4953 72.5544 67.0091 72.5544C66.5229 72.5544 66.0566 72.3612 65.7128 72.0174C65.3689 71.6736 65.1758 71.2073 65.1758 70.721C65.1758 70.2348 65.3689 69.7685 65.7128 69.4247C66.0566 69.0808 66.5229 68.8877 67.0091 68.8877C67.4953 68.8877 67.9617 69.0808 68.3055 69.4247C68.6493 69.7685 68.8424 70.2348 68.8424 70.721Z" stroke="#E8ECF0" stroke-width="2" stroke-linecap="round" stroke-linejoin="round"/>
<path d="M61.5085 4.72103C61.5085 5.20726 61.3153 5.67357 60.9715 6.01739C60.6277 6.36121 60.1614 6.55436 59.6751 6.55436C59.1889 6.55436 58.7226 6.36121 58.3788 6.01739C58.0349 5.67357 57.8418 5.20726 57.8418 4.72103C57.8418 4.2348 58.0349 3.76848 58.3788 3.42467C58.7226 3.08085 59.1889 2.8877 59.6751 2.8877C60.1614 2.8877 60.6277 3.08085 60.9715 3.42467C61.3153 3.76848 61.5085 4.2348 61.5085 4.72103Z" stroke="#E8ECF0" stroke-width="2" stroke-linecap="round" stroke-linejoin="round"/>
</svg>
