<svg width="62" height="77" viewBox="0 0 62 77" fill="none" xmlns="http://www.w3.org/2000/svg">
<path d="M53.5 1H8.5C6.51088 1 4.60322 1.79018 3.1967 3.1967C1.79018 4.60322 1 6.51088 1 8.5V68.5C1 70.4891 1.79018 72.3968 3.1967 73.8033C4.60322 75.2098 6.51088 76 8.5 76H53.5C55.4891 76 57.3968 75.2098 58.8033 73.8033C60.2098 72.3968 61 70.4891 61 68.5V8.5C61 6.51088 60.2098 4.60322 58.8033 3.1967C57.3968 1.79018 55.4891 1 53.5 1Z" stroke="#E8ECF0" stroke-width="2" stroke-linecap="round" stroke-linejoin="round"/>
<path d="M19.75 53.4996L21.055 52.5996C26.5487 48.8008 35.455 48.8008 40.945 52.5996L42.25 53.4996" stroke="#E8ECF0" stroke-width="2" stroke-linecap="round" stroke-linejoin="round"/>
<path d="M16 19.75H16.0364" stroke="#E8ECF0" stroke-width="2" stroke-linecap="round" stroke-linejoin="round"/>
<path d="M46 19.75H46.0364" stroke="#E8ECF0" stroke-width="2" stroke-linecap="round" stroke-linejoin="round"/>
<path d="M31 19.75H31.0364" stroke="#E8ECF0" stroke-width="2" stroke-linecap="round" stroke-linejoin="round"/>
<path d="M31 34.75H31.0364" stroke="#E8ECF0" stroke-width="2" stroke-linecap="round" stroke-linejoin="round"/>
<path d="M46 34.75H46.0364" stroke="#E8ECF0" stroke-width="2" stroke-linecap="round" stroke-linejoin="round"/>
<path d="M16 34.75H16.0364" stroke="#E8ECF0" stroke-width="2" stroke-linecap="round" stroke-linejoin="round"/>
<path d="M23.5 76V51.625M38.5 51.625V76" stroke="#E8ECF0" stroke-width="2" stroke-linecap="round" stroke-linejoin="round"/>
</svg>
