<svg width="18" height="22" viewBox="0 0 18 22" fill="none" xmlns="http://www.w3.org/2000/svg">
<path d="M17 9C17 15 9 21 9 21C9 21 1 15 1 9C1 6.87827 1.84285 4.84344 3.34315 3.34315C4.84344 1.84285 6.87827 1 9 1C11.1217 1 13.1566 1.84285 14.6569 3.34315C16.1571 4.84344 17 6.87827 17 9Z" stroke="#E8ECF0" stroke-width="2" stroke-linecap="round" stroke-linejoin="round"/>
<path d="M9 12C10.6569 12 12 10.6569 12 9C12 7.34315 10.6569 6 9 6C7.34315 6 6 7.34315 6 9C6 10.6569 7.34315 12 9 12Z" stroke="#E8ECF0" stroke-width="2" stroke-linecap="round" stroke-linejoin="round"/>
</svg>
