<svg width="14" height="13" viewBox="0 0 14 13" fill="none" xmlns="http://www.w3.org/2000/svg">
<path d="M5 0H6V1H5V0ZM6 0H7V1H6V0ZM7 0H8V1H7V0ZM8 0H9V1H8V0ZM3 1H4V2H3V1ZM4 1H5V2H4V1ZM5 1H6V2H5V1ZM6 1H7V2H6V1ZM7 1H8V2H7V1ZM8 1H9V2H8V1ZM9 1H10V2H9V1ZM10 1H11V2H10V1ZM1 2H2V3H1V2ZM2 2H3V3H2V2ZM3 2H4V3H3V2ZM10 2H11V3H10V2ZM11 2H12V3H11V2ZM12 2H13V3H12V2ZM0 3H1V4H0V3ZM1 3H2V4H1V3ZM4 3H5V4H4V3ZM5 3H6V4H5V3ZM6 3H7V4H6V3ZM7 3H8V4H7V3ZM8 3H9V4H8V3ZM9 3H10V4H9V3ZM12 3H13V4H12V3ZM13 3H14V4H13V3ZM0 4H1V5H0V4ZM2 4H3V5H2V4ZM3 4H4V5H3V4ZM4 4H5V5H4V4ZM9 4H10V5H9V4ZM10 4H11V5H10V4ZM11 4H12V5H11V4ZM13 4H14V5H13V4ZM0 5H1V6H0V5ZM1 5H2V6H1V5ZM3 5H4V6H3V5ZM5 5H6V6H5V5ZM8 5H9V6H8V5ZM10 5H11V6H10V5ZM12 5H13V6H12V5ZM13 5H14V6H13V5ZM0 6H1V7H0V6ZM2 6H3V7H2V6ZM3 6H4V7H3V6ZM5 6H6V7H5V6ZM8 6H9V7H8V6ZM10 6H11V7H10V6ZM11 6H12V7H11V6ZM13 6H14V7H13V6ZM0 7H1V8H0V7ZM1 7H2V8H1V7ZM3 7H4V8H3V7ZM10 7H11V8H10V7ZM12 7H13V8H12V7ZM13 7H14V8H13V7ZM0 8H1V9H0V8ZM1 8H2V9H1V8ZM3 8H4V9H3V8ZM4 8H5V9H4V8ZM9 8H10V9H9V8ZM10 8H11V9H10V8ZM12 8H13V9H12V8ZM13 8H14V9H13V8ZM4 9H5V10H4V9ZM5 9H6V10H5V9ZM6 9H7V10H6V9ZM7 9H8V10H7V9ZM8 9H9V10H8V9ZM9 9H10V10H9V9ZM1 10H2V11H1V10ZM2 10H3V11H2V10ZM3 10H4V11H3V10ZM5 10H6V11H5V10ZM6 10H7V11H6V10ZM7 10H8V11H7V10ZM8 10H9V11H8V10ZM10 10H11V11H10V10ZM11 10H12V11H11V10ZM12 10H13V11H12V10ZM1 11H2V12H1V11ZM2 11H3V12H2V11ZM3 11H4V12H3V11ZM4 11H5V12H4V11ZM9 11H10V12H9V11ZM10 11H11V12H10V11ZM11 11H12V12H11V11ZM12 11H13V12H12V11ZM2 12H3V13H2V12ZM3 12H4V13H3V12ZM10 12H11V13H10V12ZM11 12H12V13H11V12Z" fill="#E8ECF0"/>
</svg>
