<svg width="12" height="12" viewBox="0 0 12 12" fill="none" xmlns="http://www.w3.org/2000/svg">
<path d="M3.54545 0C1.59 0 0 1.59 0 3.54545V8.45455C0 10.41 1.59 12 3.54545 12H8.45455C10.41 12 12 10.41 12 8.45455V3.54545C12 1.59 10.41 0 8.45455 0H3.54545ZM9.27273 2.18182C9.57273 2.18182 9.81818 2.42727 9.81818 2.72727C9.81818 3.02727 9.57273 3.27273 9.27273 3.27273C8.97273 3.27273 8.72727 3.02727 8.72727 2.72727C8.72727 2.42727 8.97273 2.18182 9.27273 2.18182ZM6 3C7.65545 3 9 4.34455 9 6C9 7.65545 7.65545 9 6 9C4.34455 9 3 7.65545 3 6C3 4.34455 4.34455 3 6 3ZM6 3.54545C4.64727 3.54545 3.54545 4.64727 3.54545 6C3.54545 7.35273 4.64727 8.45455 6 8.45455C7.35273 8.45455 8.45455 7.35273 8.45455 6C8.45455 4.64727 7.35273 3.54545 6 3.54545Z" fill="#E8ECF0"/>
</svg>
