<svg width="18" height="10" viewBox="0 0 18 10" fill="none" xmlns="http://www.w3.org/2000/svg">
<path d="M5 0C4.34339 -9.78424e-09 3.69321 0.129329 3.08658 0.380602C2.47995 0.631876 1.92876 1.00017 1.46447 1.46447C1.00017 1.92876 0.631876 2.47995 0.380602 3.08658C0.129329 3.69321 0 4.34339 0 5C0 5.65661 0.129329 6.30679 0.380602 6.91342C0.631876 7.52005 1.00017 8.07124 1.46447 8.53553C1.92876 8.99983 2.47995 9.36812 3.08658 9.6194C3.69321 9.87067 4.34339 10 5 10C5.65661 10 6.30679 9.87067 6.91342 9.6194C7.52004 9.36812 8.07124 8.99983 8.53553 8.53553C8.99983 8.07124 9.36812 7.52005 9.6194 6.91342C9.87067 6.30679 10 5.65661 10 5C10 4.34339 9.87067 3.69321 9.6194 3.08658C9.36812 2.47995 8.99983 1.92876 8.53553 1.46447C8.07124 1.00017 7.52004 0.631876 6.91342 0.380602C6.30679 0.129329 5.65661 -9.78424e-09 5 0ZM12.9412 0.588235C12.6322 0.588235 12.3262 0.702349 12.0407 0.924061C11.7553 1.14577 11.4959 1.47074 11.2774 1.88041C11.0589 2.29008 10.8856 2.77643 10.7673 3.31169C10.6491 3.84695 10.5882 4.42064 10.5882 5C10.5882 5.57936 10.6491 6.15305 10.7673 6.68831C10.8856 7.22357 11.0589 7.70992 11.2774 8.11959C11.4959 8.52926 11.7553 8.85423 12.0407 9.07594C12.3262 9.29765 12.6322 9.41177 12.9412 9.41177C13.2502 9.41177 13.5561 9.29765 13.8416 9.07594C14.1271 8.85423 14.3865 8.52926 14.605 8.11959C14.8234 7.70992 14.9968 7.22357 15.115 6.68831C15.2333 6.15305 15.2941 5.57936 15.2941 5C15.2941 4.42064 15.2333 3.84695 15.115 3.31169C14.9968 2.77643 14.8234 2.29008 14.605 1.88041C14.3865 1.47074 14.1271 1.14577 13.8416 0.924061C13.5561 0.702349 13.2502 0.588235 12.9412 0.588235ZM16.7647 1.17647C16.5307 1.17647 16.3063 1.57931 16.1408 2.29636C15.9753 3.01341 15.8824 3.98594 15.8824 5C15.8824 6.01406 15.9753 6.98659 16.1408 7.70364C16.3063 8.42069 16.5307 8.82353 16.7647 8.82353C16.9987 8.82353 17.2231 8.42069 17.3886 7.70364C17.5541 6.98659 17.6471 6.01406 17.6471 5C17.6471 3.98594 17.5541 3.01341 17.3886 2.29636C17.2231 1.57931 16.9987 1.17647 16.7647 1.17647Z" fill="#E8ECF0"/>
</svg>
