<svg width="101" height="101" viewBox="0 0 101 101" fill="none" xmlns="http://www.w3.org/2000/svg">
<path d="M50.1668 89.4999C60.5987 89.4999 70.6033 85.3559 77.9797 77.9795C85.3561 70.603 89.5002 60.5984 89.5002 50.1666C89.5002 39.7347 85.3561 29.7301 77.9797 22.3537C70.6033 14.9773 60.5987 10.8333 50.1668 10.8333C39.735 10.8333 29.7304 14.9773 22.354 22.3537C14.9775 29.7301 10.8335 39.7347 10.8335 50.1666C10.8335 60.5984 14.9775 70.603 22.354 77.9795C29.7304 85.3559 39.735 89.4999 50.1668 89.4999Z" stroke="#E8ECF0" stroke-width="2" stroke-linecap="round" stroke-linejoin="round"/>
<path d="M50.1668 59.9999C52.7748 59.9999 55.2759 58.9639 57.12 57.1198C58.9642 55.2757 60.0002 52.7745 60.0002 50.1666C60.0002 47.5586 58.9642 45.0575 57.12 43.2134C55.2759 41.3693 52.7748 40.3333 50.1668 40.3333C47.5589 40.3333 45.0577 41.3693 43.2136 43.2134C41.3695 45.0575 40.3335 47.5586 40.3335 50.1666C40.3335 52.7745 41.3695 55.2757 43.2136 57.1198C45.0577 58.9639 47.5589 59.9999 50.1668 59.9999Z" stroke="#E8ECF0" stroke-width="2" stroke-linecap="round" stroke-linejoin="round"/>
<path d="M50.1667 1V10.8333" stroke="#E8ECF0" stroke-width="2" stroke-linecap="round" stroke-linejoin="round"/>
<path d="M50.1667 99.3333V89.5" stroke="#E8ECF0" stroke-width="2" stroke-linecap="round" stroke-linejoin="round"/>
<path d="M74.7502 92.745L69.8335 84.2391" stroke="#E8ECF0" stroke-width="2" stroke-linecap="round" stroke-linejoin="round"/>
<path d="M45.2502 41.6608L25.5835 7.58826" stroke="#E8ECF0" stroke-width="2" stroke-linecap="round" stroke-linejoin="round"/>
<path d="M92.7451 74.7499L84.2393 69.8333" stroke="#E8ECF0" stroke-width="2" stroke-linecap="round" stroke-linejoin="round"/>
<path d="M7.58838 25.5833L16.0942 30.4999" stroke="#E8ECF0" stroke-width="2" stroke-linecap="round" stroke-linejoin="round"/>
<path d="M60 50.1666H99.3333" stroke="#E8ECF0" stroke-width="2" stroke-linecap="round" stroke-linejoin="round"/>
<path d="M1 50.1666H10.8333" stroke="#E8ECF0" stroke-width="2" stroke-linecap="round" stroke-linejoin="round"/>
<path d="M92.7451 25.5833L84.2393 30.4999" stroke="#E8ECF0" stroke-width="2" stroke-linecap="round" stroke-linejoin="round"/>
<path d="M7.58838 74.7499L16.0942 69.8333" stroke="#E8ECF0" stroke-width="2" stroke-linecap="round" stroke-linejoin="round"/>
<path d="M74.7502 7.58826L69.8335 16.0941" stroke="#E8ECF0" stroke-width="2" stroke-linecap="round" stroke-linejoin="round"/>
<path d="M45.2502 58.6725L25.5835 92.745" stroke="#E8ECF0" stroke-width="2" stroke-linecap="round" stroke-linejoin="round"/>
</svg>
