<svg width="80" height="77" viewBox="0 0 80 77" fill="none" xmlns="http://www.w3.org/2000/svg">
<path d="M48.5187 10.9135C49.7064 11.507 51.016 11.816 52.3438 11.816C53.6716 11.816 54.9811 11.507 56.1689 10.9135L71.8244 3.08353C72.4773 2.75732 73.2026 2.60351 73.9317 2.63671C74.6607 2.66991 75.3691 2.88902 75.9895 3.27321C76.61 3.6574 77.1219 4.1939 77.4765 4.83171C77.8311 5.46952 78.0167 6.18743 78.0157 6.9172V61.5299C78.0152 62.3242 77.7937 63.1028 77.3758 63.7784C76.9579 64.454 76.3602 64.9999 75.6496 65.355L56.1689 75.0974C54.9811 75.691 53.6716 76 52.3438 76C51.016 76 49.7064 75.691 48.5187 75.0974L30.497 66.0866C29.3093 65.4931 27.9997 65.1841 26.6719 65.1841C25.3441 65.1841 24.0345 65.4931 22.8468 66.0866L7.19121 73.9165C6.53809 74.2429 5.81231 74.3967 5.08294 74.3633C4.35357 74.3299 3.64488 74.1104 3.02431 73.7257C2.40374 73.3411 1.89194 72.8039 1.53761 72.1656C1.18328 71.5272 0.998211 70.8087 1.00001 70.0786V15.4702C1.00044 14.6758 1.222 13.8973 1.63989 13.2217C2.05779 12.5461 2.6555 12.0002 3.3661 11.6451L22.8468 1.90263C24.0345 1.3091 25.3441 1.00012 26.6719 1.00012C27.9997 1.00012 29.3093 1.3091 30.497 1.90263L48.5187 10.9135Z" stroke="#E8ECF0" stroke-width="2" stroke-linecap="round" stroke-linejoin="round"/>
<path d="M52.3438 11.8163V75.996" stroke="#E8ECF0" stroke-width="2" stroke-linecap="round" stroke-linejoin="round"/>
<path d="M26.6719 1V65.1797" stroke="#E8ECF0" stroke-width="2" stroke-linecap="round" stroke-linejoin="round"/>
<path d="M43.2388 36.8424C43.2388 36.8424 41.1188 36.6495 40.155 38.1915C39.1913 39.7336 38.035 40.3116 38.035 40.3116C32.7238 41.7027 31.7269 38.1158 31.6695 35.484C31.2389 36.5265 31 37.6681 31 38.866C31 43.7626 34.9695 47.732 39.866 47.732C43.196 47.732 46.0957 45.8951 47.6112 43.1803C48.5803 36.6768 43.2388 36.8424 43.2388 36.8424Z" stroke="#E8ECF0" stroke-width="2" stroke-miterlimit="10" stroke-linecap="round" stroke-linejoin="round"/>
<path d="M39.8661 30C36.1676 30 32.9991 32.2656 31.6697 35.484C31.7273 38.1158 32.7242 41.7027 38.0351 40.3116C38.0351 40.3116 39.1914 39.7333 40.1552 38.1915C41.1189 36.6495 43.239 36.8423 43.239 36.8423C43.239 36.8423 48.5805 36.6768 47.6113 43.1802C48.3241 41.903 48.7321 40.4325 48.7321 38.866C48.7321 33.9695 44.7627 30 39.8661 30Z" stroke="#E8ECF0" stroke-width="2" stroke-miterlimit="10" stroke-linecap="round" stroke-linejoin="round"/>
</svg>
