<svg width="56" height="72" viewBox="0 0 56 72" fill="none" xmlns="http://www.w3.org/2000/svg">
<path d="M49.1992 55.0692C51.1 52.2434 52.9282 49.3705 54.6819 46.4533C54.9182 46.0471 55.0269 45.5806 54.9944 45.1132C54.9618 44.6458 54.7893 44.1985 54.4989 43.8282C52.9763 41.8303 50.0609 37.776 48.4733 34.0222C46.8415 30.1692 46.5966 24.1783 46.5848 21.2558C46.5874 20.1471 46.2157 19.0694 45.5284 18.1932L36.0916 6.33971C36.0561 6.87234 35.9812 7.40168 35.8674 7.92348C35.5546 9.39059 34.9614 10.8519 34.2857 12.2986C33.8903 13.1444 33.43 14.0486 32.9696 14.9644L32.0549 16.7903C30.5322 19.9053 29.1129 23.2858 28.7145 27.2613C28.3486 30.9363 28.8503 35.2239 31.1195 40.3311C31.4972 40.3632 31.8778 40.404 32.2585 40.4594C35.8935 40.9437 39.3055 42.4697 42.073 44.8491C44.7759 47.1533 47.2192 50.455 49.1992 55.0576V55.0692ZM16.2797 66.8265C16.4951 66.8615 16.7105 66.8848 16.9289 66.8848C19.2305 66.9548 23.1109 67.1532 26.2535 67.7307C28.8208 68.1974 33.905 69.5974 38.0864 70.8078C41.2821 71.7295 44.5723 69.2095 45.0356 65.9544C45.372 63.5802 46.0094 60.8939 47.175 58.4293L47.1454 58.4439C45.1684 52.9896 42.6543 49.4662 40.0162 47.2174C37.7066 45.2273 34.8559 43.9523 31.8188 43.5511C27.2745 42.9211 23.1079 44.1053 20.4876 44.8636C22.0574 51.3329 21.5735 58.9485 16.2827 66.8294L16.2797 66.8265ZM19.5876 41.8623C21.4024 41.3286 24.3266 40.5061 27.6876 40.3048C25.6722 35.2735 25.1853 30.8751 25.5748 26.955C26.0293 22.4283 27.6404 18.6511 29.2191 15.434C29.5526 14.7486 29.8772 14.1098 30.187 13.4973C30.6267 12.6311 31.0368 11.8144 31.4234 10.9889C32.0637 9.61809 32.5418 8.40765 32.7808 7.28472C33.0168 6.17637 33.0168 5.18469 32.7395 4.24259C32.4591 3.29466 31.8631 2.27381 30.7329 1.15087C29.9762 0.95592 29.1823 0.949806 28.4226 1.13308C27.6629 1.31635 26.9612 1.68328 26.3804 2.20089L11.7738 15.1861C10.9588 15.9103 10.4237 16.8918 10.26 17.9628L9 26.2171C10.983 27.938 15.8695 32.9722 18.841 39.9577C19.1066 40.5702 19.3574 41.2119 19.5876 41.8623Z" fill="#E8ECF0"/>
<path d="M22.7336 50.9791C21.1029 50.5404 19.4727 50.0989 17.8421 49.6597C17.849 49.6103 17.8527 49.5606 17.8581 49.511C18.1083 47.0765 17.6965 45.0345 17.3771 43.9058C16.7531 41.6664 15.7272 39.9962 15.0027 39.0159C15.1563 38.8658 18.0909 35.9148 18.567 35.4384C18.6369 35.3676 18.6993 35.2898 18.7531 35.2061C19.0863 34.6872 19.0476 33.9526 18.5516 33.4711C18.0562 32.9877 17.1871 32.911 16.6076 33.4879C13.1604 36.9369 16.8375 33.301 13.1731 36.9344C13.1412 36.9653 12.6929 36.4214 11.4896 35.5789C9.68368 34.3148 5.74797 32.1952 0.495671 33.0162L8.27947 62.0658C9.58539 61.5615 10.7006 60.9388 11.7514 60.1676C13.8242 58.6472 15.1391 56.8682 15.9265 55.494C16.4929 54.5058 16.9462 53.457 17.2779 52.3674C18.8498 52.8017 20.434 53.2238 22.0121 53.648C22.517 53.7821 23.0363 53.6182 23.3641 53.2755C23.5168 53.1186 23.6299 52.9276 23.6941 52.7183C23.7584 52.509 23.7718 52.2874 23.7333 52.0719C23.6288 51.4221 23.0501 51.0365 22.7336 50.9791ZM12.4798 53.6759C11.8904 54.3455 10.9743 54.4996 10.4316 54.022C9.88897 53.5448 9.92705 52.616 10.5165 51.9469C11.106 51.2773 12.0221 51.1231 12.5649 51.6008C13.0995 52.0708 13.0793 52.9953 12.4798 53.6759ZM9.44536 39.9678C9.21417 40.6528 8.3437 40.9773 7.49842 40.6922C6.65335 40.4075 6.1554 39.6201 6.38663 38.9352C6.61792 38.2505 7.48839 37.9261 8.33357 38.2108C9.19234 38.5006 9.6743 39.2898 9.44536 39.9678Z" fill="#E8ECF0"/>
</svg>
