<svg width="84" height="103" viewBox="0 0 84 103" fill="none" xmlns="http://www.w3.org/2000/svg">
<path d="M1.77344 89.4292V14.0031C1.77344 10.6691 3.09788 7.47161 5.4554 5.11409C7.81292 2.75657 11.0104 1.43213 14.3444 1.43213H82.2279V102H14.3444C11.0104 102 7.81292 100.676 5.4554 98.3182C3.09788 95.9607 1.77344 92.7632 1.77344 89.4292ZM1.77344 89.4292C1.77344 86.0952 3.09788 82.8977 5.4554 80.5401C7.81292 78.1826 11.0104 76.8582 14.3444 76.8582H82.2279" stroke="#E8ECF0" stroke-width="2" stroke-linecap="round" stroke-linejoin="round"/>
<path d="M49.1608 16.6345C46.5716 18.1294 44.6823 20.5916 43.9085 23.4795C43.1347 26.3674 43.5398 29.4444 45.0346 32.0336C46.5295 34.6228 48.9917 36.5121 51.8796 37.2859C54.7675 38.0597 57.8445 37.6546 60.4337 36.1598C59.6177 39.2054 57.9168 41.9407 55.5462 44.0196C53.1755 46.0986 50.2417 47.4279 47.1155 47.8395C43.9894 48.2511 40.8115 47.7264 37.9835 46.3318C35.1556 44.9372 32.8047 42.7354 31.2282 40.0047C29.6516 37.2741 28.9202 34.1372 29.1265 30.9909C29.3327 27.8446 30.4673 24.83 32.3868 22.3285C34.3062 19.827 36.9244 17.9508 39.9102 16.9373C42.8959 15.9238 46.1152 15.8184 49.1608 16.6345Z" stroke="#E8ECF0" stroke-width="2" stroke-linecap="round" stroke-linejoin="round"/>
</svg>
