<svg width="26" height="33" viewBox="0 0 26 33" fill="none" xmlns="http://www.w3.org/2000/svg">
<path d="M8.0982 27.0662C6.52822 25.65 6.06993 22.6743 6.72403 20.5186C7.85816 21.8777 9.42961 22.3083 11.0573 22.5513C13.5702 22.9264 16.038 22.7861 18.3723 21.6527C18.6393 21.5229 18.8861 21.3504 19.1779 21.1756C19.3969 21.8027 19.4539 22.4358 19.3774 23.0801C19.1914 24.6493 18.4001 25.8615 17.1414 26.7804C16.6381 27.1479 16.1055 27.4764 15.5857 27.823C13.9887 28.8881 13.5566 30.1371 14.1567 31.9538C14.171 31.998 14.1838 32.0423 14.216 32.1503C13.4006 31.7903 12.805 31.266 12.3512 30.5766C11.8719 29.849 11.6439 29.0442 11.6319 28.1733C11.6259 27.7495 11.6259 27.322 11.5681 26.9041C11.4271 25.8855 10.9426 25.4295 10.0297 25.4032C9.09284 25.3762 8.35173 25.9478 8.1552 26.8479C8.14021 26.9169 8.11846 26.9851 8.09671 27.0654L8.0982 27.0662Z" fill="#E8ECF0"/>
<path d="M0.203125 21.1783C0.203125 21.1783 4.49595 19.0923 8.80076 19.0923L12.0464 9.0725C12.1679 8.58792 12.5228 8.25864 12.9233 8.25864C13.3239 8.25864 13.6786 8.58792 13.8002 9.0725L17.0458 19.0923C22.1443 19.0923 25.6435 21.1783 25.6435 21.1783C25.6435 21.1783 18.3517 1.36372 18.3375 1.32397C18.1282 0.738139 17.7749 0.36084 17.2986 0.36084H8.54873C8.07241 0.36084 7.73337 0.738139 7.50982 1.32397C7.49406 1.36297 0.203125 21.1783 0.203125 21.1783Z" fill="#E8ECF0"/>
</svg>
