<svg width="109" height="38" viewBox="0 0 109 38" fill="none" xmlns="http://www.w3.org/2000/svg">
<g opacity="0.7">
<path opacity="0.7" d="M81.8027 24.3758L99.4444 34.2844L100.18 33.8714L82.5379 23.9629" fill="#E8ECF0"/>
<path opacity="0.7" d="M79.5977 25.6141L97.2393 35.5227L97.9744 35.1097L80.3328 25.2012" fill="#E8ECF0"/>
<path opacity="0.7" d="M77.3926 26.8534L95.0336 36.7619L95.7688 36.349L78.1271 26.4404" fill="#E8ECF0"/>
<path opacity="0.7" d="M75.1875 28.0917L92.8292 38.0002L93.5643 37.5873L75.9226 27.6787" fill="#E8ECF0"/>
<path opacity="0.7" d="M90.623 19.4217L108.265 29.3303L109 28.9173L91.3582 19.0088" fill="#E8ECF0"/>
<path opacity="0.7" d="M88.418 20.66L106.059 30.5686L106.794 30.1556L89.1531 20.2471" fill="#E8ECF0"/>
<path opacity="0.7" d="M86.2129 21.8988L103.855 31.8073L104.59 31.3944L86.948 21.4858" fill="#E8ECF0"/>
<path opacity="0.7" d="M84.0078 23.1371L101.649 33.0456L102.385 32.6327L84.743 22.7241" fill="#E8ECF0"/>
</g>
<g opacity="0.6">
<path opacity="0.6" d="M108.266 10.3216V29.3305L109.001 28.9175V9.90869" fill="#E8ECF0"/>
<path opacity="0.6" d="M106.061 11.5599V30.5688L106.796 30.1558V11.147" fill="#E8ECF0"/>
<path opacity="0.6" d="M103.855 12.7987V31.8075L104.591 31.3946V12.3857" fill="#E8ECF0"/>
<path opacity="0.6" d="M101.65 14.037V33.0458L102.386 32.6329V13.624" fill="#E8ECF0"/>
<path opacity="0.6" d="M99.4453 15.2757L99.4459 34.2846L100.181 33.8716L100.18 14.8628" fill="#E8ECF0"/>
<path opacity="0.6" d="M97.2402 16.514V35.5229L97.9754 35.1099V16.1011" fill="#E8ECF0"/>
<path opacity="0.6" d="M95.0352 17.7533V36.7621L95.7703 36.3492V17.3403" fill="#E8ECF0"/>
<path opacity="0.6" d="M92.8301 18.9911V37.9999L93.5652 37.587V18.5781" fill="#E8ECF0"/>
</g>
<g opacity="0.8">
<path opacity="0.8" d="M81.8027 5.36706L99.4438 15.2756L100.179 14.8626L82.5379 4.9541" fill="#E8ECF0"/>
<path opacity="0.8" d="M79.5977 6.60534L97.2393 16.5139L97.9744 16.1009L80.3328 6.19238" fill="#E8ECF0"/>
<path opacity="0.8" d="M77.3926 7.84459L95.0342 17.7531L95.7694 17.3402L78.1277 7.43164" fill="#E8ECF0"/>
<path opacity="0.8" d="M75.1875 9.08239L92.8292 18.9909L93.5643 18.578L75.9226 8.66943" fill="#E8ECF0"/>
<path opacity="0.8" d="M90.623 0.412954L108.265 10.3215L109 9.90854L91.3582 0" fill="#E8ECF0"/>
<path opacity="0.8" d="M88.418 1.65124L106.059 11.5598L106.794 11.1468L89.1525 1.23828" fill="#E8ECF0"/>
<path opacity="0.8" d="M86.2129 2.89L103.855 12.7985L104.59 12.3856L86.948 2.47705" fill="#E8ECF0"/>
<path opacity="0.8" d="M84.0078 4.12818L101.649 14.0367L102.385 13.6238L84.743 3.71582" fill="#E8ECF0"/>
</g>
<g opacity="0.7">
<path opacity="0.7" d="M54.4991 0.825907L36.8574 10.7344V9.90853L54.4991 0" fill="#E8ECF0"/>
<path opacity="0.7" d="M54.4991 3.31175L36.8574 13.2197V12.3944L54.4991 2.48584" fill="#E8ECF0"/>
<path opacity="0.7" d="M54.4991 5.7888L36.8574 15.6967V14.8714L54.4991 4.96289" fill="#E8ECF0"/>
<path opacity="0.7" d="M54.4991 8.27513L36.8574 18.1831V17.3578L54.4991 7.44922" fill="#E8ECF0"/>
<path opacity="0.7" d="M54.4991 10.7346L36.8574 20.6425V19.8172L54.4991 9.90869" fill="#E8ECF0"/>
<path opacity="0.7" d="M54.4991 13.2199L36.8574 23.1284V22.3031L54.4991 12.3945" fill="#E8ECF0"/>
<path opacity="0.7" d="M54.4991 15.6969L36.8574 25.6054V24.7801L54.4991 14.8716" fill="#E8ECF0"/>
<path opacity="0.7" d="M54.4991 18.1827L36.8574 28.0913V27.266L54.4991 17.3574" fill="#E8ECF0"/>
</g>
<g opacity="0.6">
<path opacity="0.6" d="M54.5 0.825907L72.1417 10.7344V9.90853L54.5 0" fill="#E8ECF0"/>
<path opacity="0.6" d="M54.5 3.31175L72.1417 13.2197V12.3944L54.5 2.48584" fill="#E8ECF0"/>
<path opacity="0.6" d="M54.5 5.7888L72.1417 15.6967V14.8714L54.5 4.96289" fill="#E8ECF0"/>
<path opacity="0.6" d="M54.5 8.27513L72.1417 18.1831V17.3578L54.5 7.44922" fill="#E8ECF0"/>
<path opacity="0.6" d="M54.5 10.7346L72.1417 20.6425V19.8172L54.5 9.90869" fill="#E8ECF0"/>
<path opacity="0.6" d="M54.5 13.2199L72.1417 23.1284V22.3031L54.5 12.3945" fill="#E8ECF0"/>
<path opacity="0.6" d="M54.5 15.6969L72.1417 25.6054V24.7801L54.5 14.8716" fill="#E8ECF0"/>
<path opacity="0.6" d="M54.5 18.1827L72.1417 28.0913V27.266L54.5 17.3574" fill="#E8ECF0"/>
</g>
<g opacity="0.8">
<path opacity="0.8" d="M72.1417 10.7346L54.5 20.6425V19.8172L72.1417 9.90869" fill="#E8ECF0"/>
<path opacity="0.8" d="M72.1417 13.2199L54.5 23.1284V22.3031L72.1417 12.3945" fill="#E8ECF0"/>
<path opacity="0.8" d="M72.1417 15.6969L54.5 25.6054V24.7801L72.1417 14.8716" fill="#E8ECF0"/>
<path opacity="0.8" d="M72.1417 18.1832L54.5 28.0918V27.2664L72.1417 17.3579" fill="#E8ECF0"/>
<path opacity="0.8" d="M72.1417 20.6427L54.5 30.5512V29.7259L72.1417 19.8174" fill="#E8ECF0"/>
<path opacity="0.8" d="M72.1417 23.1285L54.5 33.0371V32.2118L72.1417 22.3032" fill="#E8ECF0"/>
<path opacity="0.8" d="M72.1417 25.6056L54.5 35.5141V34.6888L72.1417 24.7803" fill="#E8ECF0"/>
<path opacity="0.8" d="M72.1417 28.0914L54.5 38V37.1741L72.1417 27.2661" fill="#E8ECF0"/>
</g>
<g opacity="0.8">
<path opacity="0.8" d="M27.1971 24.3758L9.55546 34.2844L8.82031 33.8714L26.462 23.9629" fill="#E8ECF0"/>
<path opacity="0.8" d="M29.4022 25.6141L11.7605 35.5227L11.0254 35.1097L28.667 25.2012" fill="#E8ECF0"/>
<path opacity="0.8" d="M31.6073 26.8534L13.9656 36.7619L13.2305 36.349L30.8721 26.4404" fill="#E8ECF0"/>
<path opacity="0.8" d="M33.8123 28.0917L16.1707 38.0002L15.4355 37.5873L33.0772 27.6787" fill="#E8ECF0"/>
<path opacity="0.8" d="M18.3768 19.4217L0.735144 29.3303L0 28.9173L17.6416 19.0088" fill="#E8ECF0"/>
<path opacity="0.8" d="M20.5813 20.66L2.93962 30.5686L2.20508 30.1556L19.8467 20.2471" fill="#E8ECF0"/>
<path opacity="0.8" d="M22.7869 21.8988L5.1453 31.8073L4.41016 31.3944L22.0518 21.4858" fill="#E8ECF0"/>
<path opacity="0.8" d="M24.992 23.1371L7.35038 33.0456L6.61523 32.6327L24.2569 22.7241" fill="#E8ECF0"/>
</g>
<g opacity="0.6">
<path opacity="0.6" d="M0.735145 10.3216V29.3305L0 28.9175V9.90869" fill="#E8ECF0"/>
<path opacity="0.6" d="M2.94022 11.5599L2.93962 30.5688L2.20508 30.1558V11.147" fill="#E8ECF0"/>
<path opacity="0.6" d="M5.1453 12.7987V31.8075L4.41016 31.3946V12.3857" fill="#E8ECF0"/>
<path opacity="0.6" d="M7.35038 14.037V33.0458L6.61523 32.6329V13.624" fill="#E8ECF0"/>
<path opacity="0.6" d="M9.55606 15.2757L9.55546 34.2846L8.82031 33.8716L8.82092 14.8628" fill="#E8ECF0"/>
<path opacity="0.6" d="M11.7605 16.514V35.5229L11.0254 35.1099V16.1011" fill="#E8ECF0"/>
<path opacity="0.6" d="M13.9656 17.7533V36.7621L13.2305 36.3492V17.3403" fill="#E8ECF0"/>
<path opacity="0.6" d="M16.1707 18.9911V37.9999L15.4355 37.587V18.5781" fill="#E8ECF0"/>
</g>
<g opacity="0.7">
<path opacity="0.7" d="M27.1965 5.36706L9.55546 15.2756L8.82031 14.8626L26.462 4.9541" fill="#E8ECF0"/>
<path opacity="0.7" d="M29.4022 6.60534L11.7605 16.5139L11.0254 16.1009L28.667 6.19238" fill="#E8ECF0"/>
<path opacity="0.7" d="M31.6073 7.84459L13.9656 17.7531L13.2305 17.3402L30.8721 7.43164" fill="#E8ECF0"/>
<path opacity="0.7" d="M33.8123 9.08239L16.1707 18.9909L15.4355 18.578L33.0772 8.66943" fill="#E8ECF0"/>
<path opacity="0.7" d="M18.3768 0.412954L0.735144 10.3215L0 9.90854L17.6416 0" fill="#E8ECF0"/>
<path opacity="0.7" d="M20.5813 1.65124L2.94022 11.5598L2.20508 11.1468L19.8467 1.23828" fill="#E8ECF0"/>
<path opacity="0.7" d="M22.7869 2.89L5.1453 12.7985L4.41016 12.3856L22.0518 2.47705" fill="#E8ECF0"/>
<path opacity="0.7" d="M24.992 4.12818L7.35038 14.0367L6.61523 13.6238L24.2569 3.71582" fill="#E8ECF0"/>
</g>
</svg>
