<svg width="28" height="27" viewBox="0 0 28 27" fill="none" xmlns="http://www.w3.org/2000/svg">
<path d="M14.4139 26.3298H13.5847C13.5459 26.3166 13.5077 26.3136 13.4689 26.3136C13.0261 26.2938 12.5866 26.2613 12.151 26.206C11.336 26.1082 10.5347 25.9417 9.75467 25.7104C8.41606 25.3127 7.16871 24.7419 6.01263 23.9982C4.94076 23.3067 3.99237 22.4915 3.16647 21.5524C2.19297 20.45 1.43429 19.2335 0.896429 17.8967C0.414871 16.7096 0.126812 15.4804 0.0388087 14.2116C0.0355292 14.1431 0.0245972 14.0746 0 14.0061V12.6658C0.0245972 12.6069 0.0349826 12.5451 0.0388087 12.4831C0.0563002 12.1798 0.0912828 11.8764 0.133918 11.5766C0.344906 10.1287 0.808427 8.75538 1.52174 7.45413C2.01369 6.5572 2.61112 5.72266 3.31351 4.95256C4.00932 4.18954 4.78935 3.50772 5.65352 2.91112C7.06266 1.9391 8.61227 1.23799 10.3057 0.807784C11.1277 0.599278 11.9679 0.462303 12.8178 0.396859C12.9687 0.383669 13.1272 0.393815 13.2781 0.36084H14.6976C14.8064 0.390264 14.919 0.37403 15.0277 0.383669C15.5902 0.429327 16.1488 0.494771 16.7036 0.595727C18.4501 0.915336 20.0696 1.52208 21.5668 2.41851C22.7299 3.11303 23.7559 3.95111 24.6518 4.92619C25.3722 5.70895 25.9833 6.56025 26.4824 7.4795C27.0727 8.56566 27.4941 9.70355 27.7335 10.9003C27.8598 11.5329 27.9549 12.1722 27.9582 12.818C27.9582 12.8606 27.9686 12.9063 27.9724 12.9484V13.718C27.9582 13.7667 27.9582 13.8189 27.9549 13.8712C27.9549 13.995 27.9549 14.1193 27.9445 14.243C27.8811 15.0324 27.7478 15.8117 27.5368 16.5812C27.1328 18.0261 26.4824 19.3664 25.5794 20.6022C24.9082 21.522 24.1249 22.3504 23.2251 23.084C22.3293 23.8146 21.3487 24.431 20.2839 24.9296C19.0573 25.5034 17.7679 25.9017 16.4151 26.1198C15.8952 26.2045 15.3716 26.2598 14.8446 26.2892C14.7058 26.304 14.5582 26.3009 14.4139 26.3298ZM8.76042 20.1335C8.99218 20.1401 9.25233 20.1137 9.51252 20.062C10.2822 19.9052 10.9359 19.5795 11.4382 19.0022C11.7438 18.6501 12.0007 18.2686 12.222 17.8673C12.4822 17.3945 12.6998 16.9019 12.8895 16.4032C13.1212 15.8 13.318 15.1836 13.4694 14.5606C13.5536 14.2116 13.459 13.9929 13.0441 13.8727C12.5172 13.7195 11.9864 13.5825 11.4453 13.4714C10.5494 13.2888 9.64646 13.1716 8.72544 13.2005C8.46525 13.2101 8.2056 13.2365 7.9487 13.2786C7.20369 13.3994 6.57125 13.719 6.05473 14.2242C5.17252 15.0852 4.8216 16.1125 5.03915 17.2834C5.35179 18.9565 6.94733 20.1467 8.76042 20.1335ZM10.2466 8.13899C10.2362 8.38355 10.2854 8.6509 10.3663 8.91824C10.521 9.4271 10.7774 9.89332 11.0796 10.3337C11.7684 11.3351 12.6364 12.1925 13.5782 12.9884C13.6552 13.0539 13.7471 13.1092 13.8455 13.1513C13.9439 13.197 14.0422 13.197 14.1439 13.1579C14.2423 13.1188 14.3303 13.0635 14.4041 12.9915C14.7309 12.6917 15.054 12.3913 15.3634 12.0814C15.799 11.641 16.2139 11.188 16.59 10.7019C16.931 10.2616 17.2366 9.79843 17.4612 9.29621C17.6859 8.79699 17.7952 8.28208 17.7214 7.74075C17.5984 6.84738 17.1874 6.09046 16.4528 5.49689C15.5842 4.79629 14.5724 4.51576 13.4339 4.67202C11.582 4.92668 10.2395 6.43999 10.2466 8.13899ZM19.3754 20.1142C19.4667 20.1112 19.6318 20.1142 19.7969 20.0914C20.907 19.9382 21.7854 19.439 22.4042 18.5654C22.889 17.8774 23.0858 17.1139 22.9945 16.2956C22.9103 15.5291 22.5764 14.8574 22.0106 14.2932C21.5187 13.8042 20.9316 13.4648 20.2221 13.3212C19.8319 13.2431 19.435 13.2101 19.0382 13.204C18.5675 13.1975 18.1002 13.2365 17.6361 13.2954C16.7086 13.4161 15.8017 13.6216 14.9097 13.8823C14.8184 13.9082 14.7342 13.9478 14.6604 14.0031C14.5653 14.0746 14.5129 14.1629 14.5129 14.277C14.5129 14.3749 14.5232 14.4728 14.5478 14.5708C14.6041 14.7666 14.6533 14.9619 14.7096 15.1547C14.9698 16.0354 15.2858 16.8963 15.7181 17.7181C15.9674 18.191 16.256 18.6379 16.6249 19.0392C16.9059 19.3426 17.2328 19.5901 17.623 19.7631C18.1565 20 18.7113 20.1274 19.3754 20.1142Z" fill="#E8ECF0"/>
</svg>
