<svg width="18" height="25" viewBox="0 0 18 25" fill="none" xmlns="http://www.w3.org/2000/svg">
<path d="M12.8512 9.34184H8.26325V0.36084H12.8512C15.3272 0.36084 17.3412 2.37484 17.3412 4.85084C17.3412 7.32684 15.3272 9.34184 12.8512 9.34184ZM9.73425 7.87084H12.8512C14.5162 7.87084 15.8703 6.51584 15.8703 4.85184C15.8703 3.18784 14.5152 1.83284 12.8512 1.83284H9.73425V7.87084ZM9.73425 9.34184H5.14725C2.67125 9.34184 0.65725 7.32784 0.65725 4.85184C0.65725 2.37584 2.67125 0.36084 5.14725 0.36084H9.73525V9.34184H9.73425ZM5.14725 1.83184C3.48225 1.83184 2.12825 3.18684 2.12825 4.85084C2.12825 6.51484 3.48225 7.87084 5.14725 7.87084H8.26425V1.83184H5.14725ZM9.73425 16.8508H5.14725C2.67125 16.8508 0.65725 14.8368 0.65725 12.3608C0.65725 9.88484 2.67125 7.87084 5.14725 7.87084H9.73525V16.8508H9.73425ZM5.14725 9.34184C3.48225 9.34184 2.12825 10.6968 2.12825 12.3608C2.12825 14.0248 3.48325 15.3798 5.14725 15.3798H8.26425V9.34184H5.14725ZM5.17125 24.3608C2.68225 24.3608 0.65625 22.3468 0.65625 19.8708C0.65625 17.3948 2.67025 15.3808 5.14625 15.3808H9.73425V19.8218C9.73425 22.3248 7.68725 24.3608 5.17125 24.3608ZM5.14725 16.8508C4.34689 16.8519 3.57961 17.1703 3.01366 17.7363C2.44772 18.3022 2.12931 19.0695 2.12825 19.8698C2.12825 21.5348 3.49325 22.8888 5.17225 22.8888C6.87725 22.8888 8.26525 21.5128 8.26525 19.8208V16.8508H5.14725ZM12.8512 16.8508H12.7533C10.2773 16.8508 8.26325 14.8368 8.26325 12.3608C8.26325 9.88484 10.2773 7.87084 12.7533 7.87084H12.8512C15.3272 7.87084 17.3412 9.88484 17.3412 12.3608C17.3412 14.8368 15.3272 16.8508 12.8512 16.8508ZM12.7542 9.34184C11.0892 9.34184 9.73525 10.6968 9.73525 12.3608C9.73525 14.0248 11.0902 15.3798 12.7542 15.3798H12.8522C14.5172 15.3798 15.8713 14.0248 15.8713 12.3608C15.8713 10.6968 14.5152 9.34184 12.8512 9.34184H12.7542Z" fill="#E8ECF0"/>
</svg>
