<svg width="32" height="33" viewBox="0 0 32 33" fill="none" xmlns="http://www.w3.org/2000/svg">
<mask id="mask0_664_24" style="mask-type:luminance" maskUnits="userSpaceOnUse" x="0" y="0" width="32" height="33">
<path d="M32 0.36084H0V32.3608H32V0.36084Z" fill="white"/>
</mask>
<g mask="url(#mask0_664_24)">
<path d="M31.3957 14.9365L17.4245 0.965897C16.6203 0.161107 15.3154 0.161107 14.51 0.965897L11.6091 3.86731L15.2892 7.5474C16.1445 7.25862 17.1253 7.45242 17.8068 8.13406C18.4924 8.81997 18.6846 9.80918 18.3883 10.6676L21.9354 14.2142C22.7937 13.9183 23.7833 14.1096 24.469 14.7961C25.4266 15.7535 25.4266 17.3056 24.469 18.2637C23.5106 19.2219 21.9589 19.2219 21.0001 18.2637C20.2799 17.5428 20.1016 16.4843 20.4669 15.5968L17.1586 12.2888V20.9938C17.3919 21.1094 17.6123 21.2634 17.8068 21.4573C18.7645 22.4149 18.7645 23.9668 17.8068 24.9258C16.8491 25.883 15.2963 25.883 14.3393 24.9258C13.3817 23.9668 13.3817 22.4149 14.3393 21.4573C14.576 21.2209 14.8501 21.0421 15.1426 20.9223V12.1369C14.8501 12.0171 14.5767 11.8397 14.3393 11.6017C13.614 10.8766 13.4395 9.81193 13.8115 8.92102L10.1835 5.29255L0.603471 14.8718C-0.201157 15.6772 -0.201157 16.9822 0.603471 17.7869L14.5753 31.7576C15.3797 32.5622 16.6843 32.5622 17.4898 31.7576L31.3957 17.8517C32.2008 17.0468 32.2008 15.7412 31.3957 14.9365Z" fill="#E8ECF0"/>
</g>
</svg>
