<svg width="32" height="31" viewBox="0 0 32 31" fill="none" xmlns="http://www.w3.org/2000/svg">
<path d="M19.4567 24.9607H16.8967H14.3367C14.3367 24.9607 14.3367 23.4247 14.3367 22.4007C10.8167 23.1687 9.85667 20.4807 9.85667 20.4807C9.21667 19.2007 8.5767 18.5607 8.5767 18.5607C7.2967 17.7927 8.5767 17.9207 8.5767 17.9207C9.85667 17.9207 10.4967 19.2007 10.4967 19.2007C11.6487 21.1207 13.6327 20.8007 14.3367 20.4807C14.3367 19.8407 14.5927 18.8807 14.9767 18.5607C12.1607 18.2407 9.85667 16.6407 9.85667 13.4407C9.85667 10.2407 10.4967 9.60074 11.1367 8.96074C11.0087 8.64074 10.4967 7.48874 11.1367 5.76074C11.1367 5.76074 12.4167 5.76074 13.6967 7.68074C14.3367 7.04074 16.2567 7.04074 16.8967 7.04074C17.5367 7.04074 19.4567 7.04074 20.0967 7.68074C21.3767 5.76074 22.6567 5.76074 22.6567 5.76074C23.3607 7.48874 22.7847 8.64074 22.6567 8.96074C23.2967 9.60074 23.9367 10.2407 23.9367 13.4407C23.9367 16.6407 21.6327 18.2407 18.8167 18.5607C19.2007 18.8807 19.4567 19.9687 19.4567 20.4807V24.9607Z" fill="#E8ECF0"/>
<path d="M16.0006 0C7.48863 0 0.640625 6.848 0.640625 15.36C0.640625 23.872 7.48863 30.72 16.0006 30.72C24.5126 30.72 31.3606 23.872 31.3606 15.36C31.3606 6.848 24.5126 0 16.0006 0ZM16.0006 27.52C9.28063 27.52 3.84063 22.08 3.84063 15.36C3.84063 8.63998 9.28063 3.2 16.0006 3.2C22.7206 3.2 28.1606 8.63998 28.1606 15.36C28.1606 22.08 22.7206 27.52 16.0006 27.52Z" fill="#E8ECF0"/>
</svg>
