<svg width="18" height="25" viewBox="0 0 18 25" fill="none" xmlns="http://www.w3.org/2000/svg">
<path d="M8.31844 12.9058H4.91044V10.9968H8.32044V12.9068L8.31844 12.9058ZM11.7284 0.36084V6.36084H17.7284L11.7284 0.36084ZM13.0914 10.9968H9.68144V12.9068H13.0914V10.9968ZM13.0914 14.2698H9.68144V16.1798H13.0914V14.2698ZM17.7274 6.86084V22.7248C17.7274 23.6288 16.9954 24.3608 16.0914 24.3608H1.90944C1.69459 24.3608 1.48186 24.3185 1.28337 24.2363C1.08488 24.1541 0.904528 24.0336 0.752611 23.8817C0.445801 23.5749 0.273438 23.1587 0.273438 22.7248V1.99684C0.273438 1.09284 1.00544 0.36084 1.90944 0.36084H11.2274V6.86084H17.7274ZM14.4544 9.63384H3.54544V17.5428H14.4554V9.63284L14.4544 9.63384ZM8.31844 14.2698H4.91044V16.1798H8.32044V14.2698H8.31844Z" fill="#E8ECF0"/>
</svg>
