<svg width="20" height="27" viewBox="0 0 20 27" fill="none" xmlns="http://www.w3.org/2000/svg">
<path d="M6.49278 20.707C2.37278 21.8537 8.98613 24.227 14.2261 22.0404C13.7176 21.8425 13.2269 21.6017 12.7595 21.3204C10.9403 21.7345 9.06093 21.8158 7.21278 21.5604C5.46611 21.3604 6.49278 20.707 6.49278 20.707Z" fill="#E8ECF0"/>
<path d="M13.5995 18.4681C11.253 18.9785 8.83789 19.0956 6.45285 18.8148C4.70619 18.6281 5.85285 17.7881 5.85285 17.7881C1.31952 19.2814 8.37282 20.9881 14.7062 19.1214C14.2944 18.9862 13.9168 18.7633 13.5995 18.4681Z" fill="#E8ECF0"/>
<path d="M16.0263 5.49365C16.0263 5.49365 6.86632 7.77365 11.2396 12.8136C11.4103 13.0182 11.5374 13.2554 11.6134 13.5107C11.6892 13.766 11.7123 14.0342 11.6811 14.2987C11.6499 14.5632 11.5651 14.8186 11.4319 15.0492C11.2987 15.28 11.1199 15.4811 10.9063 15.6403C10.9063 15.6403 14.1863 13.947 12.6796 11.827C11.173 9.70699 10.1996 8.86699 16.0263 5.49365Z" fill="#E8ECF0"/>
<path d="M18.1739 22.8804C18.1739 22.8804 18.9205 23.4937 17.3339 23.9737C14.3072 24.8937 4.76048 25.1737 2.10714 23.9737C1.14714 23.5604 2.93381 22.9871 3.44048 22.8671C3.74081 22.7895 4.05037 22.7536 4.36048 22.7604C3.29381 22.0137 -2.50619 24.2271 1.41381 24.8671C12.1472 26.6937 20.9339 24.1204 18.1739 22.8804Z" fill="#E8ECF0"/>
<path d="M14.4928 16.3746C14.8848 16.1266 15.2949 15.9082 15.7195 15.7213C15.7195 15.7213 13.7061 16.0813 11.7195 16.2546C9.58307 16.4607 7.43293 16.4831 5.29276 16.3213C2.11943 15.9079 6.98609 14.6946 6.98609 14.6946C5.52156 14.6833 4.076 15.0263 2.77276 15.6946C0.0260931 17.0679 9.55947 17.6679 14.4928 16.3746Z" fill="#E8ECF0"/>
<path d="M15.7063 19.627C15.6771 19.6722 15.6412 19.7128 15.5996 19.747C22.2663 17.987 19.8396 13.547 16.6396 14.667C16.4631 14.732 16.3099 14.848 16.1996 15.0004C16.1996 15.0004 16.3863 14.9337 16.7729 14.8404C18.3996 14.507 20.6663 17.0137 15.7063 19.627Z" fill="#E8ECF0"/>
<path d="M10.0001 14.694C9.01344 12.4673 5.65339 10.5073 10.0001 7.08068C15.4534 2.80068 12.6668 0.0273438 12.6668 0.0273438C13.7868 4.44068 8.66677 5.77401 6.88005 8.52068C5.64005 10.4007 7.50677 12.414 10.0001 14.694Z" fill="#E8ECF0"/>
<path d="M15.88 25.7879C11.8517 26.4775 7.74092 26.5404 3.69336 25.9745C3.69336 25.9745 4.30669 26.4812 7.47999 26.6812C12.2933 26.9879 19.68 26.5212 19.8667 24.2412C19.8667 24.2412 19.52 25.0945 15.88 25.7879Z" fill="#E8ECF0"/>
</svg>
