<svg width="12" height="12" viewBox="0 0 12 12" fill="none" xmlns="http://www.w3.org/2000/svg">
<path d="M9.5 0H2.5C1.1195 0 0 1.1195 0 2.5V9.5C0 10.8805 1.1195 12 2.5 12H9.5C10.881 12 12 10.8805 12 9.5V2.5C12 1.1195 10.881 0 9.5 0ZM4 9.5H2.5V4H4V9.5ZM3.25 3.366C2.767 3.366 2.375 2.971 2.375 2.484C2.375 1.997 2.767 1.602 3.25 1.602C3.733 1.602 4.125 1.997 4.125 2.484C4.125 2.971 3.7335 3.366 3.25 3.366ZM10 9.5H8.5V6.698C8.5 5.014 6.5 5.1415 6.5 6.698V9.5H5V4H6.5V4.8825C7.198 3.5895 10 3.494 10 6.1205V9.5Z" fill="#E8ECF0"/>
</svg>
