<svg width="23" height="24" viewBox="0 0 23 24" fill="none" xmlns="http://www.w3.org/2000/svg">
<path d="M22.6275 5.313C22.2775 2.735 20.0105 0.703 17.3235 0.309C16.8695 0.242 15.1515 0 11.1725 0H11.1425C7.16247 0 6.30747 0.242 5.85447 0.309C3.24147 0.692 0.855469 2.518 0.276469 5.127C-0.000531167 6.412 -0.0305311 7.837 0.0204688 9.143C0.0944689 11.017 0.108469 12.888 0.280469 14.754C0.398469 15.994 0.605469 17.224 0.900469 18.434C1.45047 20.671 3.67747 22.532 5.86047 23.291C8.19647 24.083 10.7095 24.214 13.1165 23.671C13.3815 23.61 13.6435 23.539 13.9025 23.458C14.4875 23.274 15.1725 23.068 15.6765 22.705C15.6832 22.7 15.6888 22.6935 15.6928 22.6861C15.6968 22.6786 15.6991 22.6704 15.6995 22.662V20.853C15.6995 20.8451 15.6977 20.8373 15.6942 20.8302C15.6907 20.8231 15.6857 20.8169 15.6795 20.812C15.6731 20.8069 15.6656 20.8033 15.6576 20.8016C15.6497 20.7999 15.6414 20.8 15.6335 20.802C14.0905 21.1671 12.51 21.35 10.9245 21.347C8.19447 21.347 7.46147 20.063 7.25047 19.529C7.08163 19.0674 6.97438 18.5856 6.93147 18.096C6.93106 18.0877 6.93259 18.0794 6.93596 18.0719C6.93932 18.0643 6.94442 18.0576 6.95084 18.0523C6.95726 18.0471 6.96483 18.0434 6.97292 18.0416C6.98102 18.0398 6.98943 18.04 6.99747 18.042C8.51447 18.405 10.0695 18.588 11.6295 18.588C12.0055 18.588 12.3795 18.588 12.7545 18.578C14.3245 18.534 15.9785 18.454 17.5225 18.156C17.5605 18.148 17.5995 18.141 17.6325 18.132C20.0675 17.668 22.3855 16.212 22.6215 12.528C22.6295 12.383 22.6515 11.008 22.6515 10.858C22.6535 10.346 22.8185 7.228 22.6275 5.313ZM18.8795 14.508H16.3185V8.29C16.3185 6.981 15.7685 6.314 14.6485 6.314C13.4185 6.314 12.8025 7.104 12.8025 8.664V12.067H10.2565V8.663C10.2565 7.103 9.63947 6.313 8.40847 6.313C7.29647 6.313 6.74047 6.981 6.73847 8.29V14.508H4.18147V8.102C4.18147 6.792 4.51847 5.752 5.19247 4.982C5.88847 4.212 6.80047 3.818 7.93247 3.818C9.24347 3.818 10.2345 4.318 10.8945 5.316L11.5325 6.376L12.1705 5.316C12.8305 4.317 13.8205 3.818 15.1305 3.818C16.2605 3.818 17.1735 4.213 17.8705 4.982C18.5455 5.752 18.8825 6.792 18.8825 8.102L18.8795 14.508Z" fill="#E8ECF0"/>
</svg>
