<svg width="24" height="25" viewBox="0 0 24 25" fill="none" xmlns="http://www.w3.org/2000/svg">
<path d="M4.45828 4.56908C5.20428 5.17508 5.48428 5.12908 6.88628 5.03508L20.1013 4.24208C20.3813 4.24208 20.1483 3.96208 20.0553 3.91608L17.8593 2.32908C17.4393 2.00308 16.8783 1.62908 15.8043 1.72208L3.00928 2.65608C2.54328 2.70208 2.44928 2.93608 2.63528 3.12208L4.45828 4.56908ZM5.25128 7.64908V21.5531C5.25128 22.3001 5.62428 22.5801 6.46528 22.5331L20.9883 21.6931C21.8293 21.6471 21.9233 21.1331 21.9233 20.5261V6.71508C21.9233 6.10908 21.6903 5.78208 21.1753 5.82808L5.99828 6.71508C5.43828 6.76208 5.25128 7.04308 5.25128 7.64908ZM19.5883 8.39408C19.6813 8.81408 19.5883 9.23408 19.1683 9.28208L18.4683 9.42208V19.6861C17.8603 20.0131 17.3003 20.2001 16.8333 20.2001C16.0853 20.2001 15.8983 19.9661 15.3383 19.2671L10.7613 12.0811V19.0331L12.2093 19.3611C12.2093 19.3611 12.2093 20.2011 11.0413 20.2011L7.81928 20.3871C7.72628 20.2011 7.81928 19.7341 8.14628 19.6411L8.98628 19.4081V10.2151L7.82128 10.1211C7.72728 9.70108 7.96128 9.09508 8.61428 9.04808L12.0703 8.81508L16.8343 16.0941V9.65408L15.6193 9.51508C15.5263 9.00108 15.8993 8.62808 16.3663 8.58208L19.5883 8.39408ZM1.93528 1.39608L15.2453 0.41608C16.8793 0.27608 17.3003 0.36908 18.3273 1.11608L22.5763 4.10208C23.2763 4.61508 23.5103 4.75508 23.5103 5.31508V21.6931C23.5103 22.7191 23.1373 23.3271 21.8303 23.4191L6.37228 24.3531C5.39228 24.4001 4.92428 24.2601 4.41028 23.6061L1.28128 19.5461C0.721281 18.7991 0.488281 18.2401 0.488281 17.5861V3.02808C0.488281 2.18908 0.862281 1.48808 1.93528 1.39608Z" fill="#E8ECF0"/>
</svg>
