<svg width="20" height="25" viewBox="0 0 20 25" fill="none" xmlns="http://www.w3.org/2000/svg">
<path d="M17.3549 18.8991C17.9991 17.9302 18.6186 16.9452 19.2129 15.9451C19.293 15.8058 19.3298 15.6459 19.3188 15.4856C19.3078 15.3254 19.2493 15.172 19.1509 15.0451C18.6349 14.3601 17.6469 12.9701 17.1089 11.6831C16.5559 10.3621 16.4729 8.30806 16.4689 7.30606C16.4698 6.92596 16.3438 6.55644 16.1109 6.25606L12.9129 2.19206C12.9009 2.37467 12.8755 2.55616 12.8369 2.73506C12.7309 3.23806 12.5299 3.73906 12.3009 4.23506C12.1669 4.52506 12.0109 4.83506 11.8549 5.14906L11.5449 5.77506C11.0289 6.84306 10.5479 8.00206 10.4129 9.36506C10.2889 10.6251 10.4589 12.0951 11.2279 13.8461C11.3559 13.8571 11.4849 13.8711 11.6139 13.8901C12.8458 14.0561 14.002 14.5793 14.9399 15.3951C15.8559 16.1851 16.6839 17.3171 17.3549 18.8951V18.8991ZM6.19891 22.9301C6.27191 22.9421 6.34491 22.9501 6.41891 22.9501C7.19891 22.9741 8.51391 23.0421 9.57891 23.2401C10.4489 23.4001 12.1719 23.8801 13.5889 24.2951C14.6719 24.6111 15.7869 23.7471 15.9439 22.6311C16.0579 21.8171 16.2739 20.8961 16.6689 20.0511L16.6589 20.0561C15.9889 18.1861 15.1369 16.9781 14.2429 16.2071C13.4602 15.5247 12.4941 15.0876 11.4649 14.9501C9.92491 14.7341 8.51291 15.1401 7.62491 15.4001C8.15691 17.6181 7.99291 20.2291 6.19991 22.9311L6.19891 22.9301ZM3.53291 10.2991C3.50991 10.3991 3.47691 10.4961 3.43491 10.5891L0.819908 16.4201C0.688645 16.7128 0.648304 17.0382 0.70411 17.3542C0.759916 17.6701 0.909298 17.962 1.13291 18.1921L5.24891 22.4321C7.35191 19.3311 7.04491 16.4121 6.08491 14.1321C5.35691 12.4021 4.25291 11.0511 3.53491 10.3011L3.53291 10.2991ZM7.31991 14.3711C7.93491 14.1881 8.92591 13.9061 10.0649 13.8371C9.38191 12.1121 9.21691 10.6041 9.34891 9.26006C9.50291 7.70806 10.0489 6.41306 10.5839 5.31006C10.6969 5.07506 10.8069 4.85606 10.9119 4.64606C11.0609 4.34906 11.1999 4.06906 11.3309 3.78606C11.5479 3.31606 11.7099 2.90106 11.7909 2.51606C11.8709 2.13606 11.8709 1.79606 11.7769 1.47306C11.6819 1.14806 11.4799 0.798055 11.0969 0.413055C10.8405 0.346215 10.5714 0.344119 10.314 0.406955C10.0565 0.46979 9.81872 0.59559 9.62191 0.773055L4.67191 5.22506C4.39573 5.47334 4.21439 5.80985 4.15891 6.17706L3.73191 9.00706C4.40391 9.59706 6.05991 11.3231 7.06691 13.7181C7.15691 13.9281 7.24191 14.1481 7.31991 14.3711Z" fill="#E8ECF0"/>
</svg>
