<svg width="24" height="25" viewBox="0 0 24 25" fill="none" xmlns="http://www.w3.org/2000/svg">
<path d="M11.6266 0.368834C11.3916 0.376834 11.1566 0.401034 10.9213 0.433334C10.6947 0.457934 10.468 0.498234 10.2493 0.531134C9.98242 0.563434 9.71522 0.579634 9.44762 0.612334C9.19642 0.644934 8.93722 0.693634 8.68632 0.734334C8.59702 0.750434 8.50762 0.782734 8.41832 0.798734C8.22432 0.839334 8.02172 0.855734 7.82712 0.920734C7.47922 1.02673 7.13052 1.14873 6.79032 1.27803C6.47412 1.40803 6.16622 1.54583 5.86662 1.70803C5.55872 1.87803 5.26682 2.08053 4.97522 2.27573C4.69932 2.46233 4.42442 2.65693 4.15652 2.86783C3.89792 3.07103 3.65452 3.29793 3.41932 3.52523C3.29002 3.65453 3.18432 3.80893 3.06262 3.95493C2.86032 4.19043 2.65792 4.41723 2.46332 4.66083C2.30202 4.86403 2.15532 5.07463 2.00132 5.28583C1.72632 5.65843 1.49152 6.05633 1.27292 6.45403C1.18362 6.61633 1.10292 6.77863 1.02192 6.94053C0.900317 7.18373 0.770616 7.41933 0.657316 7.67093C0.576116 7.84143 0.511316 8.02793 0.462716 8.21443C0.349716 8.61223 0.236116 9.01803 0.130716 9.41523C0.0335164 9.77243 0.00901643 10.1456 0.00131643 10.5107C-0.00698357 10.8352 0.0254164 11.1517 0.0577164 11.4762C0.0660164 11.5575 0.0178164 11.6547 0.114516 11.7194C0.0821164 11.8087 0.106516 11.8579 0.154516 11.8733C0.0985164 11.9626 0.179116 12.0199 0.147016 12.1012C0.138716 12.1173 0.171716 12.1496 0.187116 12.1739C0.187116 12.1985 0.179416 12.2308 0.187116 12.2551C0.195816 12.3281 0.227916 12.4011 0.227916 12.4823C0.227916 12.539 0.276416 12.6041 0.292816 12.661C0.300716 12.685 0.292816 12.7255 0.276516 12.7418C0.227916 12.7985 0.235916 12.8471 0.308816 12.8798C0.349816 12.985 0.333516 13.0336 0.325416 13.0828C0.341416 13.1556 0.317116 13.18 0.325416 13.1963C0.390116 13.3263 0.414516 13.472 0.422216 13.6179C0.422216 13.6505 0.438516 13.6832 0.454816 13.7236C0.462816 13.7236 0.454816 13.8778 0.454816 13.8778C0.494816 13.8538 0.528016 13.8455 0.568316 13.8292C0.592916 13.9345 0.616816 14.0324 0.649216 14.1216C0.689816 14.1863 0.690016 14.2183 0.673916 14.2263C0.706316 14.3723 0.722316 14.5103 0.778616 14.6483C0.778616 14.4943 0.763116 14.3403 0.738616 14.194C0.851816 14.2347 0.949117 14.2752 1.01402 14.2752C1.02232 14.2506 1.03042 14.2185 1.03882 14.2022C0.990216 14.1539 0.949616 14.081 0.900916 14.0323C0.917116 14.097 0.900916 14.1215 0.900916 14.1461C0.868616 14.1295 0.827816 14.1132 0.787416 14.0969C0.819816 14.0569 0.852316 14.0159 0.900916 13.9675C0.900916 13.8942 0.860916 13.8291 0.747016 13.8375C0.795716 13.8213 0.844316 13.7973 0.900916 13.7807C0.990216 13.7324 0.892816 13.6432 0.892816 13.5297C0.900816 13.392 0.820016 13.254 0.795616 13.1077C0.755016 12.8808 0.763216 12.54 0.739016 12.3128C0.690316 12.2721 0.649816 12.3775 0.641816 12.3858C0.666516 12.5804 0.690416 12.7749 0.706416 12.9698C0.658116 12.8075 0.625416 12.629 0.585116 12.4341C0.576816 12.491 0.568916 12.5151 0.568916 12.5479C0.528916 12.5879 0.560916 12.6373 0.585116 12.6939C0.528516 12.6693 0.463516 12.6779 0.463516 12.6779V12.9051C0.382816 12.8238 0.358716 12.7589 0.317816 12.7016C0.301816 12.6369 0.293016 12.5723 0.277716 12.5076C0.293016 12.4667 0.277716 12.4426 0.277716 12.4186C0.268251 12.3537 0.260082 12.2886 0.253216 12.2233C0.261216 12.2153 0.245116 12.0939 0.245116 12.0939C0.309816 12.1019 0.350816 12.1092 0.391116 12.1092C0.310116 12.0045 0.366416 11.9394 0.399316 11.8745C0.415516 11.8419 0.472316 11.8344 0.488616 11.8011C0.553316 11.6794 0.658816 11.5826 0.658816 11.4281C0.658816 11.3551 0.683816 11.2741 0.691416 11.2008C0.707616 11.0628 0.723516 10.925 0.731216 10.7871C0.747816 10.6085 0.731316 10.4298 0.772216 10.2595C0.837516 9.97633 0.918416 9.69203 1.00732 9.40793C1.07202 9.20473 1.14552 9.01093 1.22612 8.80763C1.34772 8.49113 1.46112 8.17463 1.61512 7.87483C1.83372 7.43643 2.08492 7.01443 2.32812 6.58463C2.48212 6.31683 2.64412 6.06523 2.81462 5.80573C2.97632 5.55423 3.13802 5.29463 3.32492 5.05903C3.58442 4.72653 3.86812 4.41803 4.18402 4.14223C4.50822 3.85033 4.81602 3.55023 5.16412 3.28243C5.61682 2.93262 6.09914 2.62291 6.60562 2.35683C7.01912 2.13823 7.44832 1.96703 7.87782 1.80483C8.15342 1.69953 8.45312 1.65083 8.73702 1.56153C9.06092 1.45593 9.38502 1.40783 9.72522 1.39953C9.94382 1.39153 10.1545 1.36683 10.3731 1.34243C10.5734 1.32734 10.7735 1.30854 10.9731 1.28603C10.9572 1.30596 10.9434 1.32759 10.9322 1.35053C10.8436 1.48053 10.7463 1.61053 10.6571 1.74013C10.5841 1.84573 10.5031 1.95923 10.4301 2.06453C10.3002 2.23553 10.1625 2.40573 10.0411 2.58423C9.85492 2.85223 9.68442 3.12793 9.48982 3.39553C9.29582 3.65503 9.08502 3.89873 8.88242 4.14993C8.61512 4.49913 8.36382 4.85593 8.09662 5.20473C7.85342 5.53723 7.59502 5.85423 7.35972 6.18673C7.14912 6.47833 6.96242 6.78713 6.75982 7.08673C6.46022 7.53313 6.16052 7.97113 5.86092 8.41763C5.62576 8.75739 5.38809 9.0954 5.14792 9.43163C5.13162 9.45623 5.10732 9.46353 5.08332 9.47983C5.01862 9.58513 5.01862 9.64213 4.99392 9.69083C4.92932 9.81233 4.86472 9.93423 4.79152 10.0481C4.75082 10.1128 4.69402 10.1693 4.64542 10.2343C4.63742 10.137 4.77462 10.0882 4.70992 9.96633C4.66992 10.0315 4.62892 10.0881 4.58872 10.1531L4.49152 10.3471C4.52332 10.3713 4.57782 10.3879 4.52552 10.4345C4.52012 10.4155 4.49282 10.4027 4.47232 10.3872C4.40401 10.4822 4.3391 10.5794 4.27832 10.6793C4.32692 10.7196 4.35092 10.7037 4.38332 10.6467C4.41252 10.5881 4.45462 10.5424 4.49252 10.4925C4.47908 10.5176 4.46518 10.5423 4.45082 10.5668C4.4859 10.5461 4.5163 10.5184 4.54012 10.4853C4.54012 10.5746 4.49142 10.6474 4.45082 10.7203C4.41842 10.7851 4.33752 10.8341 4.28082 10.8824C4.28882 10.8904 4.34562 10.9151 4.35392 10.9232C4.42692 10.8986 4.45122 10.8584 4.45962 10.8824C4.48422 10.8501 4.50802 10.8258 4.51602 10.8015C4.54802 10.7202 4.59672 10.6555 4.67772 10.6228C4.71032 10.6066 4.73452 10.5823 4.75892 10.5583C5.00212 10.3065 5.25302 10.0633 5.47162 9.79533C5.81212 9.38133 6.12002 8.95183 6.44462 8.53003C6.58192 8.35143 6.74432 8.17303 6.88992 8.00243C6.91392 8.18903 6.89792 8.36733 6.88992 8.53813C6.86532 8.83813 6.84942 9.13833 6.82542 9.44623C6.81712 9.56783 6.82522 9.68943 6.81692 9.81143C6.81692 9.84373 6.79242 9.86813 6.79242 9.90073C6.79242 9.98173 6.81692 10.0711 6.81692 10.1524C6.79232 10.4526 6.75972 10.7443 6.73542 11.0444C6.72712 11.1091 6.75942 11.1744 6.77542 11.2313C6.73542 11.6691 6.82462 12.132 6.75142 12.5945C6.80802 12.5052 6.82442 12.4483 6.82442 12.3917C6.83212 12.343 6.82442 12.2944 6.82442 12.2377V12.1566C6.83212 12.0103 6.86422 11.8565 6.84822 11.7102C6.83202 11.548 6.83182 11.394 6.86442 11.2397C6.88072 11.175 6.85672 11.0937 6.89742 11.0125V11.1341C6.88942 11.5959 6.90572 12.0587 6.84102 12.5211C6.83272 12.5618 6.86542 12.6351 6.77612 12.6267C6.70282 12.7727 6.79212 12.8783 6.71152 12.9593C6.69492 12.9755 6.72702 13.0486 6.73542 13.0973C6.70272 13.1948 6.70272 13.1948 6.75142 13.2029C6.75942 13.3814 6.77602 13.5432 6.78372 13.7138C6.91302 13.4059 6.84842 13.0887 6.90572 12.7722C6.91362 12.9021 6.92202 13.0323 6.91372 13.1696C6.91372 13.3811 6.90542 13.5834 6.89752 13.7943C6.89752 13.835 6.88922 13.8756 6.88132 13.9163C6.85662 14.0302 6.84922 14.1435 6.80862 14.2488C6.77622 14.3301 6.79262 14.4521 6.79262 14.5491V14.8579C6.82492 14.9959 6.78422 15.0687 6.80862 15.1497C6.78392 15.2313 6.77612 15.2558 6.78382 15.2801L6.80862 15.4017C6.97082 15.3855 6.89782 15.5073 6.96252 15.5719C6.91382 15.6372 6.93022 15.6612 6.93022 15.6942C6.93022 15.7672 6.92242 15.8322 6.91422 15.9052C6.91422 16.0917 6.90602 16.2782 6.90602 16.4568C6.90602 16.4814 6.91412 16.5052 6.91412 16.5295C6.91412 16.5461 6.90612 16.7571 6.90612 16.7571C6.92222 16.7811 6.90592 16.8055 6.88122 16.8298C6.87352 16.8298 6.84922 15.7995 6.84922 15.7995H6.72762C6.71162 16.2859 6.75242 16.7239 6.66312 17.1787C6.56582 17.1867 6.53362 17.2027 6.42772 17.2027C6.17652 17.2027 5.92542 17.2026 5.67422 17.2107C5.37432 17.2107 5.08302 17.2187 4.78282 17.2187C4.63752 17.2187 4.48372 17.2354 4.33782 17.2354C4.14312 17.2354 3.94062 17.2106 3.74662 17.2106C3.44642 17.2106 3.15472 17.2352 2.85492 17.2432C2.63632 17.2512 2.41782 17.2512 2.19922 17.2594C2.05292 17.2674 1.90662 17.2751 1.76122 17.2917C1.69662 17.2997 1.63982 17.3237 1.55882 17.3481C1.53422 17.3481 1.47772 17.3401 1.42942 17.3481C1.34782 17.3643 1.27562 17.413 1.19402 17.4296C1.07242 17.4542 1.04002 17.486 1.05602 17.6079V17.6891C1.04812 17.7051 1.23442 17.6643 1.23442 17.6643C1.21782 17.6643 1.20982 17.713 1.18522 17.7536C1.25042 17.729 1.29092 17.7129 1.33162 17.6969C1.45322 17.7539 1.55842 17.7215 1.65532 17.7461C1.97132 17.8268 2.29532 17.8601 2.61912 17.8918C2.83012 17.908 3.03262 17.9164 3.24312 17.9241C3.54282 17.9403 3.84252 17.9567 4.14212 17.9567C4.39332 17.9567 4.63652 17.9322 4.88712 17.9322C5.23512 17.9322 5.58422 17.9482 5.93242 17.9567C6.00542 17.9567 6.08652 17.9487 6.16752 17.9487H6.75862C7.28572 17.9327 7.81222 17.924 8.33902 17.9087C8.63922 17.8997 8.94682 17.884 9.24642 17.8757L10.1701 17.8509C10.5266 17.8429 10.8831 17.8429 11.2317 17.8356C11.4989 17.8356 11.7581 17.8266 12.026 17.8186C12.3252 17.8106 12.6331 17.7864 12.933 17.7703C13.0953 17.7623 13.2575 17.7456 13.4195 17.7295C13.6141 17.7135 13.8166 17.6895 14.0106 17.6812C14.3025 17.6646 14.6023 17.6568 14.8942 17.6404C15.2587 17.6164 15.6234 17.5838 15.9959 17.5755C16.3364 17.5595 16.6847 17.5675 17.0252 17.5595C17.3252 17.5515 17.6248 17.5349 17.9326 17.5269L18.4439 17.5021C18.4439 17.5021 18.7839 17.4941 18.9541 17.4776C19.2457 17.4616 19.5371 17.4292 19.8289 17.4212C20.0149 17.4132 20.2015 17.4214 20.3878 17.4132C20.6874 17.4052 20.9953 17.3884 21.2952 17.3884C21.4082 17.3884 21.5297 17.4052 21.6757 17.4132C21.611 17.4702 21.5704 17.5023 21.5217 17.543C21.5541 17.551 21.5863 17.5677 21.6189 17.5838C21.5703 17.6161 21.5299 17.6239 21.4899 17.6239C21.4732 17.6649 21.4569 17.6809 21.4406 17.7622H21.5863C21.5297 17.7622 21.4813 17.8352 21.4246 17.8838C21.36 17.8672 21.3027 17.8838 21.2704 17.9731C21.3271 18.0051 21.3192 18.0295 21.3112 18.0624C21.2139 18.0944 21.1411 18.127 21.182 18.2322C21.149 18.2483 21.1086 18.2646 21.068 18.2889C21.0279 18.3536 20.9547 18.3699 20.9707 18.4591C21.0034 18.4671 21.0354 18.4841 21.0601 18.4914C21.0194 18.5076 20.9791 18.5318 20.9385 18.5478C20.7928 18.6371 20.8575 18.6778 20.8899 18.7184C20.8653 18.7346 20.8415 18.7508 20.8172 18.7592C20.8332 18.8322 20.8572 18.8485 20.8654 18.8485C20.8366 18.8706 20.8083 18.8932 20.7804 18.9163C20.783 18.9073 20.7863 18.8984 20.7904 18.8899H20.7579C20.7579 18.9048 20.7609 18.9176 20.7631 18.9303C20.7557 18.9363 20.7515 18.9393 20.7438 18.9456C20.7192 19.0186 20.6868 19.0508 20.6545 19.0994C20.6222 19.1481 20.6058 19.2134 20.5652 19.2618C20.3952 19.4488 20.2735 19.6682 20.0549 19.8138C19.9736 19.8708 19.9009 19.9437 19.8279 20.0169C19.682 20.1546 19.5525 20.3089 19.3986 20.4389C19.1963 20.6091 18.9862 20.7629 18.767 20.9172C18.5 21.1037 18.2328 21.2906 17.9652 21.4692C17.8193 21.5662 17.6572 21.6391 17.5032 21.7284C17.3492 21.8177 17.2033 21.8989 17.0494 21.9879C16.9521 22.0526 16.8629 22.1418 16.7576 22.191C16.4903 22.305 16.2066 22.402 15.9314 22.5076C15.6635 22.6216 15.4694 22.7183 15.2669 22.7913C15.0806 22.856 14.886 22.9052 14.6917 22.9452C14.6271 22.9618 14.5537 22.9453 14.4807 22.9542C14.3428 22.9788 14.2053 23.0116 14.0673 23.0276C13.7108 23.0762 13.3544 23.1086 12.9983 23.1573C12.7873 23.1819 12.5844 23.222 12.3738 23.2466C12.2282 23.2546 12.0744 23.2386 11.9285 23.2386C11.8232 23.2386 11.71 23.2634 11.6044 23.2476C11.4344 23.223 11.264 23.1831 11.0938 23.1504C11.0538 23.1424 10.9967 23.1256 10.9647 23.1424C10.9 23.175 10.8425 23.1264 10.7775 23.1424C10.7375 23.1504 10.6969 23.1179 10.6562 23.1179C10.6236 23.1099 10.5831 23.1269 10.5424 23.1179C10.4532 23.0939 10.3724 23.0613 10.2744 23.0693C10.1781 23.0773 10.0804 23.0288 9.97582 23.0048C9.82952 22.9722 9.69262 22.9403 9.54602 22.9073C9.48972 22.8911 9.44132 22.8666 9.38432 22.8343C9.17342 22.8343 9.03562 22.8263 8.90602 22.7773C8.79272 22.7373 8.68752 22.6804 8.56602 22.6967C8.53402 22.7047 8.50952 22.6887 8.47662 22.6887C8.45202 22.6561 8.42822 22.5912 8.40422 22.5912C8.24222 22.5992 8.14502 22.462 8.00712 22.421C7.93442 22.3964 7.87762 22.3153 7.80462 22.291C7.62602 22.218 7.48092 22.0642 7.27842 22.0399C7.21372 22.0319 7.14882 21.9989 7.07562 21.9749C7.10022 22.0069 7.11582 22.0316 7.14042 22.0558C6.90552 21.9418 6.68672 21.8125 6.46782 21.6906C6.43582 21.6826 6.41162 21.6506 6.38732 21.6339L6.16842 21.4866C6.04682 21.5112 5.99832 21.4622 5.96542 21.4462C5.74672 21.2923 5.49582 21.1946 5.28492 21.0243C5.19562 20.951 5.09092 20.9023 5.02632 20.8131C4.91232 20.6751 4.77462 20.5781 4.62072 20.4971C4.49942 20.4324 4.38612 20.3591 4.27282 20.2861C4.21582 20.2455 4.15902 20.1968 4.15902 20.1075C4.15902 20.0505 4.13512 19.9937 4.06222 20.0263C4.02982 19.9777 3.99752 19.921 3.95692 19.9047C3.85962 19.8647 3.79472 19.7907 3.72182 19.726C3.64882 19.6613 3.59262 19.5722 3.50332 19.5398C3.34112 19.4751 3.24362 19.3372 3.14662 19.2236C2.91942 18.9557 2.71692 18.6633 2.50632 18.3801C2.49002 18.3555 2.45762 18.3391 2.43332 18.3149C2.46562 18.4042 2.50632 18.4771 2.54672 18.5581C2.46602 18.5258 2.40952 18.4687 2.36092 18.4121C2.35262 18.4201 2.91942 19.3533 2.91942 19.3533C2.96862 19.4263 3.00872 19.4995 3.05732 19.5724C2.93572 19.5804 2.85472 19.5154 2.81412 19.4424C2.74142 19.313 2.66042 19.2321 2.49842 19.2487C2.48242 19.1914 2.46602 19.1264 2.45842 19.07C2.42015 19.0706 2.38192 19.0676 2.34422 19.061C2.45822 19.2396 2.55522 19.3937 2.66052 19.5722C2.61952 19.5476 2.59592 19.5316 2.57902 19.5236C2.72462 19.6776 2.83002 19.8724 3.01622 19.97C3.05692 20.1563 3.26752 20.2456 3.31622 20.4242C3.27622 20.4162 3.24272 20.4078 3.20202 20.3994C3.13742 20.3184 3.06442 20.2376 2.99172 20.1484C3.00589 20.2014 3.03062 20.251 3.06442 20.2941C3.16172 20.4157 3.25112 20.5373 3.36442 20.6429C3.40502 20.6842 3.46162 20.7004 3.46162 20.7734C3.52622 20.8057 3.55102 20.8134 3.57502 20.8134C3.59162 20.8628 3.56752 20.9357 3.66442 20.9194C3.72902 21.041 3.79352 21.0409 3.88282 21.0006C3.98842 21.1062 4.04522 21.1146 4.11782 21.0498C4.11782 21.0898 4.12602 21.1306 4.12602 21.1633C4.15832 21.1471 4.15082 21.1228 4.15082 21.0821C4.19082 21.1144 4.21532 21.1306 4.23132 21.1466C4.31232 21.2605 4.38542 21.3657 4.49872 21.455C4.65272 21.585 4.79032 21.723 4.93562 21.8446C5.21952 22.0802 5.53622 22.2748 5.85182 22.4531C6.24102 22.6723 6.61382 22.9076 7.01062 23.1181C7.48842 23.3701 7.99892 23.5408 8.52542 23.6624C8.72002 23.7031 8.90642 23.7432 9.10122 23.7914C9.27052 23.8408 9.44092 23.9139 9.61122 23.9542C9.87042 24.0111 10.1377 24.0598 10.3969 24.1081C10.4533 24.1161 10.5109 24.1249 10.5756 24.1329C10.6479 24.1491 10.737 24.1165 10.7533 24.1409C10.7939 24.2056 10.8263 24.1729 10.8749 24.1649C10.9316 24.1488 10.9964 24.1488 11.0611 24.1488C11.288 24.1568 11.5065 24.2052 11.7334 24.1892C11.7826 24.1892 11.8554 24.1482 11.8961 24.2292C11.9688 24.197 12.0095 24.1969 12.0418 24.1892C12.0505 24.2619 12.0416 24.2621 12.0261 24.27C12.0095 24.278 11.9854 24.286 11.9531 24.3104C12.2447 24.3671 12.5201 24.3751 12.7627 24.3104C13.1845 24.3427 13.5491 24.2942 13.8977 24.1724C13.93 24.2131 13.9544 24.2698 14.003 24.1887C14.019 24.1641 14.0594 24.1559 14.092 24.1479C14.1647 24.1317 14.254 24.0991 14.3186 24.1231C14.3919 24.1477 14.4165 24.083 14.4728 24.083C14.5704 24.083 14.6594 24.075 14.7487 24.0585C14.7973 24.0505 14.8459 24.0262 14.9025 24.0099C14.847 23.9824 14.7859 23.9683 14.7239 23.9688C14.8149 23.9238 14.9069 23.8808 14.9997 23.8396C14.9835 23.8636 14.9672 23.8957 14.9352 23.8957H15.048C15.0233 23.8957 14.9911 23.9687 14.9508 24.0174C15.2421 23.9444 15.5093 23.8795 15.7688 23.8142C15.6796 23.6442 15.8659 23.7012 15.9309 23.6036C15.8499 23.6282 15.7689 23.6521 15.6877 23.6681C15.9632 23.5305 16.2467 23.4089 16.522 23.2873C16.482 23.3359 16.4326 23.3605 16.3603 23.4014C16.4089 23.4094 16.4413 23.4094 16.4656 23.4167C16.5949 23.4576 16.5629 23.3361 16.6032 23.2628C16.7572 23.2628 16.8217 23.2388 16.8947 23.2142C16.9757 23.1896 17.0567 23.1654 17.1379 23.133C17.2672 23.0763 17.3888 23.0037 17.5184 22.939C17.5431 22.93 17.5833 22.939 17.6159 22.939C17.7052 22.8817 17.737 22.8332 17.7613 22.8412C17.8753 22.8574 17.9553 22.8168 17.9879 22.7121C17.9975 22.7051 18.0023 22.702 18.0111 22.6955C18.0436 22.767 18.1086 22.7749 18.2139 22.7025C18.1489 22.7025 18.084 22.6945 18.0274 22.6864C18.0214 22.6864 18.0193 22.6904 18.0159 22.6924C18.0564 22.6624 18.0937 22.6338 18.1259 22.6141C18.3038 22.5168 18.4735 22.4196 18.6521 22.3223C18.7167 22.3223 18.7495 22.3224 18.7655 22.3143C18.8715 22.265 18.9685 22.2089 19.0655 22.1519C19.0409 22.1439 18.9846 22.1119 18.9846 22.1119C19.0369 22.1022 19.0884 22.0885 19.1386 22.071C19.3325 21.8432 19.6004 21.6891 19.8026 21.5105C19.892 21.5025 19.892 21.4783 19.892 21.4623C19.924 21.4216 19.9567 21.373 19.9967 21.3403C20.1753 21.1781 20.3692 21.0402 20.5314 20.8699C20.7664 20.6341 20.9931 20.3904 21.2037 20.1389C21.3977 19.9117 21.5931 19.6849 21.7551 19.4333C21.982 19.0845 22.1762 18.7273 22.3788 18.3619C22.5248 18.1027 22.6545 17.8432 22.8008 17.5837C22.816 17.5591 22.8488 17.5266 22.8731 17.5266C23.0917 17.502 23.3111 17.4866 23.5216 17.4621C23.5703 17.4541 23.6269 17.4218 23.6755 17.3971C23.6509 17.3565 23.635 17.3081 23.6109 17.2674C23.5783 17.2181 23.5298 17.1781 23.4972 17.1288C23.4652 17.0888 23.4406 17.0396 23.4163 16.9912C23.3917 16.9512 23.3676 16.9183 23.3433 16.8771C23.294 16.7878 23.2457 16.6986 23.2047 16.6019C23.1967 16.5773 23.1801 16.5372 23.1887 16.5126C23.3346 16.1964 23.3914 15.8559 23.529 15.5394C23.6667 15.2149 23.7076 14.8497 23.7723 14.5009C23.8289 14.1684 23.8613 13.8357 23.9013 13.5032C23.926 13.268 23.9586 13.0407 23.9663 12.8055C24.0155 12.4323 23.9987 12.0832 23.9907 11.7341C23.9828 11.4261 23.966 11.1097 23.9507 10.8012L23.95 10.8002C23.9339 10.4838 23.9258 10.1674 23.8932 9.85123C23.8366 9.42113 23.7799 8.98283 23.6826 8.56103C23.6096 8.21223 23.4886 7.87953 23.3666 7.54703C23.2127 7.15753 23.0588 6.76003 22.8642 6.38703C22.5483 5.78653 22.1352 5.25093 21.7543 4.69113C21.5025 4.33403 21.1785 4.04203 20.9353 3.67683C20.7977 3.46593 20.595 3.28783 20.3924 3.12583C20.0682 2.86563 19.7281 2.63023 19.3879 2.40333C19.1286 2.22473 18.8695 2.05443 18.5936 1.90023C18.375 1.77803 18.1401 1.68073 17.9132 1.57513C17.6539 1.45353 17.4026 1.30713 17.1111 1.25043C17.0378 1.23513 16.9731 1.21043 16.9001 1.18593C16.7139 1.12123 16.5357 1.04823 16.3491 0.991234C16.0659 0.901934 15.7903 0.796834 15.4984 0.723534C15.2158 0.650534 14.924 0.602134 14.6321 0.561234C14.3082 0.513534 13.9762 0.496734 13.6517 0.465034C13.4411 0.440434 13.2306 0.416334 13.028 0.408334C12.7201 0.392234 12.4043 0.392234 12.0965 0.384234C11.9425 0.376234 11.7805 0.360434 11.6266 0.368834ZM12.3207 1.30883C12.4263 1.32543 12.524 1.34163 12.621 1.34983L13.01 1.37443C13.3016 1.39813 13.5932 1.41463 13.8845 1.45463C14.1277 1.48753 14.3711 1.53623 14.6223 1.57663C15.1574 1.66583 15.6837 1.81193 16.1942 1.98213C16.4941 2.07943 16.7853 2.20943 17.0778 2.33113C17.7336 2.59893 18.3577 2.92333 18.9734 3.26383C19.1674 3.36943 19.2814 3.53963 19.4266 3.69383C19.6376 3.91313 19.8484 4.13213 20.0506 4.35903C20.2853 4.62693 20.5039 4.90283 20.7312 5.17873C20.9334 5.42193 21.1439 5.66523 21.3471 5.90913C21.4117 5.98213 21.4609 6.07133 21.5169 6.15233C21.6462 6.34723 21.7923 6.53383 21.9056 6.74443C21.9863 6.89893 22.0351 7.07763 22.0918 7.24783C22.1724 7.49943 22.2538 7.74263 22.335 7.99413C22.3913 8.18073 22.4394 8.37603 22.48 8.56993C22.5127 8.70023 22.505 8.83783 22.545 8.96713C22.5942 9.13833 22.545 9.32443 22.5942 9.49533C22.6019 9.51153 22.6097 9.53573 22.6183 9.55203C22.6507 9.58403 22.6748 9.61683 22.626 9.66543C22.6183 9.67343 22.6183 9.70543 22.626 9.72993C22.6426 9.71393 22.6508 9.69753 22.6671 9.67323C22.6671 9.68943 22.6747 9.69823 22.6747 9.70583C22.6747 9.73783 22.6664 9.77033 22.6747 9.80263C22.6747 9.81873 22.6907 9.84273 22.6988 9.85933C22.7151 9.84273 22.7311 9.83473 22.7634 9.81013C22.8364 10.0863 22.8449 10.3619 22.8449 10.6458C22.8449 10.9136 22.893 11.1815 22.78 11.441C22.804 11.3517 22.7475 11.2703 22.772 11.1893L22.7752 11.1913C22.7669 11.1913 22.7187 11.1419 22.7107 11.1339C22.7024 11.1585 22.7107 11.1824 22.6944 11.2151C22.6861 11.1911 22.6296 11.1994 22.6296 11.1753C22.6213 11.2886 22.678 11.4021 22.6696 11.5157C22.6943 11.4995 22.7914 11.4911 22.8157 11.4671C22.824 11.4751 22.8403 11.4832 22.8483 11.4832C22.6861 11.6052 22.7268 11.7265 22.7998 11.865C22.8158 11.897 22.8644 11.9617 22.8158 12.0267C22.7998 12.0429 22.8241 12.0914 22.832 12.1324H22.8559V12.1481L22.7829 12.1726C22.7668 12.148 22.6697 12.1001 22.6697 12.0588V12.4732C22.7507 12.4978 22.7508 12.6109 22.7831 12.6678C22.7973 12.6481 22.8084 12.6264 22.8161 12.6033L22.8241 12.6113C22.8159 12.66 22.8079 12.7084 22.7916 12.7574C22.7756 12.8301 22.7592 12.8951 22.7515 12.968C22.7515 12.976 22.7671 12.9926 22.7671 13.0003C22.6785 13.2035 22.7271 13.4301 22.6947 13.6407C22.6701 13.7947 22.6947 13.958 22.6785 14.12C22.6619 14.258 22.629 14.4036 22.597 14.5416C22.5887 14.5662 22.5725 14.5742 22.5324 14.5905C22.5485 14.4932 22.5405 14.428 22.5244 14.3388C22.5156 14.3388 22.4104 14.2821 22.4021 14.2821C22.4021 14.396 22.4668 14.5502 22.4914 14.6795C22.4668 14.6715 22.3697 14.6146 22.362 14.6146C22.3454 14.7119 22.3452 14.8419 22.3372 14.9472C22.3289 15.0285 22.2565 15.1012 22.2482 15.1904C22.2482 15.2397 22.3048 15.2718 22.2968 15.3531H22.3613C22.3613 15.1911 22.4347 15.0451 22.4347 14.8745H22.4585C22.4668 14.8907 22.4913 14.9073 22.4833 14.9153C22.4671 15.0046 22.4339 15.1018 22.4425 15.1911C22.4425 15.2398 22.4827 15.2883 22.4673 15.345C22.4507 15.3943 22.4427 15.4426 22.4344 15.5155C22.4261 15.4749 22.4182 15.459 22.4182 15.4347C22.4102 15.4347 22.3372 15.4267 22.3288 15.4267C22.3209 15.4754 22.3858 15.524 22.3774 15.5647C22.3695 15.5727 22.3614 15.5727 22.3451 15.5808L22.0778 15.1912C21.8649 14.8818 21.6542 14.5708 21.4456 14.2584C21.391 14.181 21.342 14.0998 21.2992 14.0152C21.0482 13.5847 20.7727 13.171 20.4648 12.7736C20.2302 12.4736 20.043 12.1485 19.8245 11.8329C19.6225 11.5327 19.4199 11.2404 19.2174 10.9399C19.1444 10.8429 19.0554 10.7537 18.9904 10.6481C18.7802 10.3155 18.5934 9.97473 18.3834 9.64213C18.2048 9.36613 18.0107 9.09823 17.8242 8.83063C17.7595 8.74133 17.6948 8.64363 17.6295 8.54633C17.6216 8.53103 17.6135 8.51493 17.6135 8.49053C17.5972 8.31203 17.581 8.13333 17.573 7.96303C17.573 7.80073 17.5893 7.63863 17.5893 7.46803V7.32123C17.5893 7.28053 17.5969 7.24823 17.5969 7.20743C17.6046 7.19943 17.6129 7.18313 17.6209 7.17513C17.3861 7.17513 17.1429 7.16613 16.9079 7.17513C16.7539 7.18313 16.6731 7.11783 16.5679 7.00423C16.2599 6.65543 16.0329 6.25803 15.7657 5.88493C15.5145 5.52773 15.2552 5.17863 14.9959 4.82983C14.785 4.54593 14.574 4.27023 14.3637 3.98633C14.1285 3.66183 13.902 3.33733 13.6588 3.01273C13.3669 2.62363 13.067 2.23373 12.7674 1.84453C12.6289 1.66593 12.4747 1.49573 12.3207 1.30883ZM11.5689 1.73463C11.5862 1.73763 11.6026 1.75213 11.6188 1.77243C11.8374 2.04833 12.0558 2.33223 12.2744 2.60813C12.437 2.81133 12.5991 3.00533 12.7531 3.21653C12.9394 3.47633 13.1175 3.73593 13.3041 3.99553C13.5147 4.29553 13.7253 4.59593 13.9278 4.90383C14.2358 5.35853 14.5273 5.81283 14.8352 6.26703C15.0622 6.59953 15.2889 6.92433 15.5075 7.25693H15.0938C14.7132 7.24893 14.324 7.21683 13.9435 7.23283C13.425 7.25743 12.8985 7.31413 12.3801 7.35483C11.7237 7.41163 11.0594 7.41923 10.4036 7.41923C10.1681 7.41923 9.93332 7.45223 9.69862 7.46843C9.41482 7.48453 9.13912 7.50083 8.85562 7.50853C8.52302 7.52513 8.19982 7.53313 7.86732 7.54153C7.68072 7.54953 7.48652 7.54153 7.28402 7.54153V7.53953C7.54262 7.18233 7.81052 6.82543 8.06972 6.46053C8.15072 6.35433 8.21542 6.24073 8.29632 6.13553C8.32102 6.10283 8.35352 6.08653 8.39382 6.05393L8.38572 6.03863C8.41802 5.99763 8.45022 5.96473 8.46662 5.93263C8.50782 5.86803 8.53242 5.79473 8.56462 5.72173C8.57262 5.70643 8.59702 5.69013 8.59702 5.69013C8.71092 5.74683 8.71082 5.62543 8.75092 5.58453C8.82357 5.50282 8.8938 5.41898 8.96152 5.33313C9.01012 5.26843 9.05882 5.21143 9.09952 5.13853C9.10732 5.11393 9.08302 5.07393 9.07462 5.04103H9.05082C9.07542 5.02503 9.09952 5.00093 9.12382 4.98433C9.13182 4.98433 9.13182 4.98413 9.13992 4.97633C9.18653 4.90467 9.23511 4.83431 9.28562 4.76533C9.38262 4.63603 9.48792 4.50593 9.60122 4.39263C9.58522 4.43263 9.56902 4.47343 9.55272 4.50583C9.56102 4.50583 9.56102 4.51383 9.56892 4.51383C9.66622 4.38383 9.77162 4.26223 9.86892 4.13203C9.86062 4.12403 9.85252 4.11603 9.84412 4.11603C9.80412 4.15663 9.77162 4.19733 9.73092 4.23803C9.72302 4.23003 9.71472 4.22173 9.70622 4.22173C9.78772 4.11613 9.86872 4.01073 9.94942 3.88913C9.96562 3.91373 9.98192 3.94583 10.0139 4.01083C10.0469 3.92983 10.0793 3.87313 10.1033 3.81613C10.0793 3.84073 10.0471 3.86483 10.0227 3.88953L9.99802 3.86483L10.144 3.64643C10.298 3.42713 10.4518 3.19983 10.6057 2.98063C10.6627 2.89963 10.7351 2.83493 10.7844 2.75363C10.9384 2.44583 11.1817 2.20183 11.3677 1.91803C11.4083 1.86133 11.4647 1.81273 11.5134 1.76403C11.5334 1.73953 11.5517 1.73163 11.5689 1.73463ZM9.28432 4.89533C9.23592 4.92763 9.19502 4.95203 9.14672 4.98463C9.13842 4.99263 9.12992 4.99303 9.13782 4.99303C9.14612 5.03303 9.14612 5.06603 9.15412 5.12243C9.21112 5.04083 9.25122 4.97613 9.30052 4.91143L9.28432 4.89533ZM16.1221 8.23703C16.1948 8.23703 16.2354 8.26173 16.2761 8.32633C16.3487 8.44793 16.4217 8.56953 16.5026 8.69153C16.5109 8.70753 16.5274 8.73143 16.5274 8.75603C16.5274 8.93453 16.5272 9.12123 16.5351 9.29983C16.5428 9.48643 16.5601 9.66493 16.5674 9.85153C16.5674 10.0381 16.551 10.2327 16.5593 10.4273C16.5676 10.7035 16.5755 10.9875 16.5755 11.2708L16.5768 11.2714V11.3448C16.5689 11.3448 16.5608 11.3528 16.5446 11.3528C16.5122 11.2389 16.4799 11.1172 16.4392 11.0036C16.3583 10.7681 16.2689 10.5325 16.123 10.3219C15.9604 10.0949 15.815 9.85993 15.6525 9.62443C15.6125 9.56753 15.5551 9.51893 15.5065 9.47063C15.3362 9.28363 15.1662 9.08883 14.9475 8.95123C14.6254 8.74918 14.2865 8.57527 13.9345 8.43143C13.8373 8.39143 13.7482 8.34203 13.6512 8.28543H13.8452L15.2306 8.26083C15.5305 8.25283 15.8225 8.25313 16.1221 8.23703ZM10.0381 8.44863C10.0968 8.44763 10.1555 8.44943 10.2161 8.45663C10.0868 8.52193 9.95672 8.58693 9.84342 8.66793C9.69742 8.76523 9.56032 8.89493 9.41402 9.00043C9.26782 9.10573 9.13822 9.23583 9.01692 9.37383C8.86292 9.56003 8.69272 9.72213 8.53042 9.90073C8.41652 10.0306 8.28742 10.1524 8.19042 10.2903C8.05272 10.4689 7.93102 10.6626 7.80142 10.8658C7.84202 10.0948 7.89082 9.33273 7.85812 8.55383C8.23892 8.53763 8.60392 8.51373 8.97712 8.49743C9.26812 8.48113 9.56812 8.47253 9.85942 8.45653C9.92022 8.45253 9.97942 8.44863 10.0381 8.44863ZM12.0707 8.86333C12.313 8.87133 12.5561 8.87133 12.7991 8.88743C12.9043 8.89543 13.0017 8.91963 13.0991 8.95193C13.2203 8.99293 13.3499 9.04943 13.4635 9.10593C13.6012 9.17973 13.7307 9.26043 13.8607 9.34973C14.0956 9.50373 14.3144 9.67413 14.5493 9.81203C14.7762 9.95003 14.9543 10.1365 15.1003 10.3477C15.2789 10.599 15.481 10.8263 15.562 11.1345L15.6833 11.6702C15.7079 11.7675 15.7647 11.8647 15.7403 11.978C15.6993 12.1812 15.667 12.3923 15.6347 12.5952C15.6187 12.6768 15.6026 12.7584 15.6109 12.8384C15.6262 13.0909 15.5292 13.3093 15.4322 13.5364C15.3996 13.6094 15.3509 13.6828 15.3106 13.7637C15.3185 13.7717 15.3671 13.7963 15.3751 13.7963L15.4481 13.6506C15.4565 13.6506 15.4565 13.6504 15.4644 13.6586C15.4238 13.7719 15.3916 13.8939 15.3506 14.0075C15.2539 14.259 15.1566 14.5184 15.035 14.7616C14.9703 14.8996 14.8565 15.0132 14.7758 15.1434C14.6951 15.2567 14.6302 15.3785 14.5492 15.4841C14.4762 15.5734 14.4036 15.6627 14.306 15.7274C14.0874 15.8896 13.8604 16.052 13.6255 16.1819C13.4799 16.2712 13.3095 16.3196 13.1475 16.3602L13.1497 16.3592C12.8902 16.4239 12.6233 16.4974 12.3555 16.5298C12.1289 16.5624 11.8936 16.5543 11.6587 16.5543C11.4475 16.5543 11.2449 16.5463 11.0343 16.5298C10.7993 16.5058 10.5644 16.4812 10.3375 16.3756C10.1427 16.2863 9.94042 16.2055 9.74652 16.1079C9.55122 16.0106 9.35702 15.8971 9.21072 15.7186C9.10602 15.5883 8.95982 15.4833 8.83022 15.3697C8.85389 15.4674 8.91503 15.5518 9.00042 15.6047C8.95982 15.6535 8.90302 15.6294 8.82172 15.4991C8.79772 15.5153 8.77352 15.5237 8.75722 15.5317C8.78182 15.4747 8.80592 15.418 8.83022 15.3697C8.79792 15.305 8.75722 15.2315 8.72492 15.1662C8.6598 15.06 8.59761 14.9519 8.53842 14.8422C8.52222 14.8175 8.52222 14.7934 8.50612 14.7692C8.46552 14.7204 8.42502 14.6717 8.39232 14.6231C8.32772 14.5261 8.27122 14.4207 8.19022 14.3231C8.19022 14.3477 8.19832 14.3716 8.19832 14.4043C8.19002 14.4043 8.18212 14.4123 8.18212 14.4123L8.01162 13.9986C8.00362 13.9986 8.00362 13.9984 7.99562 14.0066L8.14092 14.5423C8.13302 14.5423 8.12512 14.5503 8.11652 14.5503C8.09282 14.5183 8.06852 14.4857 8.05192 14.4456C8.03592 14.3803 7.98692 14.3802 7.94692 14.4046C7.92232 14.4207 7.90602 14.4777 7.91432 14.502C7.97132 14.64 8.03632 14.7778 8.10122 14.9158C8.11643 14.9632 8.13529 15.0093 8.15762 15.0537C8.16592 15.0699 8.19022 15.0857 8.19022 15.1101C8.22282 15.1748 8.24732 15.2396 8.28772 15.2969C8.36072 15.3942 8.44172 15.4914 8.51462 15.5887C8.58702 15.686 8.65152 15.792 8.71642 15.889C8.72442 15.9052 8.74882 15.9052 8.75652 15.9135C8.79752 16.0351 8.93512 16.1242 9.03242 16.0755C9.05702 16.2621 9.25922 16.327 9.34012 16.5056C9.26068 16.4732 9.1824 16.4379 9.10542 16.4C9.09712 16.408 9.09712 16.416 9.08882 16.4323C9.18612 16.4809 9.28352 16.5295 9.37212 16.5862C9.45372 16.6355 9.53462 16.6841 9.60752 16.7404C9.70482 16.8297 9.81852 16.8789 9.95552 16.9109C9.94802 16.8862 9.94012 16.878 9.94012 16.878C10.1667 16.9836 10.4019 17.0971 10.5798 17.1858C9.73712 17.2024 8.83782 17.2187 7.90592 17.235C7.90592 17.081 7.89782 16.9347 7.89782 16.7805C7.89782 16.7158 7.91402 16.6589 7.90552 16.594C7.88092 16.2214 7.88082 15.8476 7.83252 15.4825C7.78422 15.0933 7.78412 14.7118 7.79252 14.3217C7.80022 14.1115 7.78412 13.8926 7.77582 13.6814C7.77582 13.3975 7.77602 13.1212 7.78472 12.8379C7.78472 12.7972 7.80092 12.7647 7.81732 12.7238H7.84212C7.84982 12.7404 7.84202 12.7647 7.85742 12.773C7.88202 12.7976 7.92262 12.8377 7.93892 12.8297C7.98722 12.7971 8.06022 12.7652 8.07652 12.7159C8.11652 12.6189 8.13322 12.5132 8.13322 12.4159C8.13322 12.3432 8.16572 12.2947 8.19772 12.2457C8.21432 12.2211 8.22252 12.1972 8.23882 12.1649C8.20652 12.1403 8.17412 12.1242 8.13352 12.0919C8.16622 12.0026 8.15802 11.897 8.27952 11.8487C8.29562 11.8407 8.29582 11.7993 8.30442 11.7753C8.31212 11.7097 8.31942 11.6368 8.32822 11.5722C8.34422 11.5968 8.35292 11.6044 8.36822 11.6205C8.37692 11.6044 8.38492 11.5957 8.38492 11.5957C8.38492 11.5637 8.37692 11.4987 8.38492 11.4987C8.48222 11.4826 8.44152 11.3772 8.49022 11.3286C8.49792 11.3196 8.48212 11.2956 8.48212 11.2794C8.48212 11.2633 8.48192 11.2393 8.48982 11.2393C8.60282 11.2147 8.58682 11.0931 8.65972 11.0362C8.68432 11.02 8.69222 10.996 8.72462 10.955C8.78922 11.0683 8.67582 11.1254 8.66782 11.2063C8.80522 11.1253 8.84572 10.9307 8.76472 10.8738C8.79827 10.8481 8.8283 10.8181 8.85402 10.7845C8.94332 10.6872 9.04012 10.5981 9.12142 10.5008C9.17842 10.4281 9.21082 10.3387 9.26742 10.2658C9.30012 10.2251 9.36462 10.1928 9.41322 10.1682C9.55922 10.0875 9.69662 9.99843 9.78592 9.86043C9.80212 9.84423 9.82642 9.82783 9.85042 9.81153C9.87512 9.79533 9.92362 9.79553 9.93162 9.77113C9.93992 9.75513 9.91562 9.71423 9.89932 9.68993C9.93132 9.67373 9.96412 9.64143 10.0288 9.60873C10.0041 9.65743 9.99652 9.68983 9.98022 9.72253L10.02 9.76263C10.0932 9.70603 10.2065 9.64143 10.2795 9.59283C10.2795 9.58483 10.2391 9.55273 10.2391 9.55273C10.1907 9.57733 10.1177 9.61753 10.0451 9.65023C10.0604 9.62563 10.0604 9.60923 10.0695 9.60123C10.1825 9.52823 10.2958 9.45543 10.4175 9.39823C10.7007 9.26883 10.9845 9.13893 11.2681 9.01733C11.3167 8.99273 11.3822 9.00933 11.4386 9.00933C11.4626 9.00933 11.4786 9.00923 11.5031 9.00133C11.6324 8.96063 11.7625 8.92013 11.8921 8.88753C11.9502 8.87163 12.0104 8.86335 12.0707 8.86333ZM11.7554 8.98403C11.6664 9.02493 11.5936 9.05703 11.5206 9.08963C11.5206 9.09763 11.48 9.16263 11.4877 9.16263C11.5283 9.15463 11.6174 9.08973 11.666 9.08143C11.6903 9.08143 11.7229 9.08943 11.7475 9.09803C11.7475 9.06543 11.7476 9.03263 11.7554 8.98403ZM17.6134 10.3651C17.6944 10.4704 17.7834 10.5682 17.8401 10.6729C18.0267 11.014 18.2695 11.3063 18.4964 11.6145C18.691 11.8824 18.8692 12.1743 19.0478 12.4502C19.2664 12.7827 19.4768 13.115 19.6956 13.4476C19.8576 13.6994 20.0284 13.951 20.1977 14.1946C20.3517 14.4131 20.5141 14.6243 20.6761 14.8356C20.8134 15.0221 20.9594 15.2088 21.097 15.3954C21.2592 15.6226 21.4212 15.8494 21.5834 16.0687C21.6641 16.182 21.7534 16.2954 21.842 16.4091C21.8913 16.4738 21.9639 16.5233 22.0125 16.5633C22.0013 16.5636 21.9903 16.5608 21.9805 16.5553C22.0052 16.5876 22.0207 16.612 22.0373 16.6283C22.1266 16.677 22.1345 16.7256 22.0859 16.7988L22.0865 16.7968C22.0786 16.813 22.0619 16.8294 22.0542 16.846C22.0459 16.8294 22.0459 16.8052 22.038 16.7723C21.9894 16.9025 21.884 16.8375 21.811 16.8375C21.3739 16.8455 20.928 16.8455 20.4903 16.8455C20.0691 16.8455 19.6399 16.8456 19.2187 16.8535C19.0807 16.8535 18.9347 16.8859 18.7967 16.8943C18.4649 16.9104 18.1326 16.9189 17.8004 16.9266C17.7757 16.9266 17.752 16.8865 17.7114 16.8539C17.7034 16.8701 17.6864 16.8946 17.6624 16.9269C17.6537 16.9109 17.638 16.8948 17.6217 16.8705C17.6151 16.8926 17.6068 16.9142 17.5969 16.935H17.5734C17.5572 16.8217 17.5248 16.7163 17.5248 16.6024C17.5248 16.3592 17.5494 16.1163 17.5571 15.8724C17.5654 15.7591 17.5571 15.6536 17.5571 15.5477C17.5898 15.5723 17.6141 15.5889 17.6465 15.6126C17.6609 15.5848 17.6771 15.558 17.695 15.5324C17.695 15.5324 17.6788 15.5244 17.6624 15.5079C17.6777 15.4999 17.6947 15.4833 17.6947 15.4753C17.7026 15.4507 17.7192 15.4263 17.7192 15.4103C17.7192 15.3533 17.7027 15.3048 17.6947 15.2565C17.7026 15.2565 17.7106 15.2566 17.7192 15.2485L17.7674 15.4917H17.7922C17.7596 15.4354 17.8649 15.3862 17.776 15.3215C17.768 15.3135 17.7837 15.2646 17.7837 15.2403C17.759 15.192 17.7437 15.1433 17.7191 15.0783C17.7271 15.0703 17.7515 15.0621 17.7758 15.0538C17.7435 15.0377 17.719 15.0217 17.6947 15.0137C17.7757 14.9404 17.7757 14.8997 17.7027 14.8187C17.7194 14.8107 17.7354 14.8107 17.7354 14.8034C17.7354 14.7301 17.7354 14.6573 17.7194 14.5849C17.7031 14.503 17.7441 14.4063 17.6222 14.357C17.6295 14.3801 17.6404 14.4019 17.6544 14.4215C17.6544 14.4215 17.6299 14.4295 17.6059 14.4463C17.5006 14.3487 17.5656 14.2183 17.5409 14.0727C17.5976 14.0889 17.6382 14.1053 17.6786 14.1219C17.6623 14.0646 17.622 13.9999 17.5977 13.9269H17.5647V13.3912C17.5647 13.3992 17.6215 13.3992 17.6541 13.4078C17.6541 13.3998 17.6617 13.3914 17.6617 13.383C17.6371 13.3507 17.605 13.3183 17.5727 13.2777L17.5889 13.2615C17.5243 13.1808 17.5567 13.0677 17.5567 13.043V12.475C17.638 12.5564 17.5166 12.6615 17.6379 12.7101V12.6293H17.6294C17.6214 12.5077 17.6214 12.3861 17.6134 12.2642H17.5973C17.589 12.2808 17.589 12.2886 17.5807 12.305H17.5647L17.6134 10.3651ZM3.96182 11.0286C3.86522 11.1422 3.77592 11.256 3.68672 11.369H3.68572C3.70172 11.377 3.72582 11.4342 3.74252 11.4505C3.83152 11.3289 3.95312 11.1748 4.04252 11.0609C4.03412 11.0529 3.96952 11.0366 3.96182 11.0286ZM3.41902 11.4264C3.37032 11.4991 3.24922 11.6293 3.20052 11.7022C3.20852 11.7102 3.29752 11.6698 3.30552 11.6784C3.35412 11.6054 3.40272 11.524 3.45132 11.4508C3.43542 11.4428 3.42732 11.4343 3.41902 11.4264ZM3.58852 11.5477C3.54022 11.581 3.49182 11.6217 3.44312 11.654C3.45932 11.67 3.45932 11.6787 3.45932 11.6948C3.39472 11.6868 3.37002 11.7193 3.33772 11.8079C3.32972 11.8325 3.28902 11.8404 3.24842 11.8724C3.24042 11.889 3.23252 11.9299 3.21612 11.9702L3.22422 11.9782C3.21247 11.989 3.19875 11.9974 3.18382 12.003C3.13512 12.0513 3.07822 12.0923 3.02962 12.1406C3.02162 12.1652 3.01362 12.1893 3.01362 12.2136C3.07052 12.1569 3.16752 12.0513 3.24052 11.9863L3.24892 11.9943C3.28132 11.9456 3.30562 11.8973 3.33832 11.8486C3.34602 11.8566 3.34602 11.8645 3.35432 11.8731C3.32972 11.9378 3.30562 12.0106 3.28132 12.0756C3.26432 12.0836 3.23992 12.1002 3.23992 12.0918C3.20762 12.1164 3.18322 12.1483 3.15052 12.1726L3.00512 12.2696C2.92412 12.3426 2.84312 12.4074 2.75372 12.4806C2.69712 12.5699 2.64072 12.6509 2.57542 12.7565C2.67302 12.7319 2.69722 12.7731 2.68922 12.8543C2.80252 12.8703 2.81072 12.7813 2.84312 12.7163C2.85112 12.6998 2.85932 12.667 2.87542 12.659C2.94842 12.5943 3.02942 12.5377 3.11042 12.4728C3.12672 12.4566 3.12672 12.4234 3.12672 12.3994C3.12672 12.3914 3.08572 12.3914 3.06142 12.3832C3.13442 12.3019 3.23982 12.1647 3.31252 12.0754C3.35322 12.0508 3.39372 12.0179 3.39372 11.9936C3.38712 11.9191 3.42572 11.89 3.47652 11.8635C3.43872 12.0388 3.33252 12.1887 3.22452 12.2195C3.25682 12.2357 3.28922 12.2523 3.31382 12.2443C3.33782 12.2363 3.35392 12.1949 3.37022 12.1709L3.58872 11.8547L3.66202 11.7327L3.62972 11.7001L3.62942 11.7011C3.59712 11.7578 3.56462 11.8065 3.53232 11.8635L3.50462 11.8495C3.50552 11.849 3.50642 11.8485 3.50732 11.8475C3.47472 11.8229 3.46632 11.7991 3.46632 11.7911L3.46662 11.7901C3.47522 11.7655 3.49132 11.7414 3.50762 11.7171C3.52372 11.7171 3.54782 11.7091 3.54782 11.7091C3.58082 11.6524 3.58072 11.6117 3.61302 11.5631C3.60502 11.5551 3.59692 11.556 3.58852 11.5477ZM17.6386 12.6991V12.7071C17.6469 12.7151 17.6476 12.7151 17.6546 12.7077C17.6467 12.7077 17.6467 12.7073 17.6386 12.6991ZM17.6386 12.7153C17.6149 12.7233 17.5903 12.7233 17.5577 12.7315C17.5974 12.7466 17.6368 12.7553 17.6386 12.7706V12.7153ZM16.4472 14.1926C16.431 15.1175 16.5365 16.0259 16.6578 16.9428C15.7425 16.9751 14.8104 17.0073 13.8708 17.04C14.235 16.886 14.5351 16.6671 14.8101 16.4153C14.8511 16.3747 14.8915 16.3345 14.9402 16.3015C15.2807 16.0909 15.5314 15.7988 15.7586 15.4743C16.0178 15.1012 16.188 14.6791 16.3989 14.2816C16.4132 14.251 16.4294 14.2213 16.4472 14.1926ZM17.5815 14.266C17.5945 14.2922 17.6054 14.3193 17.6141 14.3472C17.6541 14.3392 17.6708 14.3392 17.6868 14.331C17.6868 14.323 17.6867 14.3151 17.6949 14.3065C17.6709 14.2985 17.6385 14.2823 17.5815 14.266ZM17.605 14.3397C17.604 14.3397 17.6019 14.3417 17.5978 14.3457L17.5981 14.3467C17.6058 14.3467 17.6141 14.3547 17.6141 14.3547L17.6061 14.3457C17.6061 14.3417 17.606 14.3397 17.605 14.3397ZM1.07002 14.3713C1.05392 14.3713 1.00502 14.3959 0.997016 14.4039C1.02942 14.4849 1.07002 14.5743 1.10242 14.6556C1.11032 14.6476 1.15892 14.6233 1.16692 14.6233C1.13442 14.5423 1.10222 14.453 1.07002 14.3713ZM0.842516 14.7042C0.818516 14.7449 0.794116 14.785 0.802516 14.817C0.802516 14.8413 0.842716 14.8654 0.867316 14.89C0.867516 14.882 0.875116 14.8741 0.883316 14.8665C0.867316 14.8096 0.859116 14.7609 0.842516 14.7042ZM22.4996 14.7122C22.4996 14.7283 22.5076 14.752 22.4996 14.7686V14.7122ZM1.26382 14.8906C1.25582 14.8906 1.19912 14.9149 1.19112 14.9232C1.25572 15.0608 1.32042 15.2072 1.38512 15.3451C1.39342 15.3451 1.45842 15.3124 1.45842 15.3124C1.39322 15.1739 1.35312 15.0199 1.26382 14.8906ZM1.10212 15.215C1.10212 15.247 1.06132 15.239 1.06132 15.2714C1.01332 15.2714 0.972716 15.2634 0.932216 15.2634C0.924216 15.2714 0.956516 15.3203 0.964816 15.3286H1.13472C1.13472 15.2876 1.12692 15.2555 1.12692 15.2148L1.10212 15.215ZM8.55512 15.5312C8.64452 15.6692 8.73412 15.7991 8.83112 15.9284L8.82332 15.9364C8.80632 15.9284 8.78192 15.9203 8.76592 15.9041L8.57162 15.6116C8.55562 15.5876 8.54642 15.5636 8.55512 15.5312ZM17.5981 15.9695C17.5902 16.0668 17.5816 16.1401 17.5816 16.213C17.5816 16.2292 17.598 16.2613 17.6064 16.2613C17.6224 16.2703 17.6546 16.2533 17.6709 16.246C17.6789 16.238 17.6869 16.2217 17.6869 16.2134C17.6626 16.1968 17.6389 16.1889 17.6143 16.172C17.7682 16.091 17.6141 16.0505 17.5981 15.9695ZM3.48452 20.5612C3.57292 20.6588 3.66222 20.7562 3.75122 20.8618C3.70252 20.8372 3.64582 20.8211 3.62182 20.7884C3.56512 20.7237 3.51672 20.6506 3.46002 20.5859L3.48452 20.5612ZM3.82452 20.8455C3.84922 20.8861 3.86512 20.9348 3.88912 20.9835C3.77582 20.9755 3.71882 20.9265 3.75122 20.8618C3.77582 20.8538 3.80062 20.8537 3.82452 20.8455ZM19.2594 22.0877C19.1941 22.103 19.1454 22.1118 19.1054 22.1278C19.0889 22.1604 19.0725 22.1845 19.0562 22.2168C19.0645 22.2168 19.0726 22.2248 19.081 22.233C19.1297 22.1843 19.186 22.1441 19.2594 22.0877ZM18.8449 22.3137C18.7557 22.3707 18.6587 22.4273 18.5694 22.4839C18.5774 22.4919 18.5774 22.5007 18.586 22.5087C18.6993 22.4844 18.7886 22.4273 18.8778 22.3627C18.8699 22.3465 18.8532 22.329 18.8449 22.3137ZM14.8763 23.8562C14.5037 23.9615 14.3819 23.9774 14.3413 23.9207C14.5277 23.8961 14.6984 23.8801 14.8763 23.8562ZM14.3246 23.9289C14.3329 23.945 14.3329 23.9611 14.3408 23.9771C14.2922 23.9771 14.2598 23.9939 14.2192 24.0016C14.1062 24.0262 13.9843 24.0424 13.871 24.0587C13.8303 24.0667 13.7817 24.1075 13.7657 24.0342C13.7495 24.0422 13.7331 24.0422 13.7171 24.0508C13.7571 24.1721 13.8549 24.0745 13.9359 24.1232C13.7573 24.1478 13.588 24.1641 13.4175 24.1881V24.172C13.4667 24.164 13.523 24.1556 13.5714 24.1472V24.1231C13.4907 24.1151 13.4097 24.1069 13.3281 24.1069C13.3044 24.1069 13.2716 24.1397 13.2473 24.1477C13.2149 24.1557 13.1826 24.1639 13.142 24.1639C13.0043 24.1719 12.867 24.1719 12.737 24.18C12.7287 24.18 12.7124 24.172 12.7044 24.172V24.1472C13.2472 24.0745 13.7818 24.0019 14.3246 23.9289ZM12.6314 24.1392V24.163C12.4812 24.1871 12.3298 24.2034 12.1779 24.2116V24.1878C12.3319 24.1718 12.4775 24.1552 12.6314 24.1392Z" fill="#E8ECF0"/>
</svg>
