<svg width="22" height="24" viewBox="0 0 22 24" fill="none" xmlns="http://www.w3.org/2000/svg">
<path d="M10.714 24H10.707C7.126 23.976 4.373 22.795 2.523 20.491C0.878 18.44 0.028 15.586 0 12.01V11.993C0.03 8.414 0.879 5.563 2.525 3.511C4.373 1.205 7.128 0.024 10.708 0H10.722C13.468 0.02 15.765 0.725 17.548 2.098C19.225 3.388 20.406 5.228 21.057 7.565L19.017 8.134C17.913 4.174 15.119 2.15 10.713 2.119C7.803 2.141 5.603 3.055 4.173 4.836C2.835 6.504 2.144 8.914 2.117 12C2.144 15.086 2.835 17.496 4.174 19.164C5.604 20.947 7.805 21.862 10.714 21.881C13.337 21.861 15.072 21.25 16.514 19.836C18.161 18.223 18.132 16.243 17.604 15.038C17.294 14.328 16.731 13.738 15.97 13.288C15.778 14.64 15.348 15.734 14.686 16.56C13.8 17.662 12.546 18.264 10.956 18.35C9.754 18.415 8.595 18.132 7.697 17.549C6.634 16.86 6.012 15.809 5.945 14.585C5.88 13.395 6.353 12.3 7.275 11.503C8.155 10.743 9.394 10.296 10.858 10.212C11.8668 10.149 12.8795 10.1966 13.878 10.354C13.752 9.612 13.503 9.022 13.128 8.597C12.615 8.011 11.82 7.714 10.769 7.707H10.74C9.896 7.707 8.748 7.939 8.019 9.027L6.262 7.847C7.242 6.393 8.83 5.591 10.74 5.591H10.784C13.978 5.611 15.881 7.566 16.071 10.979C16.179 11.025 16.287 11.073 16.392 11.121C17.882 11.821 18.972 12.882 19.546 14.191C20.343 16.011 20.417 18.981 17.998 21.349C16.148 23.159 13.904 23.977 10.721 23.999L10.714 24ZM11.717 12.31C11.475 12.31 11.23 12.317 10.978 12.331C9.142 12.434 7.998 13.277 8.062 14.474C8.129 15.73 9.514 16.313 10.846 16.241C12.07 16.176 13.664 15.698 13.932 12.531C13.2036 12.3791 12.4611 12.305 11.717 12.31Z" fill="#E8ECF0"/>
</svg>
