<svg width="24" height="25" viewBox="0 0 24 25" fill="none" xmlns="http://www.w3.org/2000/svg">
<path d="M21.6533 0.36084H2.34667C1.72429 0.36084 1.12741 0.608077 0.687323 1.04816C0.247237 1.48825 0 2.08513 0 2.70751V22.0142C0 22.6365 0.247237 23.2334 0.687323 23.6735C1.12741 24.1136 1.72429 24.3608 2.34667 24.3608H21.6533C21.9615 24.3608 22.2667 24.3001 22.5514 24.1822C22.8361 24.0643 23.0948 23.8914 23.3127 23.6735C23.5306 23.4556 23.7034 23.1969 23.8214 22.9122C23.9393 22.6275 24 22.3223 24 22.0142V2.70751C24 2.39934 23.9393 2.09419 23.8214 1.80948C23.7034 1.52477 23.5306 1.26607 23.3127 1.04816C23.0948 0.830254 22.8361 0.6574 22.5514 0.539469C22.2667 0.421538 21.9615 0.36084 21.6533 0.36084ZM13.92 13.6942H10.92V22.2808H8.53333V13.6942H5.53333V11.7475H13.92V13.6942ZM21.6533 20.7342C21.4603 21.1446 21.1493 21.4881 20.76 21.7208C20.3504 21.9729 19.8988 22.1491 19.4267 22.2408C18.9003 22.3495 18.3641 22.4032 17.8267 22.4008C17.2767 22.4004 16.7279 22.3513 16.1867 22.2542C15.7266 22.16 15.2791 22.0123 14.8533 21.8142V19.5342L14.7733 19.4542H14.8533V19.5475C15.2544 19.8604 15.7051 20.1038 16.1867 20.2675C16.6676 20.4506 17.1788 20.5411 17.6933 20.5342C17.9622 20.5389 18.2307 20.512 18.4933 20.4542C18.6906 20.408 18.8795 20.3315 19.0533 20.2275C19.1894 20.1445 19.3037 20.0303 19.3867 19.8942C19.4688 19.7392 19.5049 19.564 19.4907 19.3892C19.4765 19.2144 19.4127 19.0472 19.3067 18.9075C19.1813 18.7318 19.0228 18.5823 18.84 18.4675C18.6181 18.3114 18.3814 18.1775 18.1333 18.0675L17.24 17.6942C16.5328 17.4029 15.9063 16.9456 15.4133 16.3608C15.0008 15.8636 14.7829 15.2334 14.8 14.5875C14.7845 14.0968 14.8946 13.6103 15.12 13.1742C15.3351 12.794 15.6365 12.4697 16 12.2275C16.405 11.9581 16.8574 11.768 17.3333 11.6675C17.8536 11.5478 18.3861 11.4896 18.92 11.4942C19.4061 11.4874 19.8921 11.5186 20.3733 11.5875C20.7737 11.6501 21.1668 11.7528 21.5467 11.8942V14.0942C21.3712 13.9691 21.1836 13.8619 20.9867 13.7742C20.7747 13.6829 20.5563 13.6072 20.3333 13.5475C20.1196 13.485 19.9011 13.4404 19.68 13.4142C19.476 13.3949 19.2707 13.3949 19.0667 13.4142C18.8154 13.41 18.5646 13.4369 18.32 13.4942C18.1193 13.5363 17.9261 13.6082 17.7467 13.7075C17.6067 13.79 17.4879 13.9042 17.4 14.0408C17.3202 14.1736 17.2787 14.3259 17.28 14.4808C17.2768 14.6462 17.3232 14.8088 17.4133 14.9475C17.5229 15.0989 17.6583 15.2298 17.8133 15.3342C18.0013 15.4838 18.2074 15.6093 18.4267 15.7075L19.2667 16.0808C19.6529 16.2405 20.0272 16.4277 20.3867 16.6408C20.7028 16.8138 20.9905 17.0342 21.24 17.2942C21.4844 17.531 21.6754 17.8174 21.8 18.1342C21.9279 18.4982 21.991 18.8817 21.9867 19.2675C21.9771 19.7655 21.8636 20.256 21.6533 20.7075V20.7342Z" fill="#E8ECF0"/>
</svg>
