<svg width="76" height="75" viewBox="0 0 76 75" fill="none" xmlns="http://www.w3.org/2000/svg">
<path d="M34.9918 74.9702C34.9918 74.9434 36.0385 71.4586 36.0894 71.3188C36.1046 71.2865 35.4136 70.7272 34.5548 70.0819L33 68.8988L34.9258 68.8827L36.8465 68.8719L37.4257 66.936C37.7458 65.8712 38.0202 65 38.0355 65C38.0507 65 38.3302 65.8712 38.6503 66.936L39.2295 68.8719H41.1299C42.263 68.8719 43.015 68.8935 42.9998 68.9203C42.9794 68.9472 42.2935 69.485 41.4703 70.1088C40.6472 70.738 39.9714 71.2596 39.9714 71.2758C39.9714 71.2919 40.2102 72.0824 40.4998 73.0343C40.7895 73.9808 41.0435 74.8197 41.0638 74.8896C41.0943 74.9971 41.0842 75.0133 41.0079 74.9918C40.9521 74.9756 40.2661 74.4647 39.4734 73.8571L38.0405 72.7439L36.5772 73.8732C35.2662 74.8842 34.9918 75.0778 34.9918 74.9702Z" fill="#E8ECF0"/>
<path d="M18.3613 70.2674C18.4956 69.861 18.781 69.0107 18.9936 68.3797C19.2062 67.7487 19.3684 67.2139 19.3572 67.1979C19.3461 67.1818 18.5963 66.6524 17.6843 66.0321C16.778 65.4064 16.0226 64.8717 16.0002 64.8449C15.9835 64.8182 16.8227 64.7968 18.0872 64.7968H20.2077L20.8455 62.8984C21.1924 61.8556 21.4945 61 21.5113 61C21.5281 61 21.7015 61.4759 21.8974 62.0588C22.0932 62.6364 22.3785 63.492 22.5352 63.9572L22.8205 64.7968H24.9131C26.0936 64.7968 27 64.8182 27 64.8449C27 64.8717 26.2559 65.4011 25.3495 66.0214C24.4431 66.6471 23.6934 67.1711 23.6766 67.1979C23.6598 67.2193 23.9228 68.0535 24.2585 69.0535C24.5997 70.0481 24.8683 70.8984 24.8571 70.9358C24.8515 70.9733 24.113 70.492 23.201 69.8503C22.2946 69.2193 21.5337 68.7005 21.5169 68.7005C21.4945 68.7005 20.7392 69.2193 19.8328 69.8503C18.9264 70.4813 18.1711 71 18.1543 71C18.1319 71 18.2271 70.6684 18.3613 70.2674Z" fill="#E8ECF0"/>
<path d="M51.2494 70.5882C51.3222 70.3583 51.6075 69.508 51.8817 68.7005C52.1558 67.893 52.3684 67.2139 52.3572 67.1979C52.3461 67.1818 51.5963 66.6524 50.6843 66.0321C49.778 65.4064 49.0226 64.8717 49.0002 64.8449C48.9835 64.8182 49.8227 64.7968 51.0872 64.7968H53.2077L53.8399 62.8984C54.1924 61.8556 54.4945 61 54.5113 61C54.5337 61 54.6904 61.4385 54.8694 61.9786C55.0484 62.5134 55.3338 63.369 55.5072 63.877L55.8205 64.7968H57.9075C59.0656 64.7968 60 64.8182 60 64.8449C60 64.8717 59.2503 65.4011 58.3383 66.0267C57.4207 66.6524 56.6598 67.1711 56.6486 67.1818C56.6374 67.1925 56.9116 68.0321 57.2529 69.0481C57.5997 70.0695 57.8739 70.9251 57.8627 70.9519C57.8515 70.9786 57.1018 70.4813 56.1954 69.8503C55.289 69.2193 54.5113 68.7112 54.4721 68.7273C54.433 68.7433 53.6721 69.2567 52.7881 69.877C51.8985 70.492 51.1599 71 51.1431 71C51.1263 71 51.1767 70.8128 51.2494 70.5882Z" fill="#E8ECF0"/>
<path d="M6.13997 58.9768C6.13997 58.9608 6.41789 58.1272 6.75139 57.128C7.09045 56.1287 7.36281 55.2898 7.36281 55.2631C7.36281 55.2364 6.60687 54.686 5.68418 54.0448L4 52.8799L6.0955 52.8639L8.18545 52.8532L8.30217 52.5166C8.36331 52.3349 8.64123 51.5013 8.91915 50.6624C9.52501 48.835 9.46943 48.9846 9.50834 49.0166C9.52501 49.0327 9.81961 49.8983 10.1642 50.9349L10.7979 52.8265L12.8989 52.8532L15 52.8799L13.4159 53.97C12.5488 54.5738 11.7873 55.1028 11.7206 55.1509C11.6038 55.231 11.6038 55.2364 12.2319 57.1012C12.5821 58.1325 12.8656 58.9768 12.8656 58.9875C12.8711 59.0569 12.5654 58.8539 11.3037 57.9669C10.4977 57.4005 9.75846 56.8875 9.66397 56.818L9.49166 56.7005L7.8853 57.8279C6.34007 58.918 6.13997 59.0462 6.13997 58.9768Z" fill="#E8ECF0"/>
<path d="M63.1455 58.9643C63.1455 58.9375 63.429 58.086 63.7681 57.0685L64.3962 55.2209L62.6953 54.0427L61 52.8646L63.0955 52.8485L65.191 52.8378L65.5245 51.831C65.7079 51.2794 65.9914 50.4279 66.1582 49.9352C66.3194 49.4372 66.4694 49.0248 66.4861 49.0034C66.5195 48.9713 66.575 49.1212 67.3365 51.4026L67.8146 52.8378L69.9101 52.8485L72 52.8646L70.4214 53.9571C69.5488 54.5622 68.7873 55.0924 68.7206 55.1352C68.6094 55.2209 68.6094 55.2263 69.2375 57.0953C69.5821 58.1288 69.8656 58.9803 69.8656 58.991C69.8656 59.0499 69.5432 58.8357 68.1314 57.8396C67.2643 57.2291 66.5306 56.7311 66.5028 56.7311C66.4694 56.7311 65.7357 57.2291 64.8686 57.8396C63.3067 58.9428 63.1344 59.0499 63.1455 58.9643Z" fill="#E8ECF0"/>
<path d="M1.92796 41.9567C1.92796 41.9374 2.18163 41.1818 2.48605 40.277C2.79554 39.377 3.04414 38.631 3.04414 38.6214C3.04414 38.6118 2.35921 38.1353 1.52207 37.5674C0.684932 36.9995 0 36.523 0 36.5037C0 36.4797 0.852359 36.4652 1.89244 36.4652H3.78488L4.36834 34.7326C4.68798 33.7797 4.95687 33 4.9721 33C4.98732 33 5.26129 33.7797 5.58092 34.7326L6.16438 36.4652L8.08219 36.4749L10 36.4893L8.48808 37.5193C7.65601 38.0872 6.96093 38.5636 6.94064 38.5829C6.91527 38.5973 7.1588 39.3722 7.47844 40.3059C7.793 41.2396 8.03146 42 8.00609 42C7.97565 42 7.28564 41.5332 6.46372 40.9652L4.97717 39.9305L3.49061 40.9652C2.67377 41.5332 1.98884 42 1.96854 42C1.94318 42 1.92796 41.9807 1.92796 41.9567Z" fill="#E8ECF0"/>
<path d="M67.9696 41.9205C68.243 41.1515 69.1089 38.5707 69.0987 38.561C69.0937 38.5562 68.3949 38.0804 67.5443 37.5037L66 36.4512L67.9241 36.4367L69.8481 36.4271L70.4253 34.6969C70.7443 33.7453 71.0228 32.9811 71.043 33.0004C71.0684 33.0292 71.9899 35.7302 72.1772 36.3214L72.2076 36.4271H74.1063C75.1494 36.4271 76 36.4415 76 36.4656C76 36.4848 75.3165 36.9654 74.481 37.5325C73.6456 38.0997 72.962 38.5755 72.962 38.5851C72.962 38.5995 73.2152 39.354 73.5241 40.2624C73.8278 41.1708 74.0759 41.9301 74.0658 41.9542C74.0557 41.9734 73.3722 41.5216 72.5418 40.9449L71.0278 39.8971L69.6051 40.8824C68.8203 41.4255 68.1418 41.9013 68.0962 41.9349C67.9899 42.0263 67.9342 42.0214 67.9696 41.9205Z" fill="#E8ECF0"/>
<path d="M6.12651 25.8738C6.14884 25.8043 6.42788 24.9757 6.74598 24.0348C7.06409 23.0886 7.32639 22.2867 7.32639 22.26C7.32639 22.2279 6.58414 21.6933 5.68005 21.0679C4.77038 20.4478 4.01697 19.9132 4.00022 19.8918C3.98348 19.8651 4.9099 19.8437 6.06512 19.8437H8.15235L8.32535 19.3518C8.41464 19.0792 8.69368 18.2399 8.94482 17.4915C9.19596 16.7431 9.40803 16.0962 9.42477 16.0534C9.43593 16.0107 9.46384 15.9893 9.475 16.0053C9.49174 16.0214 9.78752 16.882 10.1391 17.9245L10.7697 19.8169L12.8849 19.8437L15 19.8704L13.6048 20.8327C12.8402 21.3566 12.0701 21.8911 11.8971 22.0088L11.5845 22.2279L12.2152 24.0936C12.9407 26.2373 12.8625 25.9914 12.8012 25.9914C12.7677 25.9914 9.85449 23.9921 9.53081 23.7408C9.49174 23.7141 8.82762 24.1471 7.82866 24.8421C6.92457 25.4729 6.16558 25.9914 6.13767 25.9914C6.10977 25.9914 6.10977 25.938 6.12651 25.8738Z" fill="#E8ECF0"/>
<path d="M63.0943 25.9885C63.0943 25.9671 63.3679 25.1233 63.7085 24.1246C64.0435 23.1205 64.3227 22.2767 64.3227 22.2446C64.3227 22.2179 63.5801 21.6838 62.6755 21.0643C61.771 20.4395 61.0172 19.9107 61.0005 19.884C60.9781 19.852 61.7319 19.8306 63.0608 19.8306H65.1546L65.6069 18.4847C66.3272 16.3431 66.4556 15.9746 66.4779 16.0013C66.4947 16.0173 66.7906 16.8772 67.1368 17.9133L67.7677 19.8039L69.8838 19.8306L72 19.8573L71.8046 19.9962C71.6985 20.0763 70.928 20.605 70.096 21.1765L68.5829 22.2126L69.2138 24.0765C69.5656 25.1073 69.8392 25.9618 69.8336 25.9885C69.828 26.0098 69.1301 25.5452 68.287 24.9524C67.4439 24.3649 66.6901 23.8362 66.6119 23.7828L66.4667 23.6866L65.0206 24.7014C63.2227 25.9564 63.0943 26.0419 63.0943 25.9885Z" fill="#E8ECF0"/>
<path d="M18.1218 13.9678C18.1218 13.9516 18.401 13.108 18.736 12.1032C19.0766 11.093 19.3503 10.244 19.3503 10.2117C19.3503 10.1848 18.5964 9.63675 17.6751 9.00269C16.7538 8.36862 16 7.83127 16 7.80978C16 7.78829 16.9437 7.76142 18.0995 7.75605L20.2046 7.73992L20.8244 5.86996C21.165 4.83826 21.4665 4 21.4944 4C21.5223 4 21.8239 4.84363 22.1701 5.86996L22.7898 7.73992L24.8949 7.75605C26.0508 7.76142 27 7.78829 27 7.80978C27 7.83127 26.2462 8.36862 25.3249 9.00269C24.4036 9.63675 23.6497 10.1848 23.6497 10.2225C23.6497 10.2547 23.9289 11.1091 24.264 12.1247C24.6046 13.1349 24.8726 13.9731 24.8558 13.9839C24.8447 13.9946 24.0853 13.4788 23.164 12.834L21.5 11.6572L19.836 12.8286C18.9203 13.4734 18.1609 14 18.1442 14C18.133 14 18.1218 13.9839 18.1218 13.9678Z" fill="#E8ECF0"/>
<path d="M51.1397 13.9198C51.1564 13.877 51.4358 13.0428 51.7654 12.0642C52.0894 11.0856 52.3687 10.2674 52.3799 10.246C52.3967 10.2299 51.6369 9.68449 50.7039 9.04278C49.7654 8.40107 49 7.86096 49 7.83957C48.9944 7.81283 49.9442 7.79679 51.1062 7.79679H53.2123L53.5363 6.82353C53.7151 6.28342 54 5.42781 54.1676 4.92513C54.3408 4.41711 54.4916 4 54.514 4C54.5363 4 54.6592 4.32086 54.7877 4.71123C54.9162 5.09626 55.2011 5.95187 55.419 6.60963L55.8157 7.79679H57.9106C59.0615 7.79679 60 7.81818 60 7.83957C60 7.86096 59.2514 8.39572 58.3408 9.02674C57.4246 9.65241 56.6648 10.1765 56.6536 10.1818C56.6425 10.1925 56.9162 11.0428 57.2626 12.0749C57.6089 13.107 57.8827 13.9626 57.8659 13.9733C57.8548 13.9893 57.1173 13.492 56.2291 12.8717C55.3464 12.2513 54.5866 11.7326 54.5531 11.7166C54.514 11.7059 53.743 12.2139 52.8324 12.8449C51.9274 13.4813 51.1676 14 51.1453 14C51.1229 14 51.1173 13.9626 51.1397 13.9198Z" fill="#E8ECF0"/>
<path d="M35.0263 9.77445C35.4671 8.37819 36.0952 6.20861 36.0648 6.18713C36.0446 6.17102 35.3455 5.63937 34.5147 5.00568L33 3.85108L34.925 3.83497L36.845 3.81886L37.4276 1.89094C37.7467 0.827633 38.0203 -0.0262348 38.0405 0.000616374C38.0608 0.0220973 38.3343 0.892076 38.6484 1.92853L39.2209 3.82423H41.1104C42.1489 3.82423 43 3.84034 43 3.86719C42.9949 3.88867 42.311 4.42032 41.4802 5.05401C40.6444 5.6877 39.9605 6.21935 39.9605 6.23009C39.9605 6.24083 40.2138 7.08396 40.5228 8.10431C40.8318 9.11928 41.075 9.96778 41.0598 9.98389C41.0243 10.0161 41.0902 10.0644 39.3576 8.72725L38.0253 7.69617L37.6606 7.98079C36.3637 8.99577 35.0415 10 35.001 10C34.9706 10 34.9858 9.89797 35.0263 9.77445Z" fill="#E8ECF0"/>
</svg>
