<svg width="16" height="16" viewBox="0 0 16 16" fill="none" xmlns="http://www.w3.org/2000/svg">
<path d="M7 2H6V3H7V2Z" fill="#E8ECF0"/>
<path d="M8 2H7V3H8V2Z" fill="#E8ECF0"/>
<path d="M9 2H8V3H9V2Z" fill="#E8ECF0"/>
<path d="M10 2H9V3H10V2Z" fill="#E8ECF0"/>
<path d="M5 3H4V4H5V3Z" fill="#E8ECF0"/>
<path d="M6 3H5V4H6V3Z" fill="#E8ECF0"/>
<path d="M7 3H6V4H7V3Z" fill="#E8ECF0"/>
<path d="M8 3H7V4H8V3Z" fill="#E8ECF0"/>
<path d="M9 3H8V4H9V3Z" fill="#E8ECF0"/>
<path d="M10 3H9V4H10V3Z" fill="#E8ECF0"/>
<path d="M11 3H10V4H11V3Z" fill="#E8ECF0"/>
<path d="M12 3H11V4H12V3Z" fill="#E8ECF0"/>
<path d="M3 4H2V5H3V4Z" fill="#E8ECF0"/>
<path d="M4 4H3V5H4V4Z" fill="#E8ECF0"/>
<path d="M5 4H4V5H5V4Z" fill="#E8ECF0"/>
<path d="M12 4H11V5H12V4Z" fill="#E8ECF0"/>
<path d="M13 4H12V5H13V4Z" fill="#E8ECF0"/>
<path d="M14 4H13V5H14V4Z" fill="#E8ECF0"/>
<path d="M2 5H1V6H2V5Z" fill="#E8ECF0"/>
<path d="M3 5H2V6H3V5Z" fill="#E8ECF0"/>
<path d="M6 5H5V6H6V5Z" fill="#E8ECF0"/>
<path d="M7 5H6V6H7V5Z" fill="#E8ECF0"/>
<path d="M8 5H7V6H8V5Z" fill="#E8ECF0"/>
<path d="M9 5H8V6H9V5Z" fill="#E8ECF0"/>
<path d="M10 5H9V6H10V5Z" fill="#E8ECF0"/>
<path d="M11 5H10V6H11V5Z" fill="#E8ECF0"/>
<path d="M14 5H13V6H14V5Z" fill="#E8ECF0"/>
<path d="M15 5H14V6H15V5Z" fill="#E8ECF0"/>
<path d="M2 6H1V7H2V6Z" fill="#E8ECF0"/>
<path d="M4 6H3V7H4V6Z" fill="#E8ECF0"/>
<path d="M5 6H4V7H5V6Z" fill="#E8ECF0"/>
<path d="M6 6H5V7H6V6Z" fill="#E8ECF0"/>
<path d="M11 6H10V7H11V6Z" fill="#E8ECF0"/>
<path d="M12 6H11V7H12V6Z" fill="#E8ECF0"/>
<path d="M13 6H12V7H13V6Z" fill="#E8ECF0"/>
<path d="M15 6H14V7H15V6Z" fill="#E8ECF0"/>
<path d="M2 7H1V8H2V7Z" fill="#E8ECF0"/>
<path d="M3 7H2V8H3V7Z" fill="#E8ECF0"/>
<path d="M5 7H4V8H5V7Z" fill="#E8ECF0"/>
<path d="M7 7H6V8H7V7Z" fill="#E8ECF0"/>
<path d="M10 7H9V8H10V7Z" fill="#E8ECF0"/>
<path d="M12 7H11V8H12V7Z" fill="#E8ECF0"/>
<path d="M14 7H13V8H14V7Z" fill="#E8ECF0"/>
<path d="M15 7H14V8H15V7Z" fill="#E8ECF0"/>
<path d="M2 8H1V9H2V8Z" fill="#E8ECF0"/>
<path d="M4 8H3V9H4V8Z" fill="#E8ECF0"/>
<path d="M5 8H4V9H5V8Z" fill="#E8ECF0"/>
<path d="M7 8H6V9H7V8Z" fill="#E8ECF0"/>
<path d="M10 8H9V9H10V8Z" fill="#E8ECF0"/>
<path d="M12 8H11V9H12V8Z" fill="#E8ECF0"/>
<path d="M13 8H12V9H13V8Z" fill="#E8ECF0"/>
<path d="M15 8H14V9H15V8Z" fill="#E8ECF0"/>
<path d="M2 9H1V10H2V9Z" fill="#E8ECF0"/>
<path d="M3 9H2V10H3V9Z" fill="#E8ECF0"/>
<path d="M5 9H4V10H5V9Z" fill="#E8ECF0"/>
<path d="M12 9H11V10H12V9Z" fill="#E8ECF0"/>
<path d="M14 9H13V10H14V9Z" fill="#E8ECF0"/>
<path d="M15 9H14V10H15V9Z" fill="#E8ECF0"/>
<path d="M2 10H1V11H2V10Z" fill="#E8ECF0"/>
<path d="M3 10H2V11H3V10Z" fill="#E8ECF0"/>
<path d="M5 10H4V11H5V10Z" fill="#E8ECF0"/>
<path d="M6 10H5V11H6V10Z" fill="#E8ECF0"/>
<path d="M11 10H10V11H11V10Z" fill="#E8ECF0"/>
<path d="M12 10H11V11H12V10Z" fill="#E8ECF0"/>
<path d="M14 10H13V11H14V10Z" fill="#E8ECF0"/>
<path d="M15 10H14V11H15V10Z" fill="#E8ECF0"/>
<path d="M6 11H5V12H6V11Z" fill="#E8ECF0"/>
<path d="M7 11H6V12H7V11Z" fill="#E8ECF0"/>
<path d="M8 11H7V12H8V11Z" fill="#E8ECF0"/>
<path d="M9 11H8V12H9V11Z" fill="#E8ECF0"/>
<path d="M10 11H9V12H10V11Z" fill="#E8ECF0"/>
<path d="M11 11H10V12H11V11Z" fill="#E8ECF0"/>
<path d="M3 12H2V13H3V12Z" fill="#E8ECF0"/>
<path d="M4 12H3V13H4V12Z" fill="#E8ECF0"/>
<path d="M5 12H4V13H5V12Z" fill="#E8ECF0"/>
<path d="M7 12H6V13H7V12Z" fill="#E8ECF0"/>
<path d="M8 12H7V13H8V12Z" fill="#E8ECF0"/>
<path d="M9 12H8V13H9V12Z" fill="#E8ECF0"/>
<path d="M10 12H9V13H10V12Z" fill="#E8ECF0"/>
<path d="M12 12H11V13H12V12Z" fill="#E8ECF0"/>
<path d="M13 12H12V13H13V12Z" fill="#E8ECF0"/>
<path d="M14 12H13V13H14V12Z" fill="#E8ECF0"/>
<path d="M3 13H2V14H3V13Z" fill="#E8ECF0"/>
<path d="M4 13H3V14H4V13Z" fill="#E8ECF0"/>
<path d="M5 13H4V14H5V13Z" fill="#E8ECF0"/>
<path d="M6 13H5V14H6V13Z" fill="#E8ECF0"/>
<path d="M11 13H10V14H11V13Z" fill="#E8ECF0"/>
<path d="M12 13H11V14H12V13Z" fill="#E8ECF0"/>
<path d="M13 13H12V14H13V13Z" fill="#E8ECF0"/>
<path d="M14 13H13V14H14V13Z" fill="#E8ECF0"/>
<path d="M4 14H3V15H4V14Z" fill="#E8ECF0"/>
<path d="M5 14H4V15H5V14Z" fill="#E8ECF0"/>
<path d="M12 14H11V15H12V14Z" fill="#E8ECF0"/>
<path d="M13 14H12V15H13V14Z" fill="#E8ECF0"/>
</svg>
