<svg width="75" height="75" viewBox="0 0 75 75" fill="none" xmlns="http://www.w3.org/2000/svg">
<g clip-path="url(#clip0_2550_227)">
<path d="M37 22.5V7.5H22" stroke="#E8ECF0" stroke-width="2" stroke-linecap="round" stroke-linejoin="round"/>
<path d="M59.5 22.5H14.5C10.3579 22.5 7 25.8579 7 30V60C7 64.1421 10.3579 67.5 14.5 67.5H59.5C63.6421 67.5 67 64.1421 67 60V30C67 25.8579 63.6421 22.5 59.5 22.5Z" stroke="#E8ECF0" stroke-width="2" stroke-linecap="round" stroke-linejoin="round"/>
<path d="M0 44.5H7" stroke="#E8ECF0" stroke-width="2" stroke-linecap="round" stroke-linejoin="round"/>
<path d="M67 44.5H75" stroke="#E8ECF0" stroke-width="2" stroke-linecap="round" stroke-linejoin="round"/>
<path d="M39.7005 39.3037C39.5172 39.4906 39.4146 39.7419 39.4146 40.0037C39.4146 40.2654 39.5172 40.5168 39.7005 40.7037L41.3005 42.3037C41.4874 42.4869 41.7387 42.5895 42.0005 42.5895C42.2622 42.5895 42.5135 42.4869 42.7005 42.3037L45.8065 39.1987C46.1265 38.8767 46.6695 38.9787 46.7895 39.4167C47.0916 40.5156 47.0745 41.6778 46.7402 42.7673C46.406 43.8568 45.7683 44.8286 44.9019 45.5689C44.0354 46.3093 42.9761 46.7875 41.8477 46.9478C40.7194 47.108 39.5688 46.9436 38.5305 46.4737L30.6205 54.3837C30.2226 54.7814 29.6831 55.0048 29.1206 55.0047C28.5581 55.0046 28.0187 54.781 27.621 54.3832C27.2233 53.9854 26.9999 53.4459 27 52.8833C27.0001 52.3208 27.2236 51.7814 27.6215 51.3837L35.5315 43.4737C35.0616 42.4354 34.8972 41.2848 35.0574 40.1564C35.2176 39.0281 35.6959 37.9687 36.4362 37.1023C37.1766 36.2359 38.1484 35.5982 39.2379 35.2639C40.3274 34.9296 41.4896 34.9126 42.5885 35.2147C43.0265 35.3347 43.1285 35.8767 42.8075 36.1987L39.7005 39.3037Z" stroke="#E8ECF0" stroke-width="2" stroke-linecap="round" stroke-linejoin="round"/>
</g>
<defs>
<clipPath id="clip0_2550_227">
<rect width="75" height="75" fill="white"/>
</clipPath>
</defs>
</svg>
