<svg width="38" height="70" viewBox="0 0 38 70" fill="none" xmlns="http://www.w3.org/2000/svg">
<path d="M33.3486 37.0734C34.6368 35.1358 35.8758 33.166 37.0644 31.1657C37.2245 30.8872 37.2982 30.5674 37.2762 30.2469C37.2541 29.9264 37.1372 29.6197 36.9404 29.3658C35.9085 27.9959 33.9326 25.2161 32.8566 22.6422C31.7507 20.0004 31.5847 15.8926 31.5767 13.8887C31.5785 13.1285 31.3265 12.3895 30.8607 11.7888L24.4651 3.66125C24.441 4.02646 24.3902 4.38941 24.3131 4.74719C24.1011 5.75314 23.6991 6.75508 23.2412 7.74703C22.9732 8.327 22.6612 8.94696 22.3492 9.57493L21.7292 10.8269C20.6973 12.9627 19.7354 15.2806 19.4654 18.0065C19.2174 20.5263 19.5574 23.4662 21.0953 26.968C21.3513 26.99 21.6092 27.018 21.8672 27.056C24.3308 27.388 26.6432 28.4344 28.5189 30.0658C30.3508 31.6457 32.0067 33.9096 33.3486 37.0654V37.0734ZM11.0378 45.135C11.1838 45.159 11.3298 45.175 11.4778 45.175C13.0377 45.223 15.6676 45.359 17.7975 45.7549C19.5374 46.0749 22.6662 46.17 25.5 47C27.6659 47.632 30.686 45.7319 31 43.5C31.228 41.8721 31.1867 41.0672 31.9767 39.3773L31.9567 39.3873C30.6168 35.6475 28.9128 33.2316 27.1249 31.6897C25.5596 30.3251 23.6276 29.4509 21.5693 29.1758C18.4894 28.7439 15.6656 29.5558 13.8897 30.0758C14.9536 34.5116 14.6256 39.7333 11.0398 45.137L11.0378 45.135ZM5.70613 19.8744C5.66013 20.0743 5.59413 20.2683 5.51014 20.4543L0.280425 32.1157C0.017914 32.7011 -0.0627633 33.3519 0.0488425 33.9838C0.160448 34.6156 0.459195 35.1994 0.906391 35.6595L9.13794 44.139C13.3437 37.9374 12.7297 32.0997 10.8098 27.5399C9.35393 24.0801 7.14605 21.3783 5.71013 19.8784L5.70613 19.8744ZM13.2797 28.0179C14.5096 27.6519 16.4915 27.088 18.7694 26.95C17.4035 23.5002 17.0735 20.4843 17.3375 17.7965C17.6455 14.6926 18.7374 12.1028 19.8073 9.89691C20.0333 9.42693 20.2533 8.98896 20.4633 8.56898C20.7613 7.97501 21.0393 7.41505 21.3013 6.84908C21.7352 5.90913 22.0592 5.07917 22.2212 4.30922C22.3812 3.54926 22.3812 2.8693 22.1932 2.22333C22.0032 1.57337 21.5992 0.873406 20.8333 0.103449C20.3204 -0.0302238 19.7824 -0.0344162 19.2675 0.0912483C18.7527 0.216913 18.2771 0.468499 17.8835 0.823409L7.984 9.72692C7.43168 10.2235 7.06902 10.8965 6.95806 11.6308L6.1041 17.2905C7.44803 18.4704 10.7598 21.9222 12.7737 26.712C12.9537 27.132 13.1237 27.5719 13.2797 28.0179Z" fill="#E8ECF0"/>
<path d="M9.32489 59.0919C6.18509 56.2597 5.26856 50.3088 6.57668 45.9974C8.84483 48.7157 11.9875 49.5767 15.2428 50.0628C20.2682 50.8128 25.2035 50.5323 29.8719 48.2656C30.406 48.0061 30.8995 47.661 31.4831 47.3116C31.9211 48.5656 32.0351 49.8317 31.8821 51.1203C31.51 54.2586 29.9275 56.6827 27.4102 58.5204C26.4037 59.2554 25.3386 59.9125 24.299 60.6056C21.1053 62.7357 20.2411 65.2334 21.4413 68.8667C21.4698 68.9552 21.4953 69.0437 21.5598 69.2597C19.9292 68.5397 18.738 67.4911 17.8305 66.1124C16.8719 64.6573 16.4159 63.0477 16.3919 61.3061C16.3799 60.4585 16.3799 59.6035 16.2644 58.7679C15.9824 56.7308 15.0133 55.8187 13.1877 55.7661C11.314 55.7122 9.83192 56.8553 9.43887 58.6554C9.40889 58.7934 9.36539 58.9299 9.32189 59.0904L9.32489 59.0919Z" fill="#E8ECF0"/>
</svg>
