<svg width="62" height="75" viewBox="0 0 62 75" fill="none" xmlns="http://www.w3.org/2000/svg">
<path d="M44.7769 1.01365C47.6836 -1.44931 52.6804 0.887636 52.7089 4.67946C52.7146 6.45508 51.11 7.66366 49.4082 7.38299C48.4489 7.78967 48.0491 8.66603 47.8835 9.63976C49.8022 10.7911 51.6867 12.0053 53.5769 13.2139C52.886 14.5886 52.0979 15.9117 51.287 17.2119C50.4989 17.126 49.7052 17.0401 48.9228 16.9599C48.6773 17.3494 48.1862 18.1227 47.9349 18.5122C49.6766 19.8181 51.5211 20.9923 53.4399 22.0233C53.3942 20.8778 54.1708 19.2052 52.8231 18.5694C53.7768 17.2005 54.7019 15.8143 55.6499 14.4454C56.238 14.8234 56.8319 15.2072 57.4316 15.591C59.002 16.5991 60.6409 17.5327 62 18.8329C59.7158 21.9317 57.7342 25.2538 55.8497 28.6103C52.4005 26.5483 49.037 24.3431 45.5536 22.3383C45.8734 22.3383 46.513 22.3441 46.8328 22.3441C45.6335 21.6166 44.3429 21.0553 43.0238 20.5971C42.3956 20.2706 41.7732 19.9499 41.1565 19.6291C41.1393 20.0071 41.1165 20.7517 41.1051 21.1298C43.4978 22.6076 45.8334 24.1827 48.2832 25.5746C47.8835 26.3593 48.1405 26.5827 49.0713 26.2333C49.3397 26.3765 49.8822 26.6571 50.1506 26.8003C50.4304 27.0123 50.9843 27.4361 51.2642 27.6481C52.3377 28.2208 53.4113 28.8165 54.542 29.2919C54.3992 30.0366 54.542 30.8957 54.0566 31.543C52.2692 34.0861 50.5789 36.7037 49.0998 39.4416C46.4159 39.2698 44.44 37.1047 42.2243 35.7987C43.0752 34.4813 43.9032 33.1525 44.7484 31.8351L45.7592 31.9038C46.3302 31.9439 46.907 31.984 47.4837 32.0184C47.5237 31.4284 47.5637 30.8442 47.6094 30.2657C45.999 29.3607 44.5771 27.8886 42.7212 27.5793C40.968 28.0433 42.1387 30.0594 42.8696 30.9587C41.9046 31.984 41.4877 33.7081 40.2542 34.3668C38.2441 33.92 36.6794 32.3277 34.9148 31.3196C34.6978 31.2909 34.2638 31.2394 34.0468 31.2165C30.1122 37.7806 26.0006 44.2473 21.9804 50.7598C22.1003 52.1746 22.1346 53.6008 21.9633 55.0156C21.2323 55.6399 20.9639 56.4247 21.1581 57.3526C21.3751 59.7124 22.2088 61.952 22.6143 64.2833C24.5102 64.5296 26.4232 66.1162 26.0635 68.2125C26.1034 69.8221 24.6929 70.8072 23.3567 71.3399C21.7406 71.7523 20.4842 70.4922 19.3593 69.5528C16.3155 69.9767 13.3974 70.9905 10.3594 71.4487C10.2167 72.0272 10.0796 72.6058 9.95398 73.1958C8.62913 74.2153 7.08728 74.8568 5.41408 75C4.62032 73.969 3.10131 73.2072 3.364 71.6836C3.08989 70.2917 4.07782 69.2837 4.80877 68.2584C4.6089 65.2513 3.44966 62.4102 2.99281 59.4375C2.00489 58.7731 1.03409 58.0914 0.0575805 57.4213C-0.0052356 56.2356 -0.0166553 55.0557 0.0233186 53.8758C0.520137 53.4061 1.01696 52.9364 1.50807 52.461C2.69586 52.3694 3.89509 52.3865 5.0886 52.4839C5.32273 52.8276 5.78527 53.5149 6.0194 53.8586C8.19512 53.5779 10.2909 52.9135 12.4381 52.4896C12.8721 52.4037 13.7401 52.2319 14.1741 52.146L14.4025 52.1002C14.4025 51.2696 14.4082 50.4505 14.4196 49.6315C14.7109 49.5685 15.2876 49.4482 15.5789 49.3852C16.3384 49.2706 17.3377 49.4367 17.8403 48.715C21.1924 43.726 24.2932 38.5538 27.434 33.4217C27.611 33.1811 27.9594 32.6885 28.1307 32.4422C29.781 29.2919 32.2594 26.5884 33.4301 23.1975C33.4872 23.4725 33.55 23.7474 33.6128 24.0281C35.7942 19.2911 39.1806 15.2072 41.4763 10.5333C41.5505 10.8311 41.6304 11.129 41.7104 11.4326C41.9102 8.99252 44.1488 7.446 44.7827 5.18351C44.6399 4.42744 44.4629 3.68282 44.263 2.94966C44.4343 2.30242 44.6056 1.65517 44.7769 1.01365Z" fill="#E8ECF0"/>
</svg>
