<svg width="102" height="102" viewBox="0 0 102 102" fill="none" xmlns="http://www.w3.org/2000/svg">
<path d="M51.6379 32.2079C51.6472 30.6355 51.0667 29.1167 50.0108 27.9515C48.955 26.7863 47.5006 26.0593 45.9349 25.9141C44.3692 25.7689 42.8059 26.216 41.5538 27.1672C40.3017 28.1183 39.4517 29.5044 39.1717 31.0517C38.3432 31.2069 37.5544 31.5273 36.8522 31.9937C36.1501 32.4601 35.5489 33.063 35.0846 33.7665C34.6203 34.47 34.3023 35.2598 34.1495 36.0887C33.9967 36.9177 34.0122 37.7689 34.1953 38.5918C33.0609 38.7932 32.0037 39.3025 31.1393 40.0643C30.2749 40.826 29.6366 41.8107 29.2942 42.9107C28.9517 44.0107 28.9183 45.1838 29.1975 46.3015C29.4768 47.4193 30.058 48.4387 30.8776 49.2484C29.4991 49.8848 28.3449 50.9226 27.5659 52.2258C26.787 53.5291 26.4197 55.0372 26.512 56.5527C26.6044 58.0682 27.1521 59.5205 28.0835 60.7196C29.0149 61.9186 30.2866 62.8086 31.7322 63.2729C31.4562 64.3156 31.4532 65.4118 31.7236 66.4559C31.994 67.5 32.5286 68.457 33.2759 69.2347C34.0233 70.0124 34.9583 70.5846 35.9909 70.8962C37.0235 71.2078 38.1189 71.2484 39.1717 71.014C39.4326 72.4514 40.1862 73.7529 41.3028 74.6947C42.4194 75.6366 43.8293 76.16 45.2901 76.1748C46.7508 76.1897 48.1711 75.6952 49.3066 74.7762C50.4422 73.8573 51.2221 72.5714 51.5123 71.1397L51.6379 71.1648V32.2079Z" stroke="#E8ECF0" stroke-width="2" stroke-linecap="round" stroke-linejoin="round"/>
<path d="M61.6914 41.0043V33.4642C61.6914 30.6995 63.9534 28.4375 66.7181 28.4375" stroke="#E8ECF0" stroke-width="2" stroke-linecap="round" stroke-linejoin="round"/>
<path d="M51.6367 53.5708H61.6901" stroke="#E8ECF0" stroke-width="2" stroke-linecap="round" stroke-linejoin="round"/>
<path d="M51.6367 66.1377H66.7168C68.05 66.1377 69.3286 66.6673 70.2713 67.61C71.214 68.5527 71.7435 69.8312 71.7435 71.1644V73.6778" stroke="#E8ECF0" stroke-width="2" stroke-linecap="round" stroke-linejoin="round"/>
<path d="M51.6367 41.0039H71.7435" stroke="#E8ECF0" stroke-width="2" stroke-linecap="round" stroke-linejoin="round"/>
<path d="M72.9997 41.0042C72.9997 41.3375 72.8673 41.6572 72.6316 41.8928C72.3959 42.1285 72.0763 42.2609 71.743 42.2609C71.4097 42.2609 71.0901 42.1285 70.8544 41.8928C70.6187 41.6572 70.4863 41.3375 70.4863 41.0042C70.4863 40.6709 70.6187 40.3513 70.8544 40.1156C71.0901 39.88 71.4097 39.7476 71.743 39.7476C72.0763 39.7476 72.3959 39.88 72.6316 40.1156C72.8673 40.3513 72.9997 40.6709 72.9997 41.0042Z" stroke="#E8ECF0" stroke-width="2" stroke-linecap="round" stroke-linejoin="round"/>
<path d="M62.9469 53.5711C62.9469 53.9044 62.8145 54.2241 62.5789 54.4597C62.3432 54.6954 62.0236 54.8278 61.6903 54.8278C61.357 54.8278 61.0373 54.6954 60.8017 54.4597C60.566 54.2241 60.4336 53.9044 60.4336 53.5711C60.4336 53.2378 60.566 52.9182 60.8017 52.6825C61.0373 52.4469 61.357 52.3145 61.6903 52.3145C62.0236 52.3145 62.3432 52.4469 62.5789 52.6825C62.8145 52.9182 62.9469 53.2378 62.9469 53.5711Z" stroke="#E8ECF0" stroke-width="2" stroke-linecap="round" stroke-linejoin="round"/>
<path d="M72.9997 73.6776C72.9997 74.0109 72.8673 74.3305 72.6316 74.5662C72.3959 74.8019 72.0763 74.9343 71.743 74.9343C71.4097 74.9343 71.0901 74.8019 70.8544 74.5662C70.6187 74.3305 70.4863 74.0109 70.4863 73.6776C70.4863 73.3443 70.6187 73.0246 70.8544 72.789C71.0901 72.5533 71.4097 72.4209 71.743 72.4209C72.0763 72.4209 72.3959 72.5533 72.6316 72.789C72.8673 73.0246 72.9997 73.3443 72.9997 73.6776Z" stroke="#E8ECF0" stroke-width="2" stroke-linecap="round" stroke-linejoin="round"/>
<path d="M67.9723 28.4373C67.9723 28.7706 67.8399 29.0903 67.6043 29.3259C67.3686 29.5616 67.049 29.694 66.7157 29.694C66.3824 29.694 66.0627 29.5616 65.8271 29.3259C65.5914 29.0903 65.459 28.7706 65.459 28.4373C65.459 28.104 65.5914 27.7844 65.8271 27.5487C66.0627 27.3131 66.3824 27.1807 66.7157 27.1807C67.049 27.1807 67.3686 27.3131 67.6043 27.5487C67.8399 27.7844 67.9723 28.104 67.9723 28.4373Z" stroke="#E8ECF0" stroke-width="2" stroke-linecap="round" stroke-linejoin="round"/>
<path d="M12.1111 1C9.16426 1 6.33811 2.17063 4.25437 4.25437C2.17063 6.33811 1 9.16426 1 12.1111" stroke="#E8ECF0" stroke-width="2" stroke-linecap="round" stroke-linejoin="round"/>
<path d="M89.8906 1C92.8375 1 95.6636 2.17063 97.7474 4.25437C99.8311 6.33811 101.002 9.16426 101.002 12.1111" stroke="#E8ECF0" stroke-width="2" stroke-linecap="round" stroke-linejoin="round"/>
<path d="M101.002 89.8887C101.002 92.8355 99.8311 95.6617 97.7474 97.7454C95.6636 99.8291 92.8375 101 89.8906 101" stroke="#E8ECF0" stroke-width="2" stroke-linecap="round" stroke-linejoin="round"/>
<path d="M12.1111 101C9.16426 101 6.33811 99.8291 4.25437 97.7454C2.17063 95.6617 1 92.8355 1 89.8887" stroke="#E8ECF0" stroke-width="2" stroke-linecap="round" stroke-linejoin="round"/>
<path d="M34.332 1H39.8876" stroke="#E8ECF0" stroke-width="2" stroke-linecap="round" stroke-linejoin="round"/>
<path d="M34.332 101H39.8876" stroke="#E8ECF0" stroke-width="2" stroke-linecap="round" stroke-linejoin="round"/>
<path d="M62.1094 1H67.6649" stroke="#E8ECF0" stroke-width="2" stroke-linecap="round" stroke-linejoin="round"/>
<path d="M62.1094 101H67.6649" stroke="#E8ECF0" stroke-width="2" stroke-linecap="round" stroke-linejoin="round"/>
<path d="M1 34.333V39.8886" stroke="#E8ECF0" stroke-width="2" stroke-linecap="round" stroke-linejoin="round"/>
<path d="M101 34.333V39.8886" stroke="#E8ECF0" stroke-width="2" stroke-linecap="round" stroke-linejoin="round"/>
<path d="M1 62.1113V67.6669" stroke="#E8ECF0" stroke-width="2" stroke-linecap="round" stroke-linejoin="round"/>
<path d="M101 62.1113V67.6669" stroke="#E8ECF0" stroke-width="2" stroke-linecap="round" stroke-linejoin="round"/>
</svg>
