<svg width="72" height="75" viewBox="0 0 72 75" fill="none" xmlns="http://www.w3.org/2000/svg">
<path d="M12.4062 13.1492C14.7375 15.0429 15.6125 14.8992 19.9937 14.6054L61.2905 12.1273C62.1655 12.1273 61.4374 11.2523 61.1467 11.1086L54.2842 6.14921C52.9717 5.13046 51.2186 3.96172 47.8624 4.25234L7.87811 7.17108C6.42186 7.31483 6.12811 8.04608 6.70936 8.62733L12.4062 13.1492ZM14.8843 22.7742V66.2241C14.8843 68.5584 16.05 69.4335 18.6781 69.2866L64.0624 66.6616C66.6905 66.5178 66.9842 64.9116 66.9842 63.0147V19.8554C66.9842 17.9617 66.2561 16.9398 64.6467 17.0836L17.2187 19.8554C15.4687 20.0023 14.8843 20.8804 14.8843 22.7742ZM4.52186 3.23359L46.1155 0.171099C51.2218 -0.2664 52.5374 0.0242248 55.7467 2.35859L69.0248 11.6898C71.2123 13.2929 71.9436 13.7304 71.9436 15.4804V66.6616C71.9436 69.8678 70.7779 71.7678 66.6936 72.0553L18.3875 74.9741C15.325 75.1209 13.8625 74.6834 12.2562 72.6397L2.47812 59.9522C0.728123 57.6179 0 55.871 0 53.8272V8.33358C0 5.71171 1.16875 3.52109 4.52186 3.23359Z" fill="#E8ECF0"/>
<path d="M52.1407 53.0417C53.0336 51.5519 53.89 50.0388 54.7089 48.504C54.819 48.2904 54.8652 48.0476 54.8417 47.8064C54.8182 47.5653 54.726 47.3367 54.5768 47.1496C53.7937 46.1398 52.2906 44.0881 51.4475 42.1715C50.5809 40.2043 50.3647 37.1108 50.3124 35.6C50.296 35.0268 50.0954 34.4752 49.7424 34.0327L44.8972 28.0479C44.8882 28.3238 44.8596 28.5986 44.8118 28.8701C44.6808 29.6333 44.4114 30.3978 44.101 31.156C43.9193 31.5993 43.7066 32.0738 43.494 32.5542L43.0717 33.5121C42.3699 35.1457 41.7234 36.915 41.5901 38.9763C41.4681 40.8819 41.7838 43.0909 42.9848 45.6968C43.1717 45.7077 43.3602 45.723 43.5489 45.7459C45.3503 45.941 47.0582 46.6781 48.4616 47.8662C49.8321 49.0164 51.0902 50.6862 52.1405 53.0357L52.1407 53.0417ZM36.0841 59.6203C36.191 59.6351 36.2976 59.6439 36.4054 59.6406C37.5422 59.6418 39.4601 59.6854 41.02 59.9362C42.2942 60.1385 44.8252 60.7851 46.9077 61.3473C48.4993 61.7753 50.0827 60.4225 50.2595 58.7326C50.3877 57.5 50.6594 56.1015 51.1953 54.8096L51.181 54.8176C50.1186 52.0278 48.822 50.2444 47.4845 49.1219C46.3131 48.1281 44.8862 47.5122 43.3812 47.351C41.1288 47.0943 39.0917 47.7698 37.8108 48.2017C38.6884 51.5224 38.5709 55.467 36.0856 59.6218L36.0841 59.6203ZM31.6158 40.6932C31.587 40.845 31.5434 40.9927 31.4866 41.1349L27.9498 50.0448C27.7722 50.4922 27.7286 50.9847 27.8245 51.4586C27.9204 51.9325 28.1515 52.366 28.4878 52.7029L34.6778 58.912C37.5959 54.1416 37.0133 49.7537 35.5096 46.3587C34.3693 43.7826 32.6991 41.7949 31.6188 40.6961L31.6158 40.6932ZM37.319 46.6637C38.2059 46.3602 39.6358 45.8905 41.291 45.7354C40.2165 43.1648 39.9062 40.8983 40.036 38.8657C40.1882 36.5185 40.9231 34.5412 41.6508 32.854C41.8045 32.4946 41.9544 32.1594 42.0976 31.838C42.3007 31.3835 42.4901 30.955 42.6677 30.5224C42.9619 29.804 43.1785 29.1709 43.2786 28.5867C43.3774 28.0101 43.3616 27.4974 43.2097 27.0146C43.0563 26.5288 42.746 26.0101 42.1704 25.4467C41.7939 25.3574 41.4021 25.3663 41.0302 25.4726C40.6582 25.5789 40.3178 25.7792 40.0395 26.0557L33.0387 32.9909C32.6481 33.3776 32.3997 33.8932 32.3359 34.4494L31.8456 38.736C32.8515 39.5956 35.3428 42.124 36.9203 45.6904C37.0611 46.003 37.195 46.3309 37.319 46.6637Z" fill="#E8ECF0"/>
</svg>
