<svg width="30" height="39" viewBox="0 0 30 39" fill="none" xmlns="http://www.w3.org/2000/svg">
<path d="M16.2412 0.00390625C16.8969 0.043373 17.4634 0.291712 17.917 0.738281C18.0588 0.877993 18.6447 1.61644 20.4697 3.95703C21.7724 5.62768 23.2902 7.57394 23.8428 8.28223C24.3952 8.99041 24.8852 9.6244 24.9316 9.69141C25.1206 9.96438 25.2809 10.3536 25.3594 10.7275C25.3941 10.8929 25.402 11.0202 25.417 11.6982C25.4662 13.9246 25.6561 15.6294 26.0117 17.0312C26.2232 17.8649 26.4114 18.3626 26.8516 19.25C27.5004 20.5581 28.3378 21.9047 29.4541 23.4365C29.8781 24.0184 29.9306 24.1163 29.9814 24.4131C30.0173 24.6226 30.0006 24.833 29.9307 25.0488C29.8308 25.3565 28.1336 28.1038 26.7764 30.1543C26.2406 30.9638 26.0928 31.2101 25.8926 31.6289C25.2913 32.8866 24.9153 34.0656 24.6719 35.457C24.6361 35.6613 24.5971 35.9148 24.585 36.0195C24.4875 36.8624 24.2039 37.5005 23.6826 38.0488C23.2124 38.5434 22.664 38.8572 22.0703 38.9707C21.8438 39.0139 21.2264 39.0086 21.0225 38.9619C20.8083 38.9129 20.0901 38.7037 18.8965 38.3428C16.8497 37.7238 15.9334 37.4764 14.9277 37.2695C14.1516 37.1099 13.6306 37.0378 12.7637 36.9717C12.4207 36.9455 11.7405 36.8944 11.252 36.8574C9.53552 36.7275 8.95151 36.676 8.78613 36.6396C8.44288 36.5641 8.16448 36.4443 7.85938 36.2422C7.64403 36.0995 7.50119 35.9541 4.04102 32.3623C2.43657 30.6968 1.00763 29.214 0.866211 29.0674C0.534252 28.7231 0.413351 28.5619 0.265625 28.2656C-0.0232804 27.6859 -0.0808508 26.9513 0.114258 26.3359C0.146241 26.2353 0.332265 25.7977 0.527344 25.3633C1.89307 22.322 4.46923 16.508 4.52344 16.3457C4.62806 16.0285 4.74497 15.3147 5.15625 12.4795C5.66207 8.99253 5.62996 9.1925 5.73438 8.91309C5.83854 8.63419 5.9939 8.36962 6.1875 8.13965C6.28176 8.02812 14.2006 0.825246 14.5146 0.56543C14.9736 0.185873 15.6441 -0.0319864 16.2412 0.00390625ZM12.2578 15C11.8662 14.9987 11.4798 15.0989 11.1377 15.291C10.7956 15.4832 10.5084 15.7614 10.3076 16.1006C10.1068 16.44 9.99991 16.8273 10 17.2227V25.7773L10.0049 25.9248C10.0279 26.2685 10.1318 26.6023 10.3076 26.8994C10.5084 27.2386 10.7956 27.5168 11.1377 27.709C11.4798 27.9011 11.8662 28.0013 12.2578 28C12.6491 27.9986 13.0344 27.8964 13.375 27.7021L20.874 23.4238C21.2131 23.2306 21.4978 22.9532 21.6963 22.6152C21.895 22.2769 22.0003 21.8913 22 21.498C21.9997 21.1048 21.8936 20.7198 21.6943 20.3818C21.52 20.0861 21.28 19.8364 20.9951 19.6494L20.8711 19.5732L13.375 15.2979C13.0344 15.1036 12.6491 15.0014 12.2578 15Z" fill="#E8ECF0"/>
</svg>
