<svg width="58" height="82" viewBox="0 0 58 82" fill="none" xmlns="http://www.w3.org/2000/svg">
<path d="M46.5474 57.7831C48.0747 55.4859 49.5437 53.1504 50.9529 50.7789C51.1427 50.4487 51.2301 50.0696 51.2039 49.6896C51.1778 49.3096 51.0392 48.946 50.8058 48.645C49.5824 47.0208 47.2397 43.725 45.9641 40.6734C44.6529 37.5412 44.4561 32.671 44.4466 30.2951C44.4487 29.3939 44.15 28.5177 43.5977 27.8055L36.015 18.1694C35.9865 18.6024 35.9263 19.0327 35.8348 19.4569C35.5835 20.6496 35.1069 21.8375 34.5639 23.0135C34.2462 23.7012 33.8763 24.4362 33.5064 25.1807L32.7714 26.665C31.5479 29.1973 30.4074 31.9454 30.0873 35.1772C29.7933 38.1648 30.1964 41.6503 32.0197 45.802C32.3232 45.8281 32.6291 45.8613 32.935 45.9064C35.8558 46.3 38.5974 47.5406 40.8212 49.4748C42.9931 51.348 44.9564 54.0321 46.5474 57.7736V57.7831ZM20.0956 67.341C20.2687 67.3694 20.4417 67.3884 20.6172 67.3884C22.4666 67.4453 25.5846 67.6065 28.1098 68.076C30.1727 68.4554 34.258 69.5935 37.6179 70.5775C40.1858 71.3267 42.8295 69.2781 43.2018 66.632C43.4721 64.7019 43.9842 62.5182 44.9208 60.5146L44.8971 60.5265C43.3085 56.0925 41.2883 53.2283 39.1686 51.4002C37.3127 49.7823 35.0221 48.7458 32.5817 48.4197C28.9302 47.9075 25.5823 48.8702 23.4767 49.4867C24.7381 54.7458 24.3493 60.9367 20.0979 67.3433L20.0956 67.341ZM13.7743 37.3918C13.7197 37.6289 13.6415 37.8589 13.5419 38.0794L7.34151 51.9052C7.03027 52.5993 6.93462 53.3709 7.06694 54.12C7.19926 54.8691 7.55346 55.5613 8.08366 56.1068L17.843 66.1601C22.8294 58.8074 22.1015 51.8862 19.8253 46.4802C18.0991 42.3782 15.4814 39.1748 13.779 37.3965L13.7743 37.3918ZM22.7536 47.0468C24.2118 46.6129 26.5615 45.9443 29.2622 45.7807C27.6427 41.6906 27.2515 38.115 27.5645 34.9282C27.9296 31.2483 29.2242 28.1778 30.4928 25.5625C30.7607 25.0053 31.0215 24.486 31.2705 23.9881C31.6238 23.2838 31.9534 22.6199 32.264 21.9489C32.7785 20.8345 33.1626 19.8505 33.3547 18.9377C33.5444 18.0366 33.5444 17.2305 33.3215 16.4646C33.0962 15.694 32.6173 14.8641 31.7091 13.9513C31.1011 13.7928 30.4632 13.7878 29.8528 13.9368C29.2423 14.0858 28.6784 14.3841 28.2118 14.8049L16.4749 25.3609C15.8201 25.9496 15.3901 26.7475 15.2586 27.6182L14.2461 34.3284C15.8395 35.7273 19.766 39.8198 22.1537 45.4985C22.3671 45.9965 22.5686 46.5181 22.7536 47.0468Z" fill="#E8ECF0"/>
<rect x="1" y="1" width="56" height="80" rx="14" stroke="#E8ECF0" stroke-width="2"/>
</svg>
