<svg width="72" height="72" viewBox="0 0 72 72" fill="none" xmlns="http://www.w3.org/2000/svg">
<path d="M63 36C63 28.8392 60.1554 21.9716 55.0919 16.9081C50.0284 11.8446 43.1608 9 36 9C28.4519 9.0284 21.2069 11.9737 15.78 17.22L9 24" stroke="#E8ECF0" stroke-width="6" stroke-linecap="round" stroke-linejoin="round"/>
<path d="M9 9V24H24" stroke="#E8ECF0" stroke-width="6" stroke-linecap="round" stroke-linejoin="round"/>
<path d="M9 36C9 43.1608 11.8446 50.0284 16.9081 55.0919C21.9716 60.1554 28.8392 63 36 63C43.5481 62.9716 50.7931 60.0263 56.22 54.78L63 48" stroke="#E8ECF0" stroke-width="6" stroke-linecap="round" stroke-linejoin="round"/>
<path d="M48 48H63V63" stroke="#E8ECF0" stroke-width="6" stroke-linecap="round" stroke-linejoin="round"/>
<path d="M39.3387 45.6688C40.4419 45.1403 41.5305 44.5841 42.6037 44.0006C42.7506 43.918 42.8682 43.7935 42.9414 43.643C43.0146 43.4925 43.0401 43.3228 43.0148 43.1555C42.8922 42.2607 42.6981 40.4767 42.8686 39.0271C43.0428 37.5387 44.0355 35.6412 44.5536 34.7352C44.7524 34.3927 44.8278 33.9918 44.7679 33.5959L43.9131 28.2141C43.8068 28.3724 43.6887 28.5225 43.5597 28.6632C43.1992 29.0601 42.7515 29.4042 42.2804 29.7288C42.0048 29.9185 41.6984 30.1145 41.3899 30.3141L40.7758 30.7125C39.7401 31.3992 38.6896 32.1867 37.8542 33.3439C37.0827 34.414 36.4751 35.8314 36.2776 37.8235C36.3908 37.9021 36.5034 37.9839 36.6133 38.0703C37.6714 38.8809 38.4733 39.9732 38.9198 41.2122C39.3595 42.4163 39.5392 43.8817 39.3408 45.6652L39.3387 45.6688ZM26.8735 43.3206C26.9351 43.3706 26.9987 43.4169 27.0675 43.4566C27.7798 43.8967 28.9662 44.6635 29.8526 45.4134C30.5776 46.0245 31.9286 47.3818 33.0291 48.5164C33.8708 49.3824 35.3568 49.2011 36.0839 48.2786C36.6138 47.6054 37.2942 46.8904 38.1013 46.34L38.0894 46.3392C38.4409 44.2928 38.2784 42.7459 37.8493 41.5708C37.4774 40.5354 36.8075 39.6228 35.9228 38.9466C34.6044 37.9256 33.0809 37.5344 32.1204 37.2926C31.4595 39.5789 29.9472 41.8463 26.8739 43.322L26.8735 43.3206ZM30.9751 30.4957C30.9017 30.5736 30.8205 30.6434 30.733 30.7047L25.2662 34.5622C24.9918 34.7559 24.7848 35.0278 24.6721 35.3427C24.5594 35.6577 24.5462 36.0012 24.6341 36.3287L26.2502 42.3617C29.8193 40.6924 31.0544 37.8944 31.35 35.3225C31.5746 33.3713 31.2524 31.5603 30.9759 30.4986L30.9751 30.4957ZM32.373 36.2007C33.0397 36.3655 34.1074 36.6427 35.2017 37.1915C35.4655 35.2689 36.0976 33.82 36.9203 32.6784C37.8717 31.3609 39.0535 30.4855 40.1251 29.7775C40.3525 29.6261 40.5688 29.4876 40.7757 29.3544C41.0688 29.1664 41.3438 28.9884 41.613 28.8034C42.0594 28.4958 42.426 28.2083 42.7018 27.9045C42.9741 27.6046 43.1512 27.2978 43.2321 26.956C43.3131 26.6119 43.3077 26.1878 43.1523 25.635C42.9489 25.4371 42.7 25.2909 42.428 25.2095C42.1561 25.1281 41.8696 25.114 41.5943 25.1685L34.6762 26.5293C34.2903 26.6051 33.9465 26.8114 33.7037 27.1129L31.8329 29.4369C32.15 30.3296 32.7898 32.7751 32.478 35.4759C32.4523 35.7136 32.4167 35.9576 32.373 36.2007Z" fill="#E8ECF0"/>
</svg>
