<svg width="59" height="82" viewBox="0 0 59 82" fill="none" xmlns="http://www.w3.org/2000/svg">
<path d="M48.5642 56.7831C50.0916 54.4859 51.5605 52.1504 52.9697 49.7789C53.1596 49.4487 53.2469 49.0696 53.2208 48.6896C53.1946 48.3096 53.056 47.946 52.8227 47.645C51.5992 46.0208 49.2566 42.725 47.9809 39.6734C46.6697 36.5412 46.4729 31.671 46.4634 29.2951C46.4656 28.3939 46.1668 27.5177 45.6146 26.8055L38.0319 17.1694C38.0033 17.6024 37.9431 18.0327 37.8517 18.4569C37.6003 19.6496 37.1237 20.8375 36.5808 22.0135C36.263 22.7012 35.8931 23.4362 35.5233 24.1807L34.7882 25.665C33.5647 28.1973 32.4243 30.9454 32.1042 34.1772C31.8101 37.1648 32.2132 40.6503 34.0366 44.802C34.3401 44.8281 34.646 44.8613 34.9518 44.9064C37.8727 45.3 40.6143 46.5406 42.8381 48.4748C45.01 50.348 46.9732 53.0321 48.5642 56.7736V56.7831ZM22.1124 66.341C22.2855 66.3694 22.4586 66.3884 22.6341 66.3884C24.4835 66.4453 27.6015 66.6065 30.1267 67.076C32.1895 67.4554 36.2749 68.5935 39.6347 69.5775C42.2026 70.3267 44.8464 68.2781 45.2186 65.632C45.4889 63.7019 46.0011 61.5182 46.9377 59.5146L46.9139 59.5265C45.3253 55.0925 43.3051 52.2283 41.1854 50.4002C39.3295 48.7823 37.0389 47.7458 34.5985 47.4197C30.9471 46.9076 27.5991 47.8702 25.4936 48.4867C26.755 53.7458 26.3661 59.9367 22.1148 66.3433L22.1124 66.341ZM24.7704 46.0469C26.2286 45.6129 28.5784 44.9443 31.279 44.7807C29.6596 40.6906 29.2683 37.115 29.5813 33.9282C29.9465 30.2483 31.2411 27.1778 32.5096 24.5625C32.7775 24.0053 33.0384 23.486 33.2873 22.9881C33.6406 22.2838 33.9702 21.6199 34.2808 20.9489C34.7953 19.8345 35.1794 18.8505 35.3715 17.9377C35.5612 17.0366 35.5612 16.2305 35.3383 15.4646C35.1131 14.694 34.6341 13.8641 33.726 12.9513C33.1179 12.7928 32.48 12.7878 31.8696 12.9368C31.2592 13.0858 30.6953 13.3841 30.2286 13.8049L18.4918 24.3609C17.8369 24.9496 17.407 25.7475 17.2754 26.6182L16.2629 33.3284C17.8563 34.7273 21.7828 38.8198 24.1705 44.4985C24.3839 44.9965 24.5855 45.5181 24.7704 46.0469Z" fill="#E8ECF0"/>
<path d="M10.5 53.25C13.3995 53.25 15.75 50.8995 15.75 48C15.75 45.1005 13.3995 42.75 10.5 42.75C7.60051 42.75 5.25 45.1005 5.25 48C5.25 50.8995 7.60051 53.25 10.5 53.25Z" stroke="#E8ECF0" stroke-width="2" stroke-linecap="round" stroke-linejoin="round"/>
<path d="M15.0325 50.6425L26.985 57.6075" stroke="#E8ECF0" stroke-width="2" stroke-linecap="round" stroke-linejoin="round"/>
<path d="M26.9675 38.3925L15.0325 45.3575" stroke="#E8ECF0" stroke-width="2" stroke-linecap="round" stroke-linejoin="round"/>
</svg>
