<svg width="30" height="39" viewBox="0 0 30 39" fill="none" xmlns="http://www.w3.org/2000/svg">
<path d="M16.2412 0.00390625C16.8969 0.043373 17.4634 0.291712 17.917 0.738281C18.0588 0.877993 18.6447 1.61644 20.4697 3.95703C21.7724 5.62768 23.2902 7.57394 23.8428 8.28223C24.3952 8.99041 24.8852 9.6244 24.9316 9.69141C25.1206 9.96438 25.2809 10.3536 25.3594 10.7275C25.3941 10.8929 25.402 11.0202 25.417 11.6982C25.4662 13.9246 25.6561 15.6294 26.0117 17.0312C26.2232 17.8649 26.4114 18.3626 26.8516 19.25C27.5004 20.5581 28.3378 21.9047 29.4541 23.4365C29.8781 24.0184 29.9306 24.1163 29.9814 24.4131C30.0173 24.6226 30.0006 24.833 29.9307 25.0488C29.8308 25.3565 28.1336 28.1038 26.7764 30.1543C26.2406 30.9638 26.0928 31.2101 25.8926 31.6289C25.2913 32.8866 24.9153 34.0656 24.6719 35.457C24.6361 35.6613 24.5971 35.9148 24.585 36.0195C24.4875 36.8624 24.2039 37.5005 23.6826 38.0488C23.2124 38.5434 22.664 38.8572 22.0703 38.9707C21.8438 39.0139 21.2264 39.0086 21.0225 38.9619C20.8083 38.9129 20.0901 38.7037 18.8965 38.3428C16.8497 37.7238 15.9334 37.4764 14.9277 37.2695C14.1516 37.1099 13.6306 37.0378 12.7637 36.9717C12.4207 36.9455 11.7405 36.8944 11.252 36.8574C9.53552 36.7275 8.95151 36.676 8.78613 36.6396C8.44288 36.5641 8.16448 36.4443 7.85938 36.2422C7.64403 36.0995 7.50119 35.9541 4.04102 32.3623C2.43657 30.6968 1.00763 29.214 0.866211 29.0674C0.534252 28.7231 0.413351 28.5619 0.265625 28.2656C-0.0232804 27.6859 -0.0808508 26.9513 0.114258 26.3359C0.146241 26.2353 0.332265 25.7977 0.527344 25.3633C1.89307 22.322 4.46923 16.508 4.52344 16.3457C4.62806 16.0285 4.74497 15.3147 5.15625 12.4795C5.66207 8.99253 5.62996 9.1925 5.73438 8.91309C5.83854 8.63419 5.9939 8.36962 6.1875 8.13965C6.28176 8.02812 14.2006 0.825246 14.5146 0.56543C14.9736 0.185873 15.6441 -0.0319864 16.2412 0.00390625ZM19.5 14C18.6716 14 18 14.6716 18 15.5C18 15.5276 18.0024 15.5548 18.0039 15.582L16.291 17.2949C15.8996 17.1078 15.4628 17 15 17C14.5372 17 14.1004 17.1078 13.709 17.2949L11.9951 15.5811C11.9966 15.5542 12 15.5272 12 15.5C12 14.6716 11.3284 14 10.5 14C9.67157 14 9 14.6716 9 15.5C9 16.3284 9.67157 17 10.5 17C10.5272 17 10.5542 16.9966 10.5811 16.9951L12.2949 18.709C12.1078 19.1004 12 19.5372 12 20C12 20.4628 12.1078 20.8996 12.2949 21.291L10.582 23.0039C10.5548 23.0024 10.5276 23 10.5 23C9.67157 23 9 23.6716 9 24.5C9 25.3284 9.67157 26 10.5 26C11.3284 26 12 25.3284 12 24.5C12 24.4728 11.9966 24.4458 11.9951 24.4189L13.709 22.7051C14.1004 22.8922 14.5372 23 15 23C15.4626 23 15.8988 22.8911 16.29 22.7041L18.0039 24.418C18.0024 24.4452 18 24.4724 18 24.5C18 25.3284 18.6716 26 19.5 26C20.3284 26 21 25.3284 21 24.5C21 23.6716 20.3284 23 19.5 23C19.4724 23 19.4452 23.0024 19.418 23.0039L17.7041 21.29C17.8911 20.8988 18 20.4626 18 20C18 19.5372 17.8922 19.1004 17.7051 18.709L19.4189 16.9951C19.4458 16.9966 19.4728 17 19.5 17C20.3284 17 21 16.3284 21 15.5C21 14.6716 20.3284 14 19.5 14Z" fill="#E8ECF0"/>
</svg>
