<svg width="91" height="111" viewBox="0 0 91 111" fill="none" xmlns="http://www.w3.org/2000/svg">
<g filter="url(#filter0_d_1297_10)">
<path d="M31 32V46C31 46.9283 31.3687 47.8185 32.0251 48.4749C32.6815 49.1313 33.5717 49.5 34.5 49.5H55.5C56.4283 49.5 57.3185 49.1313 57.9749 48.4749C58.6313 47.8185 59 46.9283 59 46V32" stroke="#E8ECF0" stroke-width="2" stroke-linecap="round" stroke-linejoin="round"/>
<path d="M52 21.5L45 14.5L38 21.5" stroke="#E8ECF0" stroke-width="2" stroke-linecap="round" stroke-linejoin="round"/>
<path d="M45 14.5V37.25" stroke="#E8ECF0" stroke-width="2" stroke-linecap="round" stroke-linejoin="round"/>
<path d="M5 88.9971V13.571C5 10.237 6.32444 7.03949 8.68196 4.68196C11.0395 2.32444 14.237 1 17.571 1H85.4545V101.568H17.571C14.237 101.568 11.0395 100.244 8.68196 97.8861C6.32444 95.5286 5 92.3311 5 88.9971ZM5 88.9971C5 85.663 6.32444 82.4655 8.68196 80.108C11.0395 77.7505 14.237 76.4261 17.571 76.4261H85.4545" stroke="#E8ECF0" stroke-width="2" stroke-linecap="round" stroke-linejoin="round"/>
</g>
<defs>
<filter id="filter0_d_1297_10" x="0" y="0" width="90.4545" height="110.568" filterUnits="userSpaceOnUse" color-interpolation-filters="sRGB">
<feFlood flood-opacity="0" result="BackgroundImageFix"/>
<feColorMatrix in="SourceAlpha" type="matrix" values="0 0 0 0 0 0 0 0 0 0 0 0 0 0 0 0 0 0 127 0" result="hardAlpha"/>
<feOffset dy="4"/>
<feGaussianBlur stdDeviation="2"/>
<feComposite in2="hardAlpha" operator="out"/>
<feColorMatrix type="matrix" values="0 0 0 0 0 0 0 0 0 0 0 0 0 0 0 0 0 0 0.25 0"/>
<feBlend mode="normal" in2="BackgroundImageFix" result="effect1_dropShadow_1297_10"/>
<feBlend mode="normal" in="SourceGraphic" in2="effect1_dropShadow_1297_10" result="shape"/>
</filter>
</defs>
</svg>
