<svg width="82" height="82" viewBox="0 0 82 82" fill="none" xmlns="http://www.w3.org/2000/svg">
<g filter="url(#filter0_d_987_34)">
<path d="M37 65C54.6731 65 69 50.6731 69 33C69 15.3269 54.6731 1 37 1C19.3269 1 5 15.3269 5 33C5 50.6731 19.3269 65 37 65Z" stroke="#E8ECF0" stroke-width="2" stroke-linecap="round" stroke-linejoin="round"/>
<path d="M77.0008 72.9998L59.8008 55.7998" stroke="#E8ECF0" stroke-width="2" stroke-linecap="round" stroke-linejoin="round"/>
<path d="M48.1 25.8003H24.9C23.2984 25.8003 22 27.0987 22 28.7003V43.2003C22 44.8019 23.2984 46.1003 24.9 46.1003H48.1C49.7016 46.1003 51 44.8019 51 43.2003V28.7003C51 27.0987 49.7016 25.8003 48.1 25.8003Z" stroke="#E8ECF0" stroke-width="2" stroke-linecap="round" stroke-linejoin="round"/>
<path d="M42.3012 46.1V22.9C42.3012 22.1309 41.9956 21.3932 41.4518 20.8494C40.9079 20.3055 40.1703 20 39.4012 20H33.6012C32.832 20 32.0944 20.3055 31.5506 20.8494C31.0067 21.3932 30.7012 22.1309 30.7012 22.9V46.1" stroke="#E8ECF0" stroke-width="2" stroke-linecap="round" stroke-linejoin="round"/>
</g>
<defs>
<filter id="filter0_d_987_34" x="0" y="0" width="82" height="82" filterUnits="userSpaceOnUse" color-interpolation-filters="sRGB">
<feFlood flood-opacity="0" result="BackgroundImageFix"/>
<feColorMatrix in="SourceAlpha" type="matrix" values="0 0 0 0 0 0 0 0 0 0 0 0 0 0 0 0 0 0 127 0" result="hardAlpha"/>
<feOffset dy="4"/>
<feGaussianBlur stdDeviation="2"/>
<feComposite in2="hardAlpha" operator="out"/>
<feColorMatrix type="matrix" values="0 0 0 0 0 0 0 0 0 0 0 0 0 0 0 0 0 0 0.25 0"/>
<feBlend mode="normal" in2="BackgroundImageFix" result="effect1_dropShadow_987_34"/>
<feBlend mode="normal" in="SourceGraphic" in2="effect1_dropShadow_987_34" result="shape"/>
</filter>
</defs>
</svg>
