<svg width="48" height="48" viewBox="0 0 48 48" fill="none" xmlns="http://www.w3.org/2000/svg">
<g clip-path="url(#clip0_2343_18)">
<mask id="mask0_2343_18" style="mask-type:alpha" maskUnits="userSpaceOnUse" x="-1" y="0" width="49" height="49">
<path d="M11.0526 29.4973C10.9484 30.4921 11.0026 31.4991 11.2186 32.4778C11.4798 33.6608 11.9696 34.779 12.6581 35.7659C13.6375 37.2012 14.9397 38.2937 16.3934 39.01L7.40027 48.0002L-0.00012207 40.5696L11.0526 29.4973ZM37.83 40.4905L30.4042 47.9182L22.3114 39.8333C23.4009 39.6229 24.4607 39.2104 25.4325 38.5764L31.7762 34.4368L37.83 40.4905ZM47.9178 30.4036L40.4921 37.8284L34.6991 32.0354C34.8709 31.8224 35.034 31.6013 35.1854 31.3713C35.8346 30.3853 36.2765 29.2714 36.4813 28.1008C36.8287 26.1289 36.5234 24.0943 35.6151 22.3196C36.2067 21.3997 36.6163 20.3711 36.828 19.2922L47.9178 30.4036ZM15.4227 28.8245C16.2836 29.4721 17.2467 29.9646 18.2694 30.2805L18.5399 30.3645L18.5135 30.6418C18.4811 31.0347 18.586 31.4266 18.8085 31.7483C19.0113 32.0482 19.2988 32.2774 19.6327 32.4045C19.9668 32.5316 20.3316 32.5509 20.6766 32.4592C20.8345 32.4163 20.9849 32.3486 21.1229 32.259L26.2518 28.9114L29.0868 31.7463L23.3348 35.5022C22.8784 35.7998 22.38 36.024 21.8573 36.1672C20.7121 36.4719 19.5028 36.4089 18.3934 35.9875C17.2842 35.5662 16.3274 34.8064 15.6532 33.8108C15.2392 33.2175 14.9451 32.5455 14.788 31.8342C14.6308 31.1229 14.6138 30.3863 14.7382 29.6682C14.7805 29.4326 14.8393 29.2003 14.913 28.9729L15.0497 28.5442L15.4227 28.8245ZM25.7616 20.8098C26.9067 20.5049 28.116 20.5674 29.2255 20.9885C30.3347 21.4096 31.2913 22.1689 31.9657 23.1643C32.3798 23.7579 32.674 24.4303 32.8309 25.1418C32.9879 25.8535 33.0046 26.5906 32.8798 27.3088C32.7563 28.0127 32.4909 28.6827 32.1005 29.2756C32.0791 29.308 32.0551 29.3385 32.0331 29.3704L29.0887 26.425C29.1178 26.2236 29.112 26.0185 29.0682 25.8196C29.0211 25.6051 28.933 25.402 28.8085 25.2229C28.6054 24.923 28.3173 24.6937 27.9833 24.5667C27.7121 24.4635 27.4211 24.4323 27.1366 24.4729L24.1942 21.5315L24.2841 21.4739C24.7405 21.1766 25.2389 20.9525 25.7616 20.8098ZM13.3026 15.9631C13.1301 16.1768 12.9672 16.3994 12.8153 16.6301C12.1661 17.6162 11.7244 18.7301 11.5194 19.9006C11.1722 21.8728 11.4774 23.9074 12.3866 25.6819C11.7948 26.6007 11.3834 27.6275 11.1708 28.7053L0.0584717 17.5696L7.48425 10.1438L13.3026 15.9631ZM18.912 21.5715C18.8821 21.7744 18.8875 21.9815 18.9315 22.1819C18.9787 22.3962 19.0677 22.5986 19.1923 22.7776C19.3953 23.0775 19.6834 23.3068 20.0175 23.4338C20.2893 23.5372 20.5809 23.5677 20.8661 23.5266L23.8065 26.4661L23.7167 26.5256C23.2602 26.8232 22.7618 27.0473 22.2391 27.1907C21.094 27.4955 19.8847 27.434 18.7753 27.0129C17.6659 26.5919 16.7095 25.8317 16.035 24.8362C15.6209 24.2426 15.3267 23.5702 15.1698 22.8586C15.0129 22.1471 14.9962 21.4108 15.121 20.6926C15.2444 19.9888 15.5097 19.3186 15.9003 18.7258C15.922 18.6928 15.9452 18.6607 15.9677 18.6282L18.912 21.5715ZM26.1434 11.8342C27.2887 11.5295 28.4979 11.5916 29.6073 12.0129C30.7166 12.4343 31.6733 13.1941 32.3475 14.1897C32.7616 14.7829 33.0556 15.455 33.2128 16.1663C33.3699 16.8776 33.3869 17.6142 33.2626 18.3323C33.22 18.5681 33.1614 18.8009 33.0878 19.0286L32.951 19.4563L32.579 19.176C31.7179 18.5277 30.7545 18.0351 29.7313 17.719L29.4608 17.635L29.4872 17.3586C29.5197 16.9655 29.4148 16.5733 29.1923 16.2512C28.9892 15.9514 28.7012 15.7228 28.3671 15.5959C28.033 15.4691 27.6689 15.4504 27.3241 15.5422C27.1663 15.5852 27.0157 15.652 26.8778 15.7415L21.7499 19.0872L18.9159 16.2522L24.6659 12.4993C25.1224 12.2016 25.6206 11.9774 26.1434 11.8342ZM47.9999 7.39966L36.952 18.4465C37.0487 17.47 36.9929 16.4821 36.7811 15.5217C36.5202 14.3386 36.0311 13.2206 35.3427 12.2336C34.3578 10.7897 33.0463 9.69178 31.5819 8.97583L40.5682 0.000244141L47.9999 7.39966ZM25.6913 8.16528C24.6011 8.37572 23.5406 8.78946 22.5682 9.42407L16.2255 13.5627L10.1464 7.48364L17.5721 0.0598145L25.6913 8.16528Z" fill="#4F63A2"/>
</mask>
<g mask="url(#mask0_2343_18)">
<path d="M48 7.4L36.468 18.932L47.918 30.404L40.492 37.828L10.146 7.484L17.572 0.06L29.044 11.512L40.568 0L48 7.4ZM0.058 17.57L7.484 10.144L37.83 40.49L30.404 47.918L18.94 36.466L7.4 48L0 40.57L11.508 29.042L0.058 17.57Z" fill="#E8ECF0"/>
</g>
</g>
<defs>
<clipPath id="clip0_2343_18">
<rect width="48" height="48" fill="white"/>
</clipPath>
</defs>
</svg>
