<svg width="100" height="35" viewBox="0 0 100 35" fill="none" xmlns="http://www.w3.org/2000/svg">
<g opacity="0.7">
<path opacity="0.7" d="M75.0488 22.3627L91.2339 31.4532L91.9083 31.0743L75.7233 21.9839" fill="#E8ECF0"/>
<path opacity="0.7" d="M73.0254 23.499L89.2105 32.5894L89.8849 32.2106L73.6998 23.1201" fill="#E8ECF0"/>
<path opacity="0.7" d="M71.0039 24.6357L87.1884 33.7261L87.8629 33.3473L71.6778 24.2568" fill="#E8ECF0"/>
<path opacity="0.7" d="M68.9805 25.7719L85.1656 34.8624L85.84 34.4835L69.6549 25.3931" fill="#E8ECF0"/>
<path opacity="0.7" d="M83.1426 17.8178L99.3277 26.9083L100.002 26.5294L83.817 17.439" fill="#E8ECF0"/>
<path opacity="0.7" d="M81.1191 18.9536L97.3037 28.044L97.9781 27.6652L81.7936 18.5747" fill="#E8ECF0"/>
<path opacity="0.7" d="M79.0957 20.0903L95.2808 29.1807L95.9552 28.8019L79.7702 19.7114" fill="#E8ECF0"/>
<path opacity="0.7" d="M77.0723 21.2265L93.2573 30.317L93.9318 29.9381L77.7467 20.8477" fill="#E8ECF0"/>
</g>
<g opacity="0.6">
<path opacity="0.6" d="M99.3281 9.46968V26.9091L100.003 26.5302V9.09082" fill="#E8ECF0"/>
<path opacity="0.6" d="M97.3047 10.6054V28.0448L97.9791 27.6659V10.2266" fill="#E8ECF0"/>
<path opacity="0.6" d="M95.2812 11.7421V29.1815L95.9557 28.8027V11.3633" fill="#E8ECF0"/>
<path opacity="0.6" d="M93.2578 12.8779V30.3173L93.9323 29.9384V12.499" fill="#E8ECF0"/>
<path opacity="0.6" d="M91.2344 14.0146L91.2349 31.454L91.9094 31.0751L91.9088 13.6357" fill="#E8ECF0"/>
<path opacity="0.6" d="M89.2109 15.1508V32.5902L89.8854 32.2114V14.772" fill="#E8ECF0"/>
<path opacity="0.6" d="M87.1895 16.2875V33.7269L87.8639 33.3481V15.9087" fill="#E8ECF0"/>
<path opacity="0.6" d="M85.166 17.4233V34.8627L85.8405 34.4838V17.0444" fill="#E8ECF0"/>
</g>
<g opacity="0.8">
<path opacity="0.8" d="M75.0488 4.92378L91.2333 14.0142L91.9078 13.6354L75.7233 4.54492" fill="#E8ECF0"/>
<path opacity="0.8" d="M73.0254 6.06001L89.2105 15.1505L89.8849 14.7716L73.6998 5.68115" fill="#E8ECF0"/>
<path opacity="0.8" d="M71.0039 7.19673L87.189 16.2872L87.8634 15.9083L71.6784 6.81787" fill="#E8ECF0"/>
<path opacity="0.8" d="M68.9805 8.33247L85.1656 17.4229L85.84 17.0441L69.6549 7.95361" fill="#E8ECF0"/>
<path opacity="0.8" d="M83.1426 0.378859L99.3277 9.4693L100.002 9.09044L83.817 0" fill="#E8ECF0"/>
<path opacity="0.8" d="M81.1191 1.5146L97.3037 10.605L97.9781 10.2262L81.793 1.13574" fill="#E8ECF0"/>
<path opacity="0.8" d="M79.0957 2.65132L95.2808 11.7418L95.9552 11.3629L79.7702 2.27246" fill="#E8ECF0"/>
<path opacity="0.8" d="M77.0723 3.7875L93.2573 12.8779L93.9318 12.4991L77.7467 3.40918" fill="#E8ECF0"/>
</g>
<g opacity="0.7">
<path opacity="0.7" d="M49.9995 0.757717L33.8145 9.84816V9.09044L49.9995 0" fill="#E8ECF0"/>
<path opacity="0.7" d="M49.9995 3.03848L33.8145 12.1284V11.3712L49.9995 2.28076" fill="#E8ECF0"/>
<path opacity="0.7" d="M49.9995 5.31094L33.8145 14.4008V13.6437L49.9995 4.55322" fill="#E8ECF0"/>
<path opacity="0.7" d="M49.9995 7.59219L33.8145 16.6821V15.9249L49.9995 6.83447" fill="#E8ECF0"/>
<path opacity="0.7" d="M49.9995 9.84805L33.8145 18.9379V18.1808L49.9995 9.09033" fill="#E8ECF0"/>
<path opacity="0.7" d="M49.9995 12.1283L33.8145 21.2187V20.4615L49.9995 11.3711" fill="#E8ECF0"/>
<path opacity="0.7" d="M49.9995 14.4007L33.8145 23.4912V22.734L49.9995 13.6436" fill="#E8ECF0"/>
<path opacity="0.7" d="M49.9995 16.6815L33.8145 25.7719V25.0148L49.9995 15.9243" fill="#E8ECF0"/>
</g>
<g opacity="0.6">
<path opacity="0.6" d="M50 0.757717L66.1851 9.84816V9.09044L50 0" fill="#E8ECF0"/>
<path opacity="0.6" d="M50 3.03848L66.1851 12.1284V11.3712L50 2.28076" fill="#E8ECF0"/>
<path opacity="0.6" d="M50 5.31094L66.1851 14.4008V13.6437L50 4.55322" fill="#E8ECF0"/>
<path opacity="0.6" d="M50 7.59219L66.1851 16.6821V15.9249L50 6.83447" fill="#E8ECF0"/>
<path opacity="0.6" d="M50 9.84805L66.1851 18.9379V18.1808L50 9.09033" fill="#E8ECF0"/>
<path opacity="0.6" d="M50 12.1283L66.1851 21.2187V20.4615L50 11.3711" fill="#E8ECF0"/>
<path opacity="0.6" d="M50 14.4007L66.1851 23.4912V22.734L50 13.6436" fill="#E8ECF0"/>
<path opacity="0.6" d="M50 16.6815L66.1851 25.7719V25.0148L50 15.9243" fill="#E8ECF0"/>
</g>
<g opacity="0.8">
<path opacity="0.8" d="M66.1851 9.84854L50 18.9384V18.1813L66.1851 9.09082" fill="#E8ECF0"/>
<path opacity="0.8" d="M66.1851 12.1288L50 21.2192V20.462L66.1851 11.3716" fill="#E8ECF0"/>
<path opacity="0.8" d="M66.1851 14.4012L50 23.4917V22.7345L66.1851 13.644" fill="#E8ECF0"/>
<path opacity="0.8" d="M66.1851 16.6825L50 25.7729V25.0157L66.1851 15.9253" fill="#E8ECF0"/>
<path opacity="0.8" d="M66.1851 18.9383L50 28.0288V27.2716L66.1851 18.1812" fill="#E8ECF0"/>
<path opacity="0.8" d="M66.1851 21.2191L50 30.3095V29.5524L66.1851 20.4619" fill="#E8ECF0"/>
<path opacity="0.8" d="M66.1851 23.4916L50 32.582V31.8248L66.1851 22.7344" fill="#E8ECF0"/>
<path opacity="0.8" d="M66.1851 25.7723L50 34.8628V34.105L66.1851 25.0151" fill="#E8ECF0"/>
</g>
<g opacity="0.8">
<path opacity="0.8" d="M24.9513 22.3632L8.76624 31.4537L8.0918 31.0748L24.2769 21.9844" fill="#E8ECF0"/>
<path opacity="0.8" d="M26.9748 23.4995L10.7897 32.5899L10.1152 32.2111L26.3003 23.1206" fill="#E8ECF0"/>
<path opacity="0.8" d="M28.9982 24.6362L12.8131 33.7266L12.1387 33.3478L28.3237 24.2573" fill="#E8ECF0"/>
<path opacity="0.8" d="M31.0216 25.7719L14.8366 34.8624L14.1621 34.4835L30.3472 25.3931" fill="#E8ECF0"/>
<path opacity="0.8" d="M16.8595 17.8183L0.674448 26.9088L0 26.5299L16.1851 17.4395" fill="#E8ECF0"/>
<path opacity="0.8" d="M18.8824 18.9541L2.69733 28.0445L2.02344 27.6656L18.2085 18.5752" fill="#E8ECF0"/>
<path opacity="0.8" d="M20.9044 20.0908L4.71937 29.1812L4.04492 28.8024L20.23 19.7119" fill="#E8ECF0"/>
<path opacity="0.8" d="M22.9279 21.2265L6.74281 30.317L6.06836 29.9381L22.2534 20.8477" fill="#E8ECF0"/>
</g>
<g opacity="0.6">
<path opacity="0.6" d="M0.674448 9.46919V26.9086L0 26.5297V9.09033" fill="#E8ECF0"/>
<path opacity="0.6" d="M2.69789 10.6054L2.69733 28.0448L2.02344 27.6659V10.2266" fill="#E8ECF0"/>
<path opacity="0.6" d="M4.71937 11.7417V29.181L4.04492 28.8022V11.3628" fill="#E8ECF0"/>
<path opacity="0.6" d="M6.74281 12.8784V30.3178L6.06836 29.9389V12.4995" fill="#E8ECF0"/>
<path opacity="0.6" d="M8.7668 14.0146L8.76625 31.454L8.0918 31.0751L8.09235 13.6357" fill="#E8ECF0"/>
<path opacity="0.6" d="M10.7897 15.1508V32.5902L10.1152 32.2114V14.772" fill="#E8ECF0"/>
<path opacity="0.6" d="M12.8131 16.2875V33.7269L12.1387 33.3481V15.9087" fill="#E8ECF0"/>
<path opacity="0.6" d="M14.8366 17.4233V34.8627L14.1621 34.4838V17.0444" fill="#E8ECF0"/>
</g>
<g opacity="0.7">
<path opacity="0.7" d="M24.9508 4.92378L8.76624 14.0142L8.0918 13.6354L24.2769 4.54492" fill="#E8ECF0"/>
<path opacity="0.7" d="M26.9748 6.06001L10.7897 15.1505L10.1152 14.7716L26.3003 5.68115" fill="#E8ECF0"/>
<path opacity="0.7" d="M28.9982 7.19673L12.8131 16.2872L12.1387 15.9083L28.3237 6.81787" fill="#E8ECF0"/>
<path opacity="0.7" d="M31.0216 8.33247L14.8366 17.4229L14.1621 17.0441L30.3472 7.95361" fill="#E8ECF0"/>
<path opacity="0.7" d="M16.8595 0.378859L0.674448 9.4693L0 9.09044L16.1851 0" fill="#E8ECF0"/>
<path opacity="0.7" d="M18.8824 1.5146L2.69789 10.605L2.02344 10.2262L18.2085 1.13574" fill="#E8ECF0"/>
<path opacity="0.7" d="M20.9044 2.65132L4.71937 11.7418L4.04492 11.3629L20.23 2.27246" fill="#E8ECF0"/>
<path opacity="0.7" d="M22.9279 3.7875L6.74281 12.8779L6.06836 12.4991L22.2534 3.40918" fill="#E8ECF0"/>
</g>
</svg>
