<svg width="92" height="101" viewBox="0 0 92 101" fill="none" xmlns="http://www.w3.org/2000/svg">
<path d="M90.1069 30.6922C90.1052 28.9559 89.6468 27.2507 88.778 25.7475C87.9091 24.2444 86.6602 22.9961 85.1566 22.128L50.5039 2.32645C48.9987 1.45748 47.2914 1 45.5535 1C43.8155 1 42.1082 1.45748 40.6031 2.32645L5.95039 22.128C4.44677 22.9961 3.19787 24.2444 2.32899 25.7475C1.4601 27.2507 1.00178 28.9559 1 30.6922V70.2952C1.00178 72.0315 1.4601 73.7367 2.32899 75.2399C3.19787 76.743 4.44677 77.9913 5.95039 78.8594L40.6031 98.661C42.1082 99.5299 43.8155 99.9874 45.5535 99.9874C47.2914 99.9874 48.9987 99.5299 50.5039 98.661L85.1566 78.8594C86.6602 77.9913 87.9091 76.743 88.778 75.2399C89.6468 73.7367 90.1052 72.0315 90.1069 70.2952V30.6922Z" stroke="#E8ECF0" stroke-width="2" stroke-linecap="round" stroke-linejoin="round"/>
<path d="M2.49023 25.7422L45.5586 50.4941L88.627 25.7422" stroke="#E8ECF0" stroke-width="2" stroke-linecap="round" stroke-linejoin="round"/>
<path d="M45.5547 99.9985V50.4946" stroke="#E8ECF0" stroke-width="2" stroke-linecap="round" stroke-linejoin="round"/>
<path d="M42.8776 36C43.3537 36 43.8251 36.0938 44.265 36.276C44.7048 36.4582 45.1045 36.7252 45.4411 37.0618C45.7777 37.3985 46.0448 37.7981 46.227 38.238C46.4091 38.6778 46.5029 39.1492 46.5029 39.6253V61.3771C46.501 62.2818 46.1608 63.1531 45.5493 63.8198C44.9378 64.4865 44.0991 64.9005 43.198 64.9804C42.2968 65.0604 41.3983 64.8005 40.679 64.2518C39.9597 63.7032 39.4715 62.9054 39.3103 62.0152C38.7029 62.1504 38.0709 62.127 37.4751 61.9472C36.8793 61.7674 36.3399 61.4372 35.9087 60.9885C35.4775 60.5399 35.169 59.9877 35.013 59.3853C34.857 58.7828 34.8587 58.1504 35.018 57.5488C34.1839 57.2809 33.4502 56.7674 32.9128 56.0756C32.3754 55.3838 32.0594 54.5459 32.0061 53.6715C31.9528 52.7971 32.1648 51.927 32.6142 51.175C33.0636 50.4231 33.7296 49.8243 34.5249 49.4571C34.052 48.99 33.7167 48.4018 33.5556 47.7569C33.3944 47.112 33.4137 46.4352 33.6113 45.8005C33.8089 45.1658 34.1772 44.5977 34.6759 44.1582C35.1746 43.7187 35.7846 43.4248 36.4391 43.3086C36.3335 42.8339 36.3245 42.3427 36.4127 41.8644C36.5008 41.3862 36.6843 40.9305 36.9522 40.5246C37.2201 40.1187 37.5669 39.7708 37.9721 39.5017C38.3772 39.2326 38.8323 39.0478 39.3103 38.9582C39.4661 38.1263 39.908 37.375 40.5596 36.8347C41.2111 36.2944 42.0312 35.9991 42.8776 36Z" stroke="#E8ECF0" stroke-width="2" stroke-linecap="round" stroke-linejoin="round"/>
<path d="M50.1273 36C49.1658 36 48.2437 36.382 47.5638 37.0618C46.8839 37.7417 46.502 38.6638 46.502 39.6253V61.3771C46.5039 62.2818 46.844 63.1531 47.4556 63.8198C48.0671 64.4865 48.9058 64.9005 49.8069 64.9804C50.7081 65.0604 51.6065 64.8005 52.3259 64.2518C53.0452 63.7032 53.5334 62.9054 53.6946 62.0152C54.302 62.1504 54.934 62.127 55.5298 61.9472C56.1255 61.7674 56.665 61.4372 57.0962 60.9885C57.5274 60.5399 57.8359 59.9877 57.9919 59.3853C58.1479 58.7828 58.1462 58.1504 57.9869 57.5488C58.821 57.2809 59.5547 56.7674 60.0921 56.0756C60.6295 55.3838 60.9455 54.5459 60.9988 53.6715C61.052 52.7971 60.8401 51.927 60.3907 51.175C59.9413 50.4231 59.2753 49.8243 58.48 49.4571C58.9528 48.99 59.2882 48.4018 59.4493 47.7569C59.6104 47.112 59.5911 46.4352 59.3936 45.8005C59.196 45.1658 58.8277 44.5977 58.329 44.1582C57.8302 43.7187 57.2203 43.4248 56.5658 43.3086C56.6714 42.8339 56.6804 42.3427 56.5922 41.8644C56.5041 41.3862 56.3206 40.9305 56.0527 40.5246C55.7848 40.1187 55.4379 39.7708 55.0328 39.5017C54.6277 39.2326 54.1726 39.0478 53.6946 38.9582C53.5388 38.1263 53.0969 37.375 52.4453 36.8347C51.7938 36.2944 50.9737 35.9991 50.1273 36Z" stroke="#E8ECF0" stroke-width="2" stroke-linecap="round" stroke-linejoin="round"/>
</svg>
